<svg width="71" height="70" viewBox="0 0 71 70" version="1.1" xmlns="http://www.w3.org/2000/svg" xmlns:xlink="http://www.w3.org/1999/xlink">
<title>changeDesignSettings</title>
<desc>Created using Figma</desc>
<g id="Canvas" transform="translate(5756 5336)">
<g id="changeDesignSettings">
<use xlink:href="#path0_fill" transform="translate(-5756 -5336)" fill="#636B6F"/>
<use xlink:href="#path1_fill" transform="translate(-5756 -5336)" fill="#636B6F"/>
</g>
</g>
<defs>
<path id="path0_fill" d="M 68.8057 14.8262C 70.279 13.3529 70.279 10.9214 68.8057 9.37619L 60.7777 1.34814C 59.3044 -0.125162 56.8728 -0.125162 55.3276 1.34814L 52.0127 4.66308L 65.4942 18.1446L 68.8057 14.8262Z"/>
<path id="path1_fill" d="M 69.6887 54.6769L 49.2841 34.2724L 63.5737 19.9828L 50.0922 6.50127L 35.8026 20.7909L 15.3981 0.386312C 14.883 -0.128771 13.9996 -0.128771 13.4097 0.386312L 0.443141 13.3529C 0.149629 13.6464 0 13.9428 0 14.3111C 0 14.6795 0.146756 15.0478 0.443141 15.2694L 20.8477 35.6739L 4.64133 51.8803C 4.19819 52.3234 3.90467 52.8385 3.82983 53.4284L 1.1767 66.3199C 1.02994 66.9098 1.1767 67.4997 1.47021 67.9399C 1.91335 68.6017 2.79678 68.97 3.53343 68.8233L 16.5 66.1702C 17.0899 66.0234 17.6798 65.727 18.0481 65.3587L 34.2545 49.1523L 54.6591 69.5569C 54.9526 69.8504 55.3209 70 55.6173 70C 55.9108 70 56.354 69.8532 56.5755 69.5569L 69.5421 56.5903C 69.8356 56.2968 69.9853 56.0004 69.9853 55.632C 70.132 55.2666 69.9851 54.8985 69.6887 54.6769ZM 16.2091 63.6633L 8.03082 65.3582L 4.86262 62.19L 6.55751 54.0117L 6.63232 53.9369L 9.43219 54.452L 9.35738 56.8835C 9.35738 57.1051 9.50414 57.2518 9.72571 57.2518L 13.1874 57.1051L 13.0406 60.5668C 13.0406 60.7883 13.1874 60.9351 13.409 60.9351L 15.8405 60.8603L 16.2091 63.6633ZM 3.53944 14.3827L 14.5141 3.40806L 17.9758 6.86974L 12.5257 12.3198C 12.0106 12.8349 12.0106 13.7183 12.5257 14.3082C 12.8192 14.6017 13.1876 14.7513 13.484 14.7513C 13.7775 14.7513 14.2206 14.6046 14.4422 14.3082L 19.8923 8.85812L 23.3539 12.3198L 17.9039 17.7698C 17.3888 18.2849 17.3888 19.1683 17.9039 19.7582C 18.1974 20.0517 18.5657 20.2014 18.8621 20.2014C 19.1556 20.2014 19.5988 20.0546 19.8204 19.7582L 25.2704 14.3082L 28.7321 17.7698L 23.282 23.2199C 22.767 23.735 22.767 24.6184 23.282 25.2083C 23.5756 25.5018 23.9439 25.6514 24.2403 25.6514C 24.6086 25.6514 24.9769 25.5047 25.1985 25.2083L 30.6486 19.7582L 33.7419 22.8516L 22.7673 33.8262L 3.53944 14.3827ZM 55.7667 66.61L 36.392 47.2352L 47.3666 36.2606L 50.46 39.3539L 45.0099 44.804C 44.4948 45.3191 44.4948 46.2024 45.0099 46.7924C 45.3034 47.0859 45.6718 47.2355 45.9682 47.2355C 46.2617 47.2355 46.7048 47.0887 46.9264 46.7924L 52.3764 41.3423L 55.8381 44.804L 50.3881 50.254C 49.873 50.7691 49.873 51.6525 50.3881 52.2424C 50.6816 52.5359 51.0499 52.6856 51.3463 52.6856C 51.6398 52.6856 52.083 52.5388 52.3046 52.2424L 57.7546 46.7924L 61.2163 50.254L 55.7662 55.7041C 55.2511 56.2192 55.2511 57.1026 55.7662 57.6925C 56.0597 57.986 56.4281 58.1356 56.7245 58.1356C 57.018 58.1356 57.4611 57.9889 57.6827 57.6925L 63.1328 52.2424L 66.5944 55.7041L 55.7667 66.61Z"/>
</defs>
</svg>
