<svg width="66" height="70" viewBox="0 0 66 70" version="1.1" xmlns="http://www.w3.org/2000/svg" xmlns:xlink="http://www.w3.org/1999/xlink">
<title>getSupport</title>
<desc>Created using Figma</desc>
<g id="Canvas" transform="translate(4980 5340)">
<g id="getSupport">
<use xlink:href="#path0_fill" transform="translate(-4980 -5340)" fill="#636B6F"/>
</g>
</g>
<defs>
<path id="path0_fill" d="M 32.766 0C 20.4296 0 10.4255 10.004 10.4255 22.3404L 10.4255 29.7872L 9.68085 29.7872C 4.35757 29.7872 0 34.1448 0 39.4681L 0 45.4255C 0 50.7488 4.35757 55.1064 9.68085 55.1064L 17.1277 55.1064C 18.297 55.1064 19.3617 54.0417 19.3617 52.8723L 19.3617 32.0213C 19.3617 30.8519 18.297 29.7872 17.1277 29.7872L 14.8936 29.7872L 14.8936 22.3404C 14.8936 12.4004 22.826 4.46809 32.766 4.46809C 42.706 4.46809 50.6383 12.4004 50.6383 22.3404L 50.6383 29.7872L 48.4043 29.7872C 46.9789 29.8629 46.1934 31.0788 46.1702 32.0213L 46.1702 52.8723C 46.1702 54.0417 47.2349 55.1064 48.4043 55.1064L 50.266 55.1064C 49.818 56.4648 48.9424 57.7215 47.4966 58.8298C 45.5448 60.325 42.5224 61.506 38.2581 61.762C 37.3535 59.6181 35.2212 58.0851 32.7661 58.0851C 29.5023 58.0851 26.8087 60.7788 26.8087 64.0426C 26.8087 67.3063 29.5023 70 32.7661 70C 35.2649 70 37.4262 68.435 38.3047 66.2301C 43.3633 65.9653 47.357 64.5807 50.2196 62.3903C 52.7445 60.4559 54.3182 57.867 54.8738 55.1065L 55.8512 55.1065C 61.1745 55.1065 65.5321 50.7489 65.5321 45.4256L 65.5321 39.4682C 65.5321 34.1449 61.1745 29.7873 55.8512 29.7873L 55.1065 29.7873L 55.1065 22.3405C 55.1065 10.0041 45.1023 0 32.766 0Z"/>
</defs>
</svg>
