<svg width="70" height="70" viewBox="0 0 70 70" version="1.1" xmlns="http://www.w3.org/2000/svg" xmlns:xlink="http://www.w3.org/1999/xlink">
<title>manageAdministrators</title>
<desc>Created using Figma</desc>
<g id="Canvas" transform="translate(5246 5336)">
<g id="manageAdministrators">
<use xlink:href="#path0_fill" transform="translate(-5246 -5336)" fill="#636B6F"/>
</g>
</g>
<defs>
<path id="path0_fill" d="M 56.875 43.75C 49.5833 43.75 43.75 49.5833 43.75 56.875C 43.75 64.1667 49.5833 70 56.875 70C 64.1667 70 70 64.1667 70 56.875C 70 49.5833 64.1667 43.75 56.875 43.75ZM 64.1667 58.3333L 58.3333 58.3333L 58.3333 64.1667L 55.4167 64.1667L 55.4167 58.3333L 49.5833 58.3333L 49.5833 55.4167L 55.4167 55.4167L 55.4167 49.5833L 58.3333 49.5833L 58.3333 55.4167L 64.1667 55.4167L 64.1667 58.3333ZM 35 67.0833C 25.9595 67.0833 17.939 63.2893 12.1056 57.3137C 13.8545 49.2928 23.0431 43.75 35 43.75C 38.9363 43.75 42.5822 44.3311 45.647 45.4988C 48.5637 42.7303 52.5 40.8333 56.875 40.8333C 61.3982 40.8333 65.4768 42.7303 68.3935 45.647C 69.4189 42.2917 70 38.794 70 35C 70 15.7515 54.2485 0 35 0C 15.7515 0 0 15.7515 0 35C 0 54.2485 15.7515 70 35 70C 38.794 70 42.2917 69.4189 45.647 68.3935C 44.9178 67.6643 44.1887 66.787 43.6077 65.9155C 40.8335 66.6447 37.9167 67.0833 35 67.0833ZM 35 11.6667C 43.0208 11.6667 49.5833 18.2292 49.5833 26.25C 49.5833 34.2708 43.0208 40.8333 35 40.8333C 26.9792 40.8333 20.4167 34.2708 20.4167 26.25C 20.4167 18.2292 26.9792 11.6667 35 11.6667Z"/>
</defs>
</svg>
