<svg width="9" height="20" viewBox="0 0 9 20" version="1.1" xmlns="http://www.w3.org/2000/svg" xmlns:xlink="http://www.w3.org/1999/xlink">
<title>Vector</title>
<desc>Created using Figma</desc>
<g id="Canvas" transform="translate(-5411 -6500)">
<g id="Vector">
<use xlink:href="#path0_fill" transform="translate(5411 6500)" fill="#FFFFFF"/>
</g>
</g>
<defs>
<path id="path0_fill" d="M 3.7325 7.15283L 3.7325 2.89423C 3.7325 2.66276 3.59326 2.57054 3.40881 2.75499L 1.2334 4.97743C 0.586033 5.62479 -0.386865 4.65374 0.260499 4.00453L 3.96395 0.208861C 4.24243 -0.0696202 4.65835 -0.0696202 4.93685 0.208861L 8.64031 4.00453C 9.28767 4.6519 8.31662 5.67183 7.66741 4.97743L 5.44497 2.75499C 5.26051 2.57054 5.12127 2.61575 5.12127 2.89423L 5.12127 17.1058C 5.12127 17.3372 5.26051 17.4295 5.44497 17.245L 7.62038 15.0226C 8.26774 14.3752 9.24064 15.3463 8.59327 15.9955L 4.88982 19.7911C 4.61134 20.0696 4.19542 20.0696 3.91692 19.7911L 0.213464 15.9955C -0.4339 15.3481 0.537156 14.3282 1.18636 15.0226L 3.36177 17.245C 3.54622 17.4295 3.68546 17.3843 3.68546 17.1058L 3.7325 7.15283Z"/>
</defs>
</svg>
