<svg width="76" height="99" viewBox="0 0 76 99" version="1.1" xmlns="http://www.w3.org/2000/svg" xmlns:xlink="http://www.w3.org/1999/xlink">
<title>Letter Icon</title>
<desc>Created using Figma</desc>
<g id="Canvas" transform="translate(-5087 -7372)">
<g id="Letter Icon">
<g id="Canvas">
<g id="Letter Icon">
<g id="Rectangle 6">
<g id="Vector">
<use xlink:href="#path0_fill" transform="translate(5087 7372)" fill="#FFFFFF"/>
</g>
<mask id="mask0_alpha" mask-type="alpha">
<g id="mask0 outline ins">
<g id="Vector">
<use xlink:href="#path0_fill" transform="translate(5087 7372)" fill="#FFFFFF"/>
</g>
</g>
</mask>
<g id="Group" mask="url(#mask0_alpha)">
<g id="Vector">
<use xlink:href="#path1_fill" transform="translate(5086 7371)" fill="#E6E6E6"/>
</g>
</g>
</g>
<g id="Group">
<g id="Rectangle 8">
<g id="Vector">
<use xlink:href="#path2_fill" transform="translate(5094 7389.33)" fill="#C4C4C4"/>
</g>
</g>
<g id="Rectangle 8">
<g id="Vector">
<use xlink:href="#path3_fill" transform="translate(5094 7384)" fill="#041A38"/>
</g>
</g>
<g id="Rectangle 8">
<g id="Vector">
<use xlink:href="#path2_fill" transform="translate(5116.63 7389.33)" fill="#C4C4C4"/>
</g>
</g>
<g id="Rectangle 8">
<g id="Vector">
<use xlink:href="#path2_fill" transform="translate(5140.59 7389.33)" fill="#C4C4C4"/>
</g>
</g>
<g id="Rectangle 8">
<g id="Vector">
<use xlink:href="#path2_fill" transform="translate(5094 7394.67)" fill="#C4C4C4"/>
</g>
</g>
<g id="Rectangle 8">
<g id="Vector">
<use xlink:href="#path2_fill" transform="translate(5116.63 7394.67)" fill="#C4C4C4"/>
</g>
</g>
<g id="Rectangle 8">
<g id="Vector">
<use xlink:href="#path2_fill" transform="translate(5140.59 7394.67)" fill="#C4C4C4"/>
</g>
</g>
<g id="Rectangle 8">
<g id="Vector">
<use xlink:href="#path2_fill" transform="translate(5094 7400)" fill="#C4C4C4"/>
</g>
</g>
<g id="Rectangle 8">
<g id="Vector">
<use xlink:href="#path2_fill" transform="translate(5116.63 7400)" fill="#C4C4C4"/>
</g>
</g>
<g id="Rectangle 8">
<g id="Vector">
<use xlink:href="#path2_fill" transform="translate(5140.59 7400)" fill="#C4C4C4"/>
</g>
</g>
<g id="Rectangle 8">
<g id="Vector">
<use xlink:href="#path2_fill" transform="translate(5094 7405.33)" fill="#C4C4C4"/>
</g>
</g>
<g id="Rectangle 8">
<g id="Vector">
<use xlink:href="#path2_fill" transform="translate(5116.63 7405.33)" fill="#C4C4C4"/>
</g>
</g>
<g id="Rectangle 8">
<g id="Vector">
<use xlink:href="#path2_fill" transform="translate(5140.59 7405.33)" fill="#C4C4C4"/>
</g>
</g>
</g>
<g id="Group">
<g id="Rectangle 8">
<g id="Vector">
<use xlink:href="#path2_fill" transform="translate(5094 7420.33)" fill="#C4C4C4"/>
</g>
</g>
<g id="Rectangle 8">
<g id="Vector">
<use xlink:href="#path3_fill" transform="translate(5094 7415)" fill="#041A38"/>
</g>
</g>
<g id="Rectangle 8">
<g id="Vector">
<use xlink:href="#path2_fill" transform="translate(5116.63 7420.33)" fill="#C4C4C4"/>
</g>
</g>
<g id="Rectangle 8">
<g id="Vector">
<use xlink:href="#path2_fill" transform="translate(5140.59 7420.33)" fill="#C4C4C4"/>
</g>
</g>
<g id="Rectangle 8">
<g id="Vector">
<use xlink:href="#path2_fill" transform="translate(5094 7425.67)" fill="#C4C4C4"/>
</g>
</g>
<g id="Rectangle 8">
<g id="Vector">
<use xlink:href="#path2_fill" transform="translate(5116.63 7425.67)" fill="#C4C4C4"/>
</g>
</g>
<g id="Rectangle 8">
<g id="Vector">
<use xlink:href="#path2_fill" transform="translate(5140.59 7425.67)" fill="#C4C4C4"/>
</g>
</g>
<g id="Rectangle 8">
<g id="Vector">
<use xlink:href="#path2_fill" transform="translate(5094 7431)" fill="#C4C4C4"/>
</g>
</g>
<g id="Rectangle 8">
<g id="Vector">
<use xlink:href="#path2_fill" transform="translate(5116.63 7431)" fill="#C4C4C4"/>
</g>
</g>
<g id="Rectangle 8">
<g id="Vector">
<use xlink:href="#path2_fill" transform="translate(5140.59 7431)" fill="#C4C4C4"/>
</g>
</g>
<g id="Rectangle 8">
<g id="Vector">
<use xlink:href="#path2_fill" transform="translate(5094 7436.33)" fill="#C4C4C4"/>
</g>
</g>
<g id="Rectangle 8">
<g id="Vector">
<use xlink:href="#path2_fill" transform="translate(5116.63 7436.33)" fill="#C4C4C4"/>
</g>
</g>
<g id="Rectangle 8">
<g id="Vector">
<use xlink:href="#path2_fill" transform="translate(5140.59 7436.33)" fill="#C4C4C4"/>
</g>
</g>
</g>
</g>
</g>
</g>
</g>
<defs>
<path id="path0_fill" d="M 0 0L 76 0L 76 99L 0 99L 0 0Z"/>
<path id="path1_fill" d="M 1 1L 1 0L 0 0L 0 1L 1 1ZM 77 1L 78 1L 78 0L 77 0L 77 1ZM 77 100L 77 101L 78 101L 78 100L 77 100ZM 1 100L 0 100L 0 101L 1 101L 1 100ZM 1 2L 77 2L 77 0L 1 0L 1 2ZM 76 1L 76 100L 78 100L 78 1L 76 1ZM 77 99L 1 99L 1 101L 77 101L 77 99ZM 2 100L 2 1L 0 1L 0 100L 2 100Z"/>
<path id="path2_fill" d="M 0 0L 17.412 0L 17.412 2.66667L 0 2.66667L 0 0Z"/>
<path id="path3_fill" d="M 0 0L 31.946 0L 31.946 2.66667L 0 2.66667L 0 0Z"/>
</defs>
</svg>
