<svg width="59" height="91" viewBox="0 0 59 91" version="1.1" xmlns="http://www.w3.org/2000/svg" xmlns:xlink="http://www.w3.org/1999/xlink">
<title>Statement Icon</title>
<desc>Created using Figma</desc>
<g id="Canvas" transform="translate(-4918 -7371)">
<g id="Statement Icon">
<g id="Canvas">
<g id="Statement Icon">
<g id="Rectangle 6">
<g id="Vector">
<use xlink:href="#path0_fill" transform="translate(4918 7371)" fill="#FFFFFF"/>
</g>
<mask id="mask0_alpha" mask-type="alpha">
<g id="mask0 outline ins">
<g id="Vector">
<use xlink:href="#path0_fill" transform="translate(4918 7371)" fill="#FFFFFF"/>
</g>
</g>
</mask>
<g id="Group" mask="url(#mask0_alpha)">
<g id="Vector">
<use xlink:href="#path1_fill" transform="translate(4917 7370)" fill="#E6E6E6"/>
</g>
</g>
</g>
<g id="Group">
<g id="Rectangle 8">
<g id="Vector">
<use xlink:href="#path2_fill" transform="translate(4924 7383)" fill="#C4C4C4"/>
</g>
</g>
<g id="Rectangle 8">
<g id="Vector">
<use xlink:href="#path3_fill" transform="translate(4924 7379)" fill="#041A38"/>
</g>
</g>
<g id="Rectangle 8">
<g id="Vector">
<use xlink:href="#path2_fill" transform="translate(4941 7383)" fill="#C4C4C4"/>
</g>
</g>
<g id="Rectangle 8">
<g id="Vector">
<use xlink:href="#path2_fill" transform="translate(4959 7383)" fill="#C4C4C4"/>
</g>
</g>
<g id="Rectangle 8">
<g id="Vector">
<use xlink:href="#path2_fill" transform="translate(4924 7387)" fill="#C4C4C4"/>
</g>
</g>
<g id="Rectangle 8">
<g id="Vector">
<use xlink:href="#path2_fill" transform="translate(4941 7387)" fill="#C4C4C4"/>
</g>
</g>
<g id="Rectangle 8">
<g id="Vector">
<use xlink:href="#path2_fill" transform="translate(4959 7387)" fill="#C4C4C4"/>
</g>
</g>
<g id="Rectangle 8">
<g id="Vector">
<use xlink:href="#path2_fill" transform="translate(4924 7391)" fill="#C4C4C4"/>
</g>
</g>
<g id="Rectangle 8">
<g id="Vector">
<use xlink:href="#path2_fill" transform="translate(4941 7391)" fill="#C4C4C4"/>
</g>
</g>
<g id="Rectangle 8">
<g id="Vector">
<use xlink:href="#path2_fill" transform="translate(4959 7391)" fill="#C4C4C4"/>
</g>
</g>
<g id="Rectangle 8">
<g id="Vector">
<use xlink:href="#path2_fill" transform="translate(4924 7395)" fill="#C4C4C4"/>
</g>
</g>
<g id="Rectangle 8">
<g id="Vector">
<use xlink:href="#path2_fill" transform="translate(4941 7395)" fill="#C4C4C4"/>
</g>
</g>
<g id="Rectangle 8">
<g id="Vector">
<use xlink:href="#path2_fill" transform="translate(4959 7395)" fill="#C4C4C4"/>
</g>
</g>
</g>
<g id="Group">
<g id="Rectangle 8">
<g id="Vector">
<use xlink:href="#path2_fill" transform="translate(4924 7407)" fill="#C4C4C4"/>
</g>
</g>
<g id="Rectangle 8">
<g id="Vector">
<use xlink:href="#path3_fill" transform="translate(4924 7403)" fill="#041A38"/>
</g>
</g>
<g id="Rectangle 8">
<g id="Vector">
<use xlink:href="#path2_fill" transform="translate(4941 7407)" fill="#C4C4C4"/>
</g>
</g>
<g id="Rectangle 8">
<g id="Vector">
<use xlink:href="#path2_fill" transform="translate(4959 7407)" fill="#C4C4C4"/>
</g>
</g>
<g id="Rectangle 8">
<g id="Vector">
<use xlink:href="#path2_fill" transform="translate(4924 7411)" fill="#C4C4C4"/>
</g>
</g>
<g id="Rectangle 8">
<g id="Vector">
<use xlink:href="#path2_fill" transform="translate(4941 7411)" fill="#C4C4C4"/>
</g>
</g>
<g id="Rectangle 8">
<g id="Vector">
<use xlink:href="#path2_fill" transform="translate(4959 7411)" fill="#C4C4C4"/>
</g>
</g>
<g id="Rectangle 8">
<g id="Vector">
<use xlink:href="#path2_fill" transform="translate(4924 7415)" fill="#C4C4C4"/>
</g>
</g>
<g id="Rectangle 8">
<g id="Vector">
<use xlink:href="#path2_fill" transform="translate(4941 7415)" fill="#C4C4C4"/>
</g>
</g>
<g id="Rectangle 8">
<g id="Vector">
<use xlink:href="#path2_fill" transform="translate(4959 7415)" fill="#C4C4C4"/>
</g>
</g>
<g id="Rectangle 8">
<g id="Vector">
<use xlink:href="#path2_fill" transform="translate(4924 7419)" fill="#C4C4C4"/>
</g>
</g>
<g id="Rectangle 8">
<g id="Vector">
<use xlink:href="#path2_fill" transform="translate(4941 7419)" fill="#C4C4C4"/>
</g>
</g>
<g id="Rectangle 8">
<g id="Vector">
<use xlink:href="#path2_fill" transform="translate(4959 7419)" fill="#C4C4C4"/>
</g>
</g>
</g>
<g id="Group">
<g id="Rectangle 8">
<g id="Vector">
<use xlink:href="#path2_fill" transform="translate(4924 7430)" fill="#C4C4C4"/>
</g>
</g>
<g id="Rectangle 8">
<g id="Vector">
<use xlink:href="#path3_fill" transform="translate(4924 7426)" fill="#041A38"/>
</g>
</g>
<g id="Rectangle 8">
<g id="Vector">
<use xlink:href="#path2_fill" transform="translate(4941 7430)" fill="#C4C4C4"/>
</g>
</g>
<g id="Rectangle 8">
<g id="Vector">
<use xlink:href="#path2_fill" transform="translate(4959 7430)" fill="#C4C4C4"/>
</g>
</g>
<g id="Rectangle 8">
<g id="Vector">
<use xlink:href="#path2_fill" transform="translate(4924 7434)" fill="#C4C4C4"/>
</g>
</g>
<g id="Rectangle 8">
<g id="Vector">
<use xlink:href="#path2_fill" transform="translate(4941 7434)" fill="#C4C4C4"/>
</g>
</g>
<g id="Rectangle 8">
<g id="Vector">
<use xlink:href="#path2_fill" transform="translate(4959 7434)" fill="#C4C4C4"/>
</g>
</g>
<g id="Rectangle 8">
<g id="Vector">
<use xlink:href="#path2_fill" transform="translate(4924 7438)" fill="#C4C4C4"/>
</g>
</g>
<g id="Rectangle 8">
<g id="Vector">
<use xlink:href="#path2_fill" transform="translate(4941 7438)" fill="#C4C4C4"/>
</g>
</g>
<g id="Rectangle 8">
<g id="Vector">
<use xlink:href="#path2_fill" transform="translate(4959 7438)" fill="#C4C4C4"/>
</g>
</g>
<g id="Rectangle 8">
<g id="Vector">
<use xlink:href="#path2_fill" transform="translate(4924 7442)" fill="#C4C4C4"/>
</g>
</g>
<g id="Rectangle 8">
<g id="Vector">
<use xlink:href="#path2_fill" transform="translate(4941 7442)" fill="#C4C4C4"/>
</g>
</g>
<g id="Rectangle 8">
<g id="Vector">
<use xlink:href="#path2_fill" transform="translate(4959 7442)" fill="#C4C4C4"/>
</g>
</g>
</g>
</g>
</g>
</g>
</g>
<defs>
<path id="path0_fill" d="M 0 0L 59 0L 59 91L 0 91L 0 0Z"/>
<path id="path1_fill" d="M 1 1L 1 0L 0 0L 0 1L 1 1ZM 60 1L 61 1L 61 0L 60 0L 60 1ZM 60 92L 60 93L 61 93L 61 92L 60 92ZM 1 92L 0 92L 0 93L 1 93L 1 92ZM 1 2L 60 2L 60 0L 1 0L 1 2ZM 59 1L 59 92L 61 92L 61 1L 59 1ZM 60 91L 1 91L 1 93L 60 93L 60 91ZM 2 92L 2 1L 0 1L 0 92L 2 92Z"/>
<path id="path2_fill" d="M 0 0L 13.0811 0L 13.0811 2L 0 2L 0 0Z"/>
<path id="path3_fill" d="M 0 0L 24 0L 24 2L 0 2L 0 0Z"/>
</defs>
</svg>
