<svg width="59" height="98" viewBox="0 0 59 98" version="1.1" xmlns="http://www.w3.org/2000/svg" xmlns:xlink="http://www.w3.org/1999/xlink">
<title>Booklet Icon</title>
<desc>Created using Figma</desc>
<g id="Canvas" transform="translate(-5290 -7373)">
<g id="Booklet Icon">
<g id="Group">
<g id="Rectangle 6">
<g id="Vector">
<use xlink:href="#path0_fill" transform="translate(5290 7373)" fill="#FFFFFF"/>
</g>
<mask id="mask0_alpha" mask-type="alpha">
<g id="mask0 outline ins">
<g id="Vector">
<use xlink:href="#path0_fill" transform="translate(5290 7373)" fill="#FFFFFF"/>
</g>
</g>
</mask>
<g id="Group" mask="url(#mask0_alpha)">
<g id="Vector">
<use xlink:href="#path1_fill" transform="translate(5289 7371.88)" fill="#E6E6E6"/>
</g>
</g>
</g>
<g id="Rectangle 6">
<g id="Vector">
<use xlink:href="#path2_fill" transform="translate(5290 7379.5)" fill="#FFFFFF"/>
</g>
<mask id="mask1_alpha" mask-type="alpha">
<g id="mask1 outline ins">
<g id="Vector">
<use xlink:href="#path2_fill" transform="translate(5290 7379.5)" fill="#FFFFFF"/>
</g>
</g>
</mask>
<g id="Group" mask="url(#mask1_alpha)">
<g id="Vector">
<use xlink:href="#path3_fill" transform="translate(5289 7378.5)" fill="#E6E6E6"/>
</g>
</g>
</g>
</g>
<g id="Rectangle 8">
<g id="Vector">
<use xlink:href="#path4_fill" transform="translate(5303 7416)" fill="#041A38"/>
</g>
</g>
<g id="Rectangle 8">
<g id="Vector">
<use xlink:href="#path4_fill" transform="translate(5303 7421)" fill="#C4C4C4"/>
</g>
</g>
</g>
</g>
<defs>
<path id="path0_fill" d="M 0 6.5L 53.5 0L 59 97.5L 0 97.5L 0 6.5Z"/>
<path id="path1_fill" d="M 1 7.62136L 0.879392 6.62866L 0 6.7355L 0 7.62136L 1 7.62136ZM 54.5 1.12136L 55.4984 1.06504L 55.4383 5.56564e-08L 54.3794 0.12866L 54.5 1.12136ZM 60 98.6214L 60 99.6214L 61.058 99.6214L 60.9984 98.5651L 60 98.6214ZM 1 98.6214L 0 98.6214L 0 99.6214L 1 99.6214L 1 98.6214ZM 1.12061 8.61406L 54.6206 2.11406L 54.3794 0.12866L 0.879392 6.62866L 1.12061 8.61406ZM 53.5016 1.17768L 59.0016 98.6777L 60.9984 98.5651L 55.4984 1.06504L 53.5016 1.17768ZM 60 97.6214L 1 97.6214L 1 99.6214L 60 99.6214L 60 97.6214ZM 2 98.6214L 2 7.62136L 0 7.62136L 0 98.6214L 2 98.6214Z"/>
<path id="path2_fill" d="M 0 0L 59 0L 59 91L 0 91L 0 0Z"/>
<path id="path3_fill" d="M 1 1L 1 0L 0 0L 0 1L 1 1ZM 60 1L 61 1L 61 0L 60 0L 60 1ZM 60 92L 60 93L 61 93L 61 92L 60 92ZM 1 92L 0 92L 0 93L 1 93L 1 92ZM 1 2L 60 2L 60 0L 1 0L 1 2ZM 59 1L 59 92L 61 92L 61 1L 59 1ZM 60 91L 1 91L 1 93L 60 93L 60 91ZM 2 92L 2 1L 0 1L 0 92L 2 92Z"/>
<path id="path4_fill" d="M 0 0L 31.946 0L 31.946 2.66667L 0 2.66667L 0 0Z"/>
</defs>
</svg>
