<svg width="434" height="75" viewBox="0 0 434 75" version="1.1" xmlns="http://www.w3.org/2000/svg" xmlns:xlink="http://www.w3.org/1999/xlink">
<title>logo</title>
<desc>Created using Figma</desc>
<g id="Canvas" transform="translate(-4728 5639)">
<g id="logo">
<g id="Canvas">
<g id="logo">
<g id="SimpleChurchWebsites">
<g id="Vector">
<use xlink:href="#path0_fill" transform="translate(4795.37 -5613.83)" fill="#556665"/>
</g>
<g id="Vector">
<use xlink:href="#path1_fill" transform="translate(4815.73 -5613.76)" fill="#556665"/>
</g>
<g id="Vector">
<use xlink:href="#path2_fill" transform="translate(4824.68 -5606.11)" fill="#556665"/>
</g>
<g id="Vector">
<use xlink:href="#path3_fill" transform="translate(4853.94 -5606.13)" fill="#556665"/>
</g>
<g id="Vector">
<use xlink:href="#path4_fill" transform="translate(4874.13 -5614.28)" fill="#556665"/>
</g>
<g id="Vector">
<use xlink:href="#path5_fill" transform="translate(4880.98 -5606.11)" fill="#556665"/>
</g>
<g id="Vector">
<use xlink:href="#path6_fill" transform="translate(4899.24 -5614.61)" fill="#556665"/>
</g>
<g id="Vector">
<use xlink:href="#path7_fill" transform="translate(4924.16 -5615.05)" fill="#556665"/>
</g>
<g id="Vector">
<use xlink:href="#path8_fill" transform="translate(4944.94 -5606.59)" fill="#556665"/>
</g>
<g id="Vector">
<use xlink:href="#path9_fill" transform="translate(4966.09 -5606.96)" fill="#556665"/>
</g>
<g id="Vector">
<use xlink:href="#path10_fill" transform="translate(4978.82 -5606.89)" fill="#556665"/>
</g>
<g id="Vector">
<use xlink:href="#path11_fill" transform="translate(4997.69 -5615.05)" fill="#556665"/>
</g>
<g id="Vector">
<use xlink:href="#path12_fill" transform="translate(5017.04 -5613.54)" fill="#556665"/>
</g>
<g id="Vector">
<use xlink:href="#path13_fill" transform="translate(5054.28 -5606.11)" fill="#556665"/>
</g>
<g id="Vector">
<use xlink:href="#path14_fill" transform="translate(5074.61 -5614.28)" fill="#556665"/>
</g>
<g id="Vector">
<use xlink:href="#path15_fill" transform="translate(5093.15 -5606.11)" fill="#556665"/>
</g>
<g id="Vector">
<use xlink:href="#path16_fill" transform="translate(5110.07 -5613.76)" fill="#556665"/>
</g>
<g id="Vector">
<use xlink:href="#path17_fill" transform="translate(5116.99 -5612.24)" fill="#556665"/>
</g>
<g id="Vector">
<use xlink:href="#path18_fill" transform="translate(5130.76 -5606.11)" fill="#556665"/>
</g>
<g id="Vector">
<use xlink:href="#path19_fill" transform="translate(5149.55 -5606.11)" fill="#556665"/>
</g>
</g>
<g id="Main Mark Color">
<g id="Vector">
<g id="Vector">
<use xlink:href="#path20_fill" transform="translate(4755.33 -5639)" fill="#3678FF"/>
</g>
</g>
<g id="Vector">
<g id="Vector">
<use xlink:href="#path21_fill" transform="translate(4728 -5639)" fill="#24D783"/>
</g>
</g>
<g id="Group">
<g id="Vector">
<g id="Vector">
<use xlink:href="#path22_fill" transform="translate(4729.67 -5600.92)" fill="#FFC203"/>
</g>
</g>
<g id="Vector">
<g id="Vector">
<use xlink:href="#path23_fill" transform="translate(4731.03 -5592.86)" fill="#FFD504"/>
</g>
</g>
</g>
</g>
</g>
</g>
</g>
</g>
<defs>
<path id="path0_fill" d="M 14.8347 3.45592C 14.7244 3.66424 14.5651 3.76842 14.3568 3.76842C 14.1974 3.76842 13.9891 3.65812 13.7317 3.43753C 13.4866 3.20468 13.1496 2.95346 12.7207 2.68385C 12.2918 2.40198 11.7526 2.14462 11.103 1.91178C 10.4658 1.67893 9.67533 1.56251 8.7317 1.56251C 7.78806 1.56251 6.95472 1.69732 6.23167 1.96693C 5.52089 2.23654 4.92039 2.60418 4.43018 3.06988C 3.95224 3.53557 3.5846 4.0748 3.32724 4.68754C 3.08214 5.30029 2.95959 5.94368 2.95959 6.61771C 2.95959 7.50006 3.14341 8.22923 3.51107 8.80522C 3.89096 9.38121 4.3873 9.87142 5.00004 10.2758C 5.6128 10.6802 6.3052 11.0234 7.07727 11.3053C 7.86159 11.5749 8.66429 11.8445 9.48538 12.1141C 10.3065 12.3837 11.103 12.6839 11.8751 13.0148C 12.6594 13.3334 13.358 13.7379 13.9707 14.228C 14.5835 14.7182 15.0736 15.3249 15.4413 16.048C 15.8212 16.7587 16.0111 17.6472 16.0111 18.7134C 16.0111 19.804 15.8212 20.8335 15.4413 21.8016C 15.0736 22.7576 14.5344 23.5908 13.8237 24.3017C 13.1129 25.0125 12.2428 25.5762 11.2133 25.9929C 10.1839 26.3974 9.00743 26.5996 7.68389 26.5996C 5.96819 26.5996 4.49146 26.2993 3.25371 25.6988C 2.01594 25.086 0.931381 24.2526 0 23.1987L 0.51471 22.3899C 0.66177 22.206 0.833342 22.1142 1.02942 22.1142C 1.13972 22.1142 1.28065 22.1877 1.45222 22.3347C 1.62379 22.4819 1.83213 22.6656 2.07722 22.8863C 2.32232 23.0946 2.61644 23.3274 2.95959 23.5848C 3.30273 23.8299 3.70101 24.0627 4.15445 24.2832C 4.60789 24.4916 5.12873 24.6693 5.71696 24.8163C 6.3052 24.9635 6.9731 25.037 7.72066 25.037C 8.75007 25.037 9.66921 24.8838 10.478 24.5774C 11.2869 24.2588 11.967 23.8299 12.5185 23.2907C 13.0822 22.7514 13.5111 22.1142 13.8053 21.3789C 14.0994 20.6313 14.2465 19.8348 14.2465 18.9891C 14.2465 18.07 14.0565 17.3163 13.6766 16.7281C 13.3089 16.1277 12.8187 15.6313 12.206 15.2391C 11.5932 14.8346 10.8947 14.4977 10.1104 14.228C 9.33832 13.9585 8.54174 13.695 7.72066 13.4376C 6.89957 13.1803 6.09687 12.8923 5.31255 12.5736C 4.54048 12.255 3.84807 11.8506 3.23532 11.3604C 2.62258 10.8579 2.12624 10.2391 1.74635 9.50377C 1.37869 8.7562 1.19486 7.82483 1.19486 6.70961C 1.19486 5.83952 1.36031 5.00005 1.69119 4.19121C 2.02208 3.38239 2.50615 2.67159 3.14341 2.05884C 3.78066 1.43384 4.56499 0.937502 5.49638 0.569864C 6.44001 0.189953 7.51232 4.11419e-09 8.71331 4.11419e-09C 10.0614 4.11419e-09 11.2685 0.214462 12.3347 0.643395C 13.4131 1.07231 14.3935 1.72795 15.2758 2.61032L 14.8347 3.45592Z"/>
<path id="path1_fill" d="M 2.48162 7.94125L 2.48162 26.2319L 0.735307 26.2319L 0.735307 7.94125L 2.48162 7.94125ZM 3.25368 1.63605C 3.25368 1.85664 3.20463 2.06497 3.10668 2.26106C 3.02088 2.44488 2.90433 2.61032 2.75732 2.75738C 2.61032 2.90444 2.43872 3.02086 2.24267 3.10664C 2.04662 3.19243 1.83827 3.23533 1.61761 3.23533C 1.39696 3.23533 1.18876 3.19243 0.992558 3.10664C 0.796507 3.02086 0.624906 2.90444 0.477904 2.75738C 0.330903 2.61032 0.214351 2.44488 0.1287 2.26106C 0.0428997 2.06497 5.14989e-07 1.85664 5.14989e-07 1.63605C 5.14989e-07 1.41545 0.0428997 1.20712 0.1287 1.01103C 0.214351 0.802698 0.330903 0.625006 0.477904 0.477945C 0.624906 0.330884 0.796507 0.214467 0.992558 0.128677C 1.18876 0.0428929 1.39696 -2.72772e-08 1.61761 -2.72772e-08C 1.83827 -2.72772e-08 2.04662 0.0428929 2.24267 0.128677C 2.43872 0.214467 2.61032 0.330884 2.75732 0.477945C 2.90433 0.625006 3.02088 0.802698 3.10668 1.01103C 3.20463 1.20712 3.25368 1.41545 3.25368 1.63605Z"/>
<path id="path2_fill" d="M 1.41908e-07 18.5847L 1.41908e-07 0.294122L 0.955959 0.294122C 1.27456 0.294122 1.45831 0.447319 1.50736 0.753682L 1.67282 3.40077C 2.02817 2.89831 2.40812 2.43875 2.81253 2.02208C 3.21693 1.6054 3.64593 1.25002 4.09939 0.955899C 4.56499 0.649521 5.0552 0.416674 5.57 0.257357C 6.09696 0.0857858 6.64836 2.47652e-07 7.22437 2.47652e-07C 8.56013 2.47652e-07 9.62634 0.392164 10.423 1.17649C 11.2195 1.94855 11.7588 3.027 12.0406 4.41181C 12.2611 3.65199 12.5676 2.99635 12.9597 2.44487C 13.3641 1.89341 13.8237 1.43997 14.3383 1.08457C 14.8531 0.716916 15.4107 0.447304 16.0111 0.275747C 16.6239 0.0919207 17.249 2.47652e-07 17.8862 2.47652e-07C 18.7931 2.47652e-07 19.608 0.153196 20.331 0.459559C 21.0542 0.753682 21.6669 1.19487 22.1693 1.78311C 22.6841 2.37134 23.0762 3.09439 23.3458 3.95225C 23.6155 4.81009 23.7503 5.7905 23.7503 6.89349L 23.7503 18.5847L 21.9855 18.5847L 21.9855 6.89349C 21.9855 5.10422 21.5994 3.74391 20.8274 2.81253C 20.0553 1.8689 18.9524 1.39708 17.5185 1.39708C 16.8813 1.39708 16.2685 1.5135 15.6804 1.74635C 15.1044 1.97919 14.5896 2.32846 14.1361 2.79415C 13.695 3.24759 13.3396 3.81744 13.0701 4.50372C 12.8127 5.19 12.684 5.98658 12.684 6.89349L 12.684 18.5847L 10.9376 18.5847L 10.9376 6.89349C 10.9376 5.11647 10.5823 3.75617 9.87144 2.81253C 9.16058 1.8689 8.12512 1.39708 6.76476 1.39708C 5.7722 1.39708 4.85299 1.69733 4.00744 2.29781C 3.16188 2.88606 2.40812 3.70715 1.74632 4.76107L 1.74632 18.5847L 1.41908e-07 18.5847Z"/>
<path id="path3_fill" d="M -7.23273e-07 25.0737L -7.23273e-07 0.312498L 0.955956 0.312498C 1.11526 0.312498 1.24396 0.349263 1.34191 0.422794C 1.44001 0.484069 1.49522 0.600486 1.50737 0.772057L 1.67281 3.60297C 2.48177 2.50001 3.42528 1.62378 4.50379 0.974274C 5.59445 0.324753 6.81381 3.27762e-07 8.16187 3.27762e-07C 10.4168 3.27762e-07 12.1693 0.778192 13.4193 2.33458C 14.6692 3.89096 15.2943 6.22561 15.2943 9.33829C 15.2943 10.6741 15.1167 11.9242 14.7612 13.0883C 14.4181 14.2403 13.9095 15.2452 13.2355 16.1031C 12.5614 16.9486 11.7282 17.6166 10.7354 18.1068C 9.75504 18.597 8.62148 18.8421 7.33462 18.8421C 6.08466 18.8421 5.00629 18.6154 4.09938 18.162C 3.19248 17.7085 2.40812 17.0344 1.74646 16.1398L 1.74646 25.0737L -7.23273e-07 25.0737ZM 7.66552 1.41546C 6.45231 1.41546 5.34935 1.73408 4.35679 2.37134C 3.37638 2.99635 2.50622 3.87259 1.74646 5.00004L 1.74646 14.5957C 2.44487 15.6496 3.21693 16.3911 4.06264 16.8201C 4.92049 17.2489 5.89476 17.4634 6.98542 17.4634C 8.06392 17.4634 9.00743 17.2674 9.81639 16.8751C 10.6252 16.483 11.2992 15.9314 11.8384 15.2207C 12.3898 14.4977 12.8004 13.6399 13.0701 12.6472C 13.3519 11.6423 13.4928 10.5393 13.4928 9.33829C 13.4928 6.61771 12.9904 4.62013 11.9854 3.34561C 10.9928 2.05884 9.55284 1.41546 7.66552 1.41546Z"/>
<path id="path4_fill" d="M 1.74647 2.33805e-08L 1.74647 26.7466L 1.58388e-06 26.7466L 1.58388e-06 2.33805e-08L 1.74647 2.33805e-08Z"/>
<path id="path5_fill" d="M 8.25382 2.47652e-07C 9.28328 2.47652e-07 10.2329 0.177707 11.1031 0.53309C 11.9854 0.888488 12.7453 1.40932 13.3825 2.09561C 14.032 2.76964 14.5345 3.60297 14.8899 4.59564C 15.2575 5.58829 15.4414 6.72804 15.4414 8.01475C 15.4414 8.28445 15.3985 8.46821 15.3127 8.56631C 15.2392 8.66426 15.1167 8.71331 14.9451 8.71331L 1.72802 8.71331L 1.72802 9.06251C 1.72802 10.4352 1.88732 11.6422 2.20592 12.684C 2.52452 13.7256 2.97798 14.6019 3.56628 15.3126C 4.15444 16.0112 4.86529 16.5381 5.6987 16.8935C 6.53196 17.249 7.46332 17.4266 8.49278 17.4266C 9.41184 17.4266 10.2085 17.3286 10.8825 17.1326C 11.5566 16.9242 12.1203 16.6974 12.5737 16.4523C 13.0395 16.1951 13.407 15.9683 13.6767 15.7722C 13.9462 15.5639 14.1423 15.4598 14.2648 15.4598C 14.4243 15.4598 14.5468 15.521 14.6325 15.6435L 15.1105 16.2318C 14.8164 16.5995 14.4243 16.9425 13.9341 17.2611C 13.456 17.5799 12.9168 17.8556 12.3163 18.0884C 11.7282 18.309 11.0908 18.4866 10.4045 18.6215C 9.73059 18.7563 9.05033 18.8237 8.36408 18.8237C 7.11411 18.8237 5.9744 18.6092 4.94495 18.1803C 3.91549 17.7392 3.03318 17.1018 2.29787 16.2686C 1.56256 15.4352 0.99271 14.418 0.588307 13.2171C 0.196203 12.0037 7.41584e-07 10.6189 7.41584e-07 9.06251C 7.41584e-07 7.75135 0.1839 6.54414 0.551554 5.44122C 0.931507 4.32602 1.47061 3.37013 2.16917 2.57356C 2.88002 1.76472 3.74403 1.13359 4.76119 0.680151C 5.7905 0.226727 6.95481 2.47652e-07 8.25382 2.47652e-07ZM 8.27212 1.30516C 7.32861 1.30516 6.48291 1.45222 5.73545 1.74635C 4.98785 2.04047 4.33834 2.46326 3.78694 3.01474C 3.24768 3.56621 2.80653 4.22798 2.46332 5.00006C 2.13242 5.77211 1.91192 6.63609 1.80152 7.59205L 13.8604 7.59205C 13.8604 6.61164 13.7257 5.73535 13.456 4.96329C 13.1865 4.17896 12.8065 3.51719 12.3163 2.97798C 11.8261 2.43875 11.2379 2.02821 10.5517 1.74635C 9.86528 1.45222 9.10553 1.30516 8.27212 1.30516Z"/>
<path id="path6_fill" d="M 19.5407 20.1473C 19.6877 20.1473 19.8347 20.1779 19.9818 20.2392C 20.1288 20.2881 20.2698 20.3801 20.4045 20.5149L 22.8679 23.1068C 21.7893 24.5162 20.4353 25.5824 18.8054 26.3054C 17.1876 27.0161 15.2697 27.3716 13.0516 27.3716C 11.0173 27.3716 9.19119 27.0284 7.57357 26.3422C 5.96826 25.6436 4.60174 24.6878 3.47433 23.4744C 2.35907 22.2489 1.50121 20.8029 0.90076 19.1362C 0.300304 17.4573 -1.62965e-06 15.6375 -1.62965e-06 13.6766C -1.62965e-06 11.679 0.324748 9.8469 0.974254 8.18022C 1.62376 6.50129 2.53682 5.0552 3.71328 3.84194C 4.88975 2.6287 6.299 1.68506 7.94122 1.01104C 9.58343 0.337013 11.391 -1.92663e-08 13.3641 -1.92663e-08C 14.3689 -1.92663e-08 15.3126 0.0919118 16.195 0.275737C 17.0897 0.447307 17.9229 0.692408 18.695 1.01104C 19.467 1.31742 20.1779 1.69119 20.8274 2.13238C 21.4769 2.57355 22.0529 3.0515 22.5554 3.56621L 20.4597 6.37874C 20.3249 6.55031 20.1656 6.70962 19.9818 6.85668C 19.7979 6.99149 19.5407 7.05889 19.2098 7.05889C 18.9891 7.05889 18.7808 7.00987 18.5847 6.91183C 18.3887 6.81378 18.1803 6.69737 17.9597 6.56256C 17.7392 6.4155 17.4941 6.2623 17.2244 6.10299C 16.9671 5.93143 16.6545 5.77823 16.2868 5.64343C 15.9315 5.49637 15.5086 5.37382 15.0184 5.27578C 14.5405 5.17775 13.9768 5.12873 13.3273 5.12873C 12.2979 5.12873 11.3542 5.31868 10.4963 5.69858C 9.65078 6.07849 8.91548 6.63609 8.29057 7.37138C 7.67782 8.09444 7.19976 8.98904 6.85671 10.0552C 6.5258 11.1092 6.36036 12.3163 6.36036 13.6766C 6.36036 15.0492 6.54411 16.2685 6.91177 17.3347C 7.29172 18.4009 7.80037 19.3017 8.43757 20.037C 9.08708 20.76 9.84084 21.3114 10.6985 21.6914C 11.5564 22.0713 12.4756 22.2612 13.456 22.2612C 14.0197 22.2612 14.5344 22.2368 15.0001 22.1877C 15.4659 22.1264 15.9009 22.0346 16.3053 21.912C 16.7097 21.7772 17.0896 21.6056 17.445 21.3972C 17.8004 21.1767 18.1619 20.9009 18.5295 20.5701C 18.6767 20.4476 18.836 20.3495 19.0076 20.276C 19.179 20.1902 19.3568 20.1473 19.5407 20.1473Z"/>
<path id="path7_fill" d="M 5.69855 10.1288C 6.38481 9.54052 7.12627 9.06871 7.92293 8.71331C 8.73173 8.34567 9.69369 8.16184 10.8089 8.16184C 11.8506 8.16184 12.7698 8.34567 13.5663 8.71331C 14.3751 9.06871 15.0553 9.57117 15.6067 10.2207C 16.1581 10.8579 16.5748 11.6239 16.8567 12.5185C 17.1386 13.4009 17.2796 14.3629 17.2796 15.4045L 17.2796 27.5186L 11.581 27.5186L 11.581 15.4045C 11.581 14.4732 11.3665 13.7501 10.9376 13.2354C 10.5086 12.7084 9.87759 12.445 9.04418 12.445C 8.41913 12.445 7.83098 12.5798 7.27942 12.8494C 6.74032 13.1067 6.21321 13.4621 5.69855 13.9156L 5.69855 27.5186L -3.5889e-06 27.5186L -3.5889e-06 0L 5.69855 0L 5.69855 10.1288Z"/>
<path id="path8_fill" d="M 17.2802 -8.01094e-08L 17.2802 19.0627L 13.7506 19.0627C 13.0396 19.0627 12.5731 18.7441 12.3526 18.1067L 12.0226 17.0038C 11.6551 17.3593 11.2741 17.684 10.8826 17.978C 10.4896 18.26 10.0681 18.5051 9.61359 18.7133C 9.17258 18.9095 8.68807 19.0627 8.16157 19.1729C 7.64706 19.2955 7.08306 19.3568 6.47106 19.3568C 5.42855 19.3568 4.50304 19.1791 3.69453 18.8237C 2.89803 18.4561 2.22452 17.9474 1.67252 17.2979C 1.12201 16.6484 0.70501 15.8825 0.422707 15.0002C 0.140855 14.1178 4.30302e-06 13.1496 4.30302e-06 12.0957L 4.30302e-06 -8.01094e-08L 5.69855 -8.01094e-08L 5.69855 12.0957C 5.69855 13.0394 5.91305 13.7685 6.34206 14.2832C 6.77106 14.798 7.40257 15.0553 8.23508 15.0553C 8.86058 15.0553 9.44259 14.9266 9.98109 14.6693C 10.5331 14.3996 11.0656 14.0381 11.5816 13.5846L 11.5816 -8.01094e-08L 17.2802 -8.01094e-08Z"/>
<path id="path9_fill" d="M 5.33105 3.30885C 5.91906 2.27942 6.59256 1.4706 7.35307 0.882353C 8.12407 0.294123 9.00758 -9.17824e-08 9.99909 -9.17824e-08C 10.8571 -9.17824e-08 11.5561 0.202202 12.0961 0.60662L 11.7271 4.79784C 11.6671 5.06744 11.5621 5.25126 11.4151 5.3493C 11.2801 5.44734 11.0911 5.49636 10.8451 5.49636C 10.7476 5.49636 10.6186 5.49024 10.4596 5.47799C 10.3006 5.46573 10.1341 5.45348 9.96309 5.44122C 9.79209 5.41671 9.61359 5.39832 9.43059 5.38607C 9.25809 5.36156 9.09909 5.3493 8.95209 5.3493C 8.11808 5.3493 7.45056 5.5699 6.94806 6.01108C 6.45755 6.45226 6.04205 7.06497 5.69855 7.84933L 5.69855 19.4303L 1.1902e-06 19.4303L 1.1902e-06 0.367638L 3.38253 0.367638C 3.66453 0.367638 3.89704 0.392164 4.08004 0.441169C 4.27654 0.49019 4.43554 0.569855 4.55854 0.680151C 4.69355 0.778192 4.79105 0.912998 4.85255 1.08457C 4.92605 1.25614 4.98755 1.46446 5.03705 1.70957L 5.33105 3.30885Z"/>
<path id="path10_fill" d="M 15.0001 4.81621C 14.8291 5.02455 14.6641 5.18999 14.5036 5.31254C 14.3446 5.43509 14.1181 5.49636 13.8241 5.49636C 13.5421 5.49636 13.2856 5.42897 13.0516 5.29416C 12.8311 5.15936 12.5806 5.01229 12.2986 4.85298C 12.0166 4.68141 11.6851 4.52823 11.3056 4.39342C 10.9261 4.25861 10.4536 4.1912 9.88959 4.1912C 9.19208 4.1912 8.58458 4.31989 8.07007 4.57725C 7.56757 4.8346 7.15057 5.20224 6.82056 5.68019C 6.48906 6.15814 6.24456 6.74639 6.08556 7.4449C 5.92506 8.13115 5.84555 8.90936 5.84555 9.77952C 5.84555 11.6055 6.19505 13.0087 6.89406 13.9892C 7.60506 14.9696 8.57858 15.4596 9.81609 15.4596C 10.4791 15.4596 10.9996 15.38 11.3791 15.2207C 11.7721 15.0492 12.1021 14.8653 12.3721 14.6693C 12.6421 14.4609 12.8866 14.271 13.1071 14.0994C 13.3396 13.9278 13.6276 13.842 13.9711 13.842C 14.4241 13.842 14.7676 14.0075 15.0001 14.3384L 16.6546 16.3788C 16.0666 17.0528 15.4486 17.6043 14.7991 18.0332C 14.1496 18.4499 13.4806 18.7808 12.7951 19.0259C 12.1201 19.2587 11.4406 19.418 10.7536 19.5038C 10.0681 19.6019 9.40058 19.651 8.75107 19.651C 7.58706 19.651 6.47106 19.4303 5.40455 18.9892C 4.35154 18.548 3.42003 17.9106 2.61152 17.0774C 1.81352 16.2318 1.17751 15.1962 0.699005 13.9707C 0.234001 12.7452 5.40166e-06 11.3481 5.40166e-06 9.77952C 5.40166e-06 8.40701 0.202505 7.12629 0.607509 5.93755C 1.02451 4.73656 1.63051 3.70101 2.42702 2.8309C 3.23553 1.94855 4.22854 1.25613 5.40455 0.753682C 6.59406 0.251223 7.96658 3.43784e-07 9.52209 3.43784e-07C 11.0176 3.43784e-07 12.3286 0.238967 13.4566 0.716916C 14.5846 1.19487 15.6016 1.89339 16.5077 2.81253L 15.0001 4.81621Z"/>
<path id="path11_fill" d="M 5.69854 10.1288C 6.38405 9.54052 7.12656 9.06871 7.92306 8.71331C 8.73157 8.34567 9.6931 8.16184 10.8091 8.16184C 11.8501 8.16184 12.7696 8.34567 13.5661 8.71331C 14.3746 9.06871 15.0556 9.57117 15.6061 10.2207C 16.1582 10.8579 16.5752 11.6239 16.8572 12.5185C 17.1392 13.4009 17.2802 14.3629 17.2802 15.4045L 17.2802 27.5186L 11.5801 27.5186L 11.5801 15.4045C 11.5801 14.4732 11.3671 13.7501 10.9381 13.2354C 10.5091 12.7084 9.87759 12.445 9.04359 12.445C 8.41958 12.445 7.83006 12.5798 7.27956 12.8494C 6.73955 13.1067 6.21305 13.4621 5.69854 13.9156L 5.69854 27.5186L -4.94389e-06 27.5186L -4.94389e-06 0L 5.69854 0L 5.69854 10.1288Z"/>
<path id="path12_fill" d="M 8.78914e-06 -3.20437e-08L 1.56152 -3.20437e-08C 1.91703 -3.20437e-08 2.14352 0.165452 2.24252 0.496324L 8.80508 21.8751C 8.87858 22.1202 8.94007 22.3838 8.98807 22.6657C 9.04957 22.9475 9.11108 23.2417 9.17258 23.548C 9.23408 23.2417 9.29559 22.9475 9.35559 22.6657C 9.41709 22.3838 9.49059 22.1202 9.57759 21.8751L 16.9292 0.496324C 16.9787 0.361518 17.0641 0.245102 17.1872 0.147061C 17.3102 0.0490204 17.4572 -3.20437e-08 17.6282 -3.20437e-08L 18.1427 -3.20437e-08C 18.3152 -3.20437e-08 18.4562 0.0490204 18.5657 0.147061C 18.6767 0.232847 18.7622 0.349278 18.8237 0.496324L 26.1767 21.8751C 26.2622 22.1202 26.3357 22.3777 26.3972 22.6472C 26.4707 22.9169 26.5382 23.2049 26.5998 23.5112C 26.6597 23.2171 26.7152 22.9352 26.7647 22.6657C 26.8142 22.3838 26.8742 22.1202 26.9477 21.8751L 33.5103 0.496324C 33.5478 0.361518 33.6273 0.245102 33.7503 0.147061C 33.8853 0.0490204 34.0383 -3.20437e-08 34.2093 -3.20437e-08L 35.6433 -3.20437e-08L 27.4637 26.0113L 25.7717 26.0113L 18.0887 3.43754C 17.9897 3.14341 17.9042 2.83092 17.8307 2.50003C 17.7572 2.83092 17.6717 3.14341 17.5727 3.43754L 9.87159 26.0113L 8.19758 26.0113L 8.78914e-06 -3.20437e-08Z"/>
<path id="path13_fill" d="M 8.25458 2.47652e-07C 9.28359 2.47652e-07 10.2331 0.177707 11.1031 0.53309C 11.9851 0.888488 12.7456 1.40932 13.3831 2.09561C 14.0326 2.76964 14.5351 3.60297 14.8906 4.59564C 15.2581 5.58829 15.4411 6.72804 15.4411 8.01475C 15.4411 8.28445 15.3991 8.46821 15.3121 8.56631C 15.2386 8.66426 15.1171 8.71331 14.9446 8.71331L 1.72801 8.71331L 1.72801 9.06251C 1.72801 10.4352 1.88701 11.6422 2.20651 12.684C 2.52451 13.7256 2.97754 14.6019 3.56704 15.3126C 4.15505 16.0112 4.86604 16.5381 5.69855 16.8935C 6.53255 17.249 7.46407 17.4266 8.49308 17.4266C 9.41259 17.4266 10.2091 17.3286 10.8826 17.1326C 11.5561 16.9242 12.1201 16.6974 12.5731 16.4523C 13.0396 16.1951 13.4071 15.9683 13.6771 15.7722C 13.9456 15.5639 14.1421 15.4598 14.2651 15.4598C 14.4241 15.4598 14.5471 15.521 14.6326 15.6435L 15.1111 16.2318C 14.8171 16.5995 14.4241 16.9425 13.9336 17.2611C 13.4566 17.5799 12.9166 17.8556 12.3166 18.0884C 11.7286 18.309 11.0911 18.4866 10.4041 18.6215C 9.7306 18.7563 9.05109 18.8237 8.36408 18.8237C 7.11457 18.8237 5.97455 18.6092 4.94554 18.1803C 3.91503 17.7392 3.03302 17.1018 2.29802 16.2686C 1.56301 15.4352 0.993007 14.418 0.588004 13.2171C 0.1965 12.0037 9.15536e-07 10.6189 9.15536e-07 9.06251C 9.15536e-07 7.75135 0.184497 6.54414 0.552 5.44122C 0.931504 4.32602 1.47001 3.37013 2.16902 2.57356C 2.88003 1.76472 3.74403 1.13359 4.76104 0.680151C 5.79005 0.226727 6.95557 2.47652e-07 8.25458 2.47652e-07ZM 8.27257 1.30516C 7.32907 1.30516 6.48307 1.45222 5.73606 1.74635C 4.98755 2.04047 4.33803 2.46326 3.78753 3.01474C 3.24752 3.56621 2.80652 4.22798 2.46302 5.00006C 2.13302 5.77211 1.91252 6.63609 1.80152 7.59205L 13.8601 7.59205C 13.8601 6.61164 13.7251 5.73535 13.4566 4.96329C 13.1866 4.17896 12.8071 3.51719 12.3166 2.97798C 11.8261 2.43875 11.2381 2.02821 10.5511 1.74635C 9.86558 1.45222 9.10508 1.30516 8.27257 1.30516Z"/>
<path id="path14_fill" d="M 7.14118e-06 26.7466L 7.14118e-06 2.33805e-08L 1.76402 2.33805e-08L 1.76402 11.6545C 2.57252 10.5761 3.51003 9.72435 4.57654 9.09934C 5.64305 8.47435 6.84455 8.16183 8.17956 8.16183C 10.4221 8.16183 12.1681 8.94003 13.4191 10.4964C 14.6806 12.0406 15.3121 14.3691 15.3121 17.4817C 15.3121 18.8175 15.1351 20.0676 14.7796 21.2318C 14.4361 22.3838 13.9216 23.3887 13.2346 24.2465C 12.5611 25.0921 11.7271 25.76 10.7356 26.2502C 9.75459 26.7404 8.62057 26.9855 7.33356 26.9855C 6.06005 26.9855 4.96355 26.7404 4.04404 26.2502C 3.12453 25.7477 2.33401 25.0124 1.67251 24.0443L 1.56152 26.287C 1.52552 26.5934 1.36051 26.7466 1.065 26.7466L 7.14118e-06 26.7466ZM 7.68307 9.55892C 6.46956 9.55892 5.37306 9.87141 4.39355 10.4964C 3.41254 11.1214 2.53652 11.9915 1.76402 13.1067L 1.76402 22.7576C 2.46302 23.8115 3.23554 24.553 4.08005 24.9818C 4.92605 25.3985 5.90105 25.6069 7.00356 25.6069C 8.08207 25.6069 9.02559 25.4108 9.8341 25.0186C 10.6426 24.6265 11.3176 24.0749 11.8561 23.3642C 12.4081 22.6412 12.8176 21.7833 13.0876 20.7906C 13.3696 19.7858 13.5106 18.6828 13.5106 17.4817C 13.5106 14.7612 13.0081 12.7636 12.0031 11.4891C 10.9981 10.2023 9.55808 9.55892 7.68307 9.55892Z"/>
<path id="path15_fill" d="M 11.4166 2.55517C 11.3311 2.72674 11.1961 2.81253 11.0116 2.81253C 10.8766 2.81253 10.6996 2.73899 10.4791 2.59193C 10.2706 2.43262 9.98859 2.26106 9.63309 2.07723C 9.28959 1.88115 8.86058 1.70958 8.34607 1.56252C 7.84357 1.4032 7.22555 1.32355 6.48905 1.32355C 5.82754 1.32355 5.22154 1.42159 4.66954 1.61766C 4.13103 1.80149 3.66453 2.05272 3.27302 2.37134C 2.89352 2.68997 2.59202 3.06376 2.37152 3.49268C 2.16302 3.90935 2.05953 4.35053 2.05953 4.81623C 2.05953 5.3922 2.20651 5.87015 2.50052 6.24999C 2.79452 6.62994 3.18153 6.95469 3.65853 7.2244C 4.13704 7.49395 4.67553 7.72675 5.27704 7.9228C 5.88904 8.119 6.51455 8.31505 7.15206 8.51111C 7.78806 8.70716 8.40757 8.92781 9.00757 9.17291C 9.62108 9.40571 10.1656 9.69987 10.6441 10.0552C 11.1226 10.4106 11.5081 10.8457 11.8021 11.3604C 12.0961 11.875 12.2431 12.5001 12.2431 13.2354C 12.2431 14.0321 12.0961 14.7734 11.8021 15.4598C 11.5201 16.146 11.1031 16.7403 10.5526 17.2428C 10.0126 17.7452 9.34508 18.1436 8.54857 18.4376C 7.75206 18.7317 6.84456 18.8789 5.82755 18.8789C 4.54054 18.8789 3.43203 18.6767 2.50052 18.2723C 1.56901 17.8556 0.736513 17.3163 6.40875e-06 16.6545L 0.423007 16.0296C 0.484507 15.9315 0.552 15.858 0.6255 15.809C 0.699001 15.7599 0.804014 15.7355 0.937515 15.7355C 1.09802 15.7355 1.293 15.8334 1.52701 16.0296C 1.75951 16.2257 2.05952 16.4402 2.42702 16.673C 2.80653 16.8935 3.27303 17.1018 3.82353 17.2979C 4.38754 17.4941 5.08054 17.592 5.90105 17.592C 6.67355 17.592 7.35307 17.4879 7.94257 17.2796C 8.53058 17.0589 9.01958 16.7649 9.41258 16.3973C 9.80409 16.0296 10.0981 15.6006 10.2946 15.1104C 10.5031 14.6079 10.6066 14.081 10.6066 13.5296C 10.6066 12.9168 10.4596 12.4081 10.1656 12.0037C 9.87158 11.5993 9.48608 11.2563 9.00757 10.9744C 8.53057 10.6926 7.98457 10.4535 7.37256 10.2574C 6.77106 10.0614 6.14705 9.86532 5.49755 9.66927C 4.86004 9.47307 4.23453 9.25871 3.62253 9.02576C 3.02102 8.79296 2.48253 8.49881 2.00402 8.14345C 1.52702 7.7881 1.14001 7.3591 0.846007 6.85674C 0.552004 6.34194 0.404994 5.70472 0.404994 4.9449C 0.404994 4.29538 0.546014 3.67038 0.828017 3.06988C 1.11002 2.46938 1.50751 1.94243 2.02201 1.48899C 2.55002 1.03555 3.18754 0.674031 3.93454 0.404419C 4.68155 0.134806 5.52156 2.47652e-07 6.45307 2.47652e-07C 7.56758 2.47652e-07 8.55457 0.159316 9.41258 0.477949C 10.2826 0.796582 11.0791 1.28679 11.8021 1.94855L 11.4166 2.55517Z"/>
<path id="path16_fill" d="M 2.48101 7.94125L 2.48101 26.2319L 0.734996 26.2319L 0.734996 7.94125L 2.48101 7.94125ZM 3.25352 1.63605C 3.25352 1.85664 3.20403 2.06497 3.10653 2.26106C 3.01953 2.44488 2.90403 2.61032 2.75703 2.75738C 2.61002 2.90444 2.43752 3.02086 2.24252 3.10664C 2.04602 3.19243 1.83753 3.23533 1.61702 3.23533C 1.39652 3.23533 1.18801 3.19243 0.991507 3.10664C 0.796505 3.02086 0.624 2.90444 0.476999 2.75738C 0.329997 2.61032 0.212994 2.44488 0.127493 2.26106C 0.0419921 2.06497 4.57768e-06 1.85664 4.57768e-06 1.63605C 4.57768e-06 1.41545 0.0419921 1.20712 0.127493 1.01103C 0.212994 0.802698 0.329997 0.625006 0.476999 0.477945C 0.624 0.330884 0.796505 0.214467 0.991507 0.128677C 1.18801 0.0428929 1.39652 -2.72772e-08 1.61702 -2.72772e-08C 1.83753 -2.72772e-08 2.04602 0.0428929 2.24252 0.128677C 2.43752 0.214467 2.61002 0.330884 2.75703 0.477945C 2.90403 0.625006 3.01953 0.802698 3.10653 1.01103C 3.20403 1.20712 3.25352 1.41545 3.25352 1.63605Z"/>
<path id="path17_fill" d="M 7.02155 25.0003C 5.78404 25.0003 4.81655 24.6571 4.11754 23.9708C 3.43054 23.2846 3.08853 22.2245 3.08853 20.7906L 3.08853 8.29051L 0.458994 8.29051C 0.323992 8.29051 0.214513 8.25375 0.129012 8.18022C 0.042011 8.10669 -1.00709e-05 8.00253 -1.00709e-05 7.86772L -1.00709e-05 7.18757L 3.12453 6.96698L 3.56554 0.422794C 3.57754 0.312498 3.62104 0.214457 3.69454 0.128671C 3.78004 0.0428854 3.89103 0 4.02603 0L 4.85253 0L 4.85253 6.98535L 10.6066 6.98535L 10.6066 8.29051L 4.85253 8.29051L 4.85253 20.6987C 4.85253 21.2012 4.91404 21.6362 5.03704 22.0038C 5.17204 22.3592 5.34906 22.6534 5.56956 22.8863C 5.80206 23.1191 6.07207 23.2907 6.37807 23.401C 6.68557 23.5112 7.01555 23.5664 7.37106 23.5664C 7.81206 23.5664 8.19158 23.5051 8.51108 23.3825C 8.82909 23.2478 9.10508 23.1068 9.33758 22.9598C 9.57158 22.8005 9.76059 22.6595 9.9076 22.537C 10.0546 22.4021 10.1716 22.3348 10.2571 22.3348C 10.3546 22.3348 10.4536 22.3961 10.5511 22.5187L 11.0296 23.2907C 10.5631 23.8054 9.96908 24.2221 9.24607 24.5407C 8.53507 24.847 7.79406 25.0003 7.02155 25.0003Z"/>
<path id="path18_fill" d="M 8.25458 2.47652e-07C 9.28359 2.47652e-07 10.2331 0.177707 11.1031 0.53309C 11.9866 0.888488 12.7456 1.40932 13.3831 2.09561C 14.0326 2.76964 14.5351 3.60297 14.8906 4.59564C 15.2581 5.58829 15.4426 6.72804 15.4426 8.01475C 15.4426 8.28445 15.3991 8.46821 15.3136 8.56631C 15.2401 8.66426 15.1171 8.71331 14.9461 8.71331L 1.72802 8.71331L 1.72802 9.06251C 1.72802 10.4352 1.88852 11.6422 2.20653 12.684C 2.52453 13.7256 2.97903 14.6019 3.56703 15.3126C 4.15504 16.0112 4.86605 16.5381 5.69856 16.8935C 6.53257 17.249 7.46406 17.4266 8.49307 17.4266C 9.41258 17.4266 10.2091 17.3286 10.8826 17.1326C 11.5576 16.9242 12.1201 16.6974 12.5746 16.4523C 13.0396 16.1951 13.4071 15.9683 13.6771 15.7722C 13.9471 15.5639 14.1436 15.4598 14.2651 15.4598C 14.4241 15.4598 14.5471 15.521 14.6326 15.6435L 15.1111 16.2318C 14.8171 16.5995 14.4241 16.9425 13.9351 17.2611C 13.4566 17.5799 12.9181 17.8556 12.3166 18.0884C 11.7286 18.309 11.0911 18.4866 10.4056 18.6215C 9.7306 18.7563 9.05108 18.8237 8.36407 18.8237C 7.11456 18.8237 5.97457 18.6092 4.94556 18.1803C 3.91655 17.7392 3.03302 17.1018 2.29801 16.2686C 1.563 15.4352 0.99301 14.418 0.589506 13.2171C 0.196503 12.0037 -7.14118e-06 10.6189 -7.14118e-06 9.06251C -7.14118e-06 7.75135 0.184512 6.54414 0.552015 5.44122C 0.931518 4.32602 1.4715 3.37013 2.16901 2.57356C 2.88002 1.76472 3.74404 1.13359 4.76105 0.680151C 5.79156 0.226727 6.95556 2.47652e-07 8.25458 2.47652e-07ZM 8.27257 1.30516C 7.32906 1.30516 6.48306 1.45222 5.73605 1.74635C 4.98905 2.04047 4.33955 2.46326 3.78754 3.01474C 3.24754 3.56621 2.80653 4.22798 2.46452 5.00006C 2.13302 5.77211 1.91252 6.63609 1.80152 7.59205L 13.8616 7.59205C 13.8616 6.61164 13.7266 5.73535 13.4566 4.96329C 13.1866 4.17896 12.8071 3.51719 12.3166 2.97798C 11.8261 2.43875 11.2381 2.02821 10.5526 1.74635C 9.86559 1.45222 9.10657 1.30516 8.27257 1.30516Z"/>
<path id="path19_fill" d="M 11.4151 2.55517C 11.3296 2.72674 11.1946 2.81253 11.0116 2.81253C 10.8766 2.81253 10.6981 2.73899 10.4776 2.59193C 10.2691 2.43262 9.9871 2.26106 9.6316 2.07723C 9.28959 1.88115 8.86057 1.70958 8.34607 1.56252C 7.84356 1.4032 7.22407 1.32355 6.48907 1.32355C 5.82756 1.32355 5.22004 1.42159 4.66953 1.61766C 4.12953 1.80149 3.66453 2.05272 3.27153 2.37134C 2.89203 2.68997 2.59202 3.06376 2.37151 3.49268C 2.16301 3.90935 2.05801 4.35053 2.05801 4.81623C 2.05801 5.3922 2.20501 5.87015 2.50051 6.24999C 2.79452 6.62994 3.18002 6.95469 3.65853 7.2244C 4.13553 7.49395 4.67554 7.72675 5.27555 7.9228C 5.88905 8.119 6.51306 8.31505 7.15056 8.51111C 7.78807 8.70716 8.40608 8.92781 9.00759 9.17291C 9.6196 9.40571 10.1656 9.69987 10.6426 10.0552C 11.1211 10.4106 11.5066 10.8457 11.8021 11.3604C 12.0961 11.875 12.2431 12.5001 12.2431 13.2354C 12.2431 14.0321 12.0961 14.7734 11.8021 15.4598C 11.5201 16.146 11.1031 16.7403 10.5511 17.2428C 10.0126 17.7452 9.34358 18.1436 8.54708 18.4376C 7.75057 18.7317 6.84455 18.8789 5.82755 18.8789C 4.54053 18.8789 3.43052 18.6767 2.50051 18.2723C 1.569 17.8556 0.735008 17.3163 1.64796e-06 16.6545L 0.423002 16.0296C 0.484503 15.9315 0.550495 15.858 0.625496 15.809C 0.698996 15.7599 0.802509 15.7355 0.93751 15.7355C 1.09651 15.7355 1.29301 15.8334 1.52551 16.0296C 1.75801 16.2257 2.05801 16.4402 2.42702 16.673C 2.80652 16.8935 3.27153 17.1018 3.82353 17.2979C 4.38754 17.4941 5.07906 17.592 5.90106 17.592C 6.67207 17.592 7.35308 17.4879 7.94108 17.2796C 8.52909 17.0589 9.01959 16.7649 9.41109 16.3973C 9.80409 16.0296 10.0981 15.6006 10.2946 15.1104C 10.5016 14.6079 10.6066 14.081 10.6066 13.5296C 10.6066 12.9168 10.4596 12.4081 10.1656 12.0037C 9.87158 11.5993 9.48459 11.2563 9.00759 10.9744C 8.52909 10.6926 7.98458 10.4535 7.37107 10.2574C 6.77106 10.0614 6.14556 9.86532 5.49605 9.66927C 4.85855 9.47307 4.23454 9.25871 3.62104 9.02576C 3.02103 8.79296 2.48102 8.49881 2.00402 8.14345C 1.52551 7.7881 1.14 7.3591 0.846002 6.85674C 0.552 6.34194 0.403501 5.70472 0.403501 4.9449C 0.403501 4.29538 0.544499 3.67038 0.826501 3.06988C 1.1085 2.46938 1.5075 1.94243 2.02201 1.48899C 2.54851 1.03555 3.18602 0.674031 3.93303 0.404419C 4.68153 0.134806 5.52004 2.47652e-07 6.45155 2.47652e-07C 7.56756 2.47652e-07 8.55308 0.159316 9.41109 0.477949C 10.2811 0.796582 11.0776 1.28679 11.8021 1.94855L 11.4151 2.55517Z"/>
<path id="path20_fill" d="M 24.9571 48.3603L 4.75921 28.2768C 4.38517 27.9046 4.13582 27.4082 4.05789 26.8966L 0.00583399 0.439016C -0.0565053 0.0823208 0.395446 -0.150308 0.660389 0.113337L 24.9416 24.2756C 25.3624 24.6943 25.5961 25.2682 25.5961 25.8575L 25.6117 48.0967C 25.6117 48.4224 25.1909 48.5929 24.9571 48.3603Z"/>
<path id="path21_fill" d="M 0.654564 48.3603L 20.837 28.2768C 21.2109 27.9046 21.4602 27.4082 21.5382 26.8966L 25.5902 0.439016C 25.6526 0.0823208 25.2007 -0.150308 24.9358 0.113337L 0.670146 24.26C 0.249355 24.6788 0.0155811 25.2526 0.0155811 25.8419L 0 48.0967C 0 48.4224 0.405208 48.5929 0.654564 48.3603Z"/>
<path id="path22_fill" d="M 12.1601 0.139577C 11.973 -0.0465255 11.6925 -0.0465255 11.5055 0.139577L 0.128575 11.6004C -0.0428583 11.7865 -0.0428583 12.0656 0.128575 12.2517L 1.35978 13.4769L 20.1239 8.06443L 12.1601 0.139577Z"/>
<path id="path23_fill" d="M 24.2032 6.46705C 24.2032 5.78466 23.9383 5.13331 23.4395 4.65254L 18.7641 -2.05556e-14L 5.50234e-14 5.41247L 23.4241 28.7218C 23.7202 29.0164 24.2188 28.7994 24.2188 28.396L 24.2032 6.46705Z"/>
</defs>
</svg>
