<svg width="25" height="25" viewBox="0 0 25 25" version="1.1" xmlns="http://www.w3.org/2000/svg" xmlns:xlink="http://www.w3.org/1999/xlink">
<title>other-icon</title>
<desc>Created using Figma</desc>
<g id="Canvas" transform="translate(-11756 -9033)">
<g id="other-icon">
<use xlink:href="#path0_fill" transform="translate(11756 9033)" fill="#636B6F"/>
</g>
</g>
<defs>
<path id="path0_fill" fill-rule="evenodd" d="M 10.1074 0C 10.998 0 11.6074 0.732422 11.6074 1.63574L 11.6074 10.2676C 11.6074 11.1719 10.998 11.6074 10.1084 11.6074L 1.61133 11.6074C 0.720703 11.6074 0 11.1719 0 10.2676L 0 1.63574C 0 0.732422 0.720703 0 1.61133 0L 10.1074 0ZM 10.1074 13.3926C 10.998 13.3926 11.6074 13.8281 11.6074 14.7314L 11.6074 23.3633C 11.6074 24.2676 10.998 25 10.1084 25L 1.61133 25C 0.720703 25 0 24.2676 0 23.3633L 0 14.7314C 0 13.8281 0.720703 13.3926 1.61133 13.3926L 10.1074 13.3926ZM 25 14.7314C 25 13.8281 24.2783 13.3926 23.3877 13.3926L 14.8926 13.3926C 14.002 13.3926 13.3926 13.8281 13.3926 14.7314L 13.3926 23.3633C 13.3926 24.2676 14.002 25 14.8926 25L 23.3896 25C 24.2783 25 25 24.2676 25 23.3633L 25 14.7314ZM 23.3877 0C 24.2783 0 25 0.732422 25 1.63574L 25 10.2676C 25 11.1719 24.2783 11.6074 23.3896 11.6074L 14.8926 11.6074C 14.002 11.6074 13.3926 11.1719 13.3926 10.2676L 13.3926 1.63574C 13.3926 0.732422 14.002 0 14.8926 0L 23.3877 0Z"/>
</defs>
</svg>
