<svg width="249" height="70" viewBox="0 0 249 70" version="1.1" xmlns="http://www.w3.org/2000/svg" xmlns:xlink="http://www.w3.org/1999/xlink">
<title>Group 2</title>
<desc>Created using Figma</desc>
<g id="Canvas" transform="translate(706 -1508)">
<g id="Group 2" filter="url(#filter0_d)">
<g id="Group 2">
<g id="Vector">
<use xlink:href="#path0_fill" transform="translate(-654.473 1534.51)" fill="#FFFFFF"/>
</g>
<g id="Vector">
<use xlink:href="#path1_fill" transform="translate(-642.058 1534.39)" fill="#FFFFFF"/>
</g>
<g id="Vector">
<use xlink:href="#path2_fill" transform="translate(-636.49 1539.3)" fill="#FFFFFF"/>
</g>
<g id="Vector">
<use xlink:href="#path3_fill" transform="translate(-618.625 1539.3)" fill="#FFFFFF"/>
</g>
<g id="Vector">
<use xlink:href="#path4_fill" transform="translate(-606.49 1534.22)" fill="#FFFFFF"/>
</g>
<g id="Vector">
<use xlink:href="#path5_fill" transform="translate(-602.119 1539.32)" fill="#FFFFFF"/>
</g>
<g id="Vector">
<use xlink:href="#path6_fill" transform="translate(-590.222 1534.37)" fill="#FFFFFF"/>
</g>
<g id="Vector">
<use xlink:href="#path7_fill" transform="translate(-574.594 1534.08)" fill="#FFFFFF"/>
</g>
<g id="Vector">
<use xlink:href="#path8_fill" transform="translate(-562.358 1539.34)" fill="#FFFFFF"/>
</g>
<g id="Vector">
<use xlink:href="#path9_fill" transform="translate(-549.604 1539.12)" fill="#FFFFFF"/>
</g>
<g id="Vector">
<use xlink:href="#path10_fill" transform="translate(-541.52 1539.2)" fill="#FFFFFF"/>
</g>
<g id="Vector">
<use xlink:href="#path11_fill" transform="translate(-530.343 1534.08)" fill="#FFFFFF"/>
</g>
<g id="Vector">
<use xlink:href="#path12_fill" transform="translate(-521.002 1534.69)" fill="#FFFFFF"/>
</g>
<g id="Vector">
<use xlink:href="#path13_fill" transform="translate(-509.904 1539.32)" fill="#FFFFFF"/>
</g>
<g id="Vector">
<use xlink:href="#path14_fill" transform="translate(-497.688 1539.32)" fill="#FFFFFF"/>
</g>
<g id="Vector">
<use xlink:href="#path15_fill" transform="translate(-484.435 1534.22)" fill="#FFFFFF"/>
</g>
<g id="Vector">
<use xlink:href="#path16_fill" transform="translate(-480.224 1539.34)" fill="#FFFFFF"/>
</g>
</g>
<g id="Group 2">
<g id="Vector">
<use xlink:href="#path17_fill" transform="translate(-561.62 1555.13)" fill="#FFFFFF"/>
</g>
<g id="Vector">
<use xlink:href="#path18_fill" transform="translate(-558.466 1553.71)" fill="#FFFFFF"/>
</g>
<g id="Vector">
<use xlink:href="#path19_fill" transform="translate(-556.51 1555.13)" fill="#FFFFFF"/>
</g>
<g id="Vector">
<use xlink:href="#path20_fill" transform="translate(-551.001 1555.09)" fill="#FFFFFF"/>
</g>
<g id="Vector">
<use xlink:href="#path21_fill" transform="translate(-547.169 1553.67)" fill="#FFFFFF"/>
</g>
<g id="Vector">
<use xlink:href="#path22_fill" transform="translate(-545.632 1555.11)" fill="#FFFFFF"/>
</g>
<g id="Vector">
<use xlink:href="#path23_fill" transform="translate(-540.682 1554.07)" fill="#FFFFFF"/>
</g>
<g id="Vector">
<use xlink:href="#path24_fill" transform="translate(-537.987 1555.11)" fill="#FFFFFF"/>
</g>
<g id="Vector">
<use xlink:href="#path25_fill" transform="translate(-534.195 1555.11)" fill="#FFFFFF"/>
</g>
<g id="Vector">
<use xlink:href="#path26_fill" transform="translate(-530.083 1553.67)" fill="#FFFFFF"/>
</g>
<g id="Vector">
<use xlink:href="#path27_fill" transform="translate(-528.566 1555.13)" fill="#FFFFFF"/>
</g>
<g id="Vector">
<use xlink:href="#path28_fill" transform="translate(-524.175 1554.07)" fill="#FFFFFF"/>
</g>
<g id="Vector">
<use xlink:href="#path29_fill" transform="translate(-521.521 1555.11)" fill="#FFFFFF"/>
</g>
<g id="Vector">
<use xlink:href="#path30_fill" transform="translate(-516.012 1553.67)" fill="#FFFFFF"/>
</g>
<g id="Vector">
<use xlink:href="#path31_fill" transform="translate(-512.419 1555.11)" fill="#FFFFFF"/>
</g>
<g id="Vector">
<use xlink:href="#path32_fill" transform="translate(-508.567 1553.67)" fill="#FFFFFF"/>
</g>
<g id="Vector">
<use xlink:href="#path33_fill" transform="translate(-506.77 1555.09)" fill="#FFFFFF"/>
</g>
<g id="Vector">
<use xlink:href="#path34_fill" transform="translate(-501.8 1555.09)" fill="#FFFFFF"/>
</g>
<g id="Vector">
<use xlink:href="#path35_fill" transform="translate(-498.327 1553.67)" fill="#FFFFFF"/>
</g>
<g id="Vector">
<use xlink:href="#path36_fill" transform="translate(-494.575 1555.15)" fill="#FFFFFF"/>
</g>
<g id="Vector">
<use xlink:href="#path37_fill" transform="translate(-490.742 1555.11)" fill="#FFFFFF"/>
</g>
<g id="Vector">
<use xlink:href="#path38_fill" transform="translate(-488.188 1555.09)" fill="#FFFFFF"/>
</g>
<g id="Vector">
<use xlink:href="#path39_fill" transform="translate(-484.714 1553.67)" fill="#FFFFFF"/>
</g>
<g id="Vector">
<use xlink:href="#path40_fill" transform="translate(-481.122 1555.11)" fill="#FFFFFF"/>
</g>
<g id="Vector">
<use xlink:href="#path41_fill" transform="translate(-477.549 1555.13)" fill="#FFFFFF"/>
</g>
</g>
<g id="Vector">
<use xlink:href="#path42_fill" transform="translate(-676.55 1523)" fill="#3678FF"/>
</g>
<g id="Vector">
<use xlink:href="#path43_fill" transform="translate(-691 1523)" fill="#24D783"/>
</g>
<g id="Group">
<g id="Vector">
<use xlink:href="#path44_fill" transform="translate(-690.097 1543.31)" fill="#FFC203"/>
</g>
<g id="Vector">
<use xlink:href="#path45_fill" transform="translate(-689.383 1547.61)" fill="#FFD504"/>
</g>
</g>
</g>
</g>
<defs>
<filter id="filter0_d" filterUnits="userSpaceOnUse" x="-706" y="1508" width="249" height="70" color-interpolation-filters="sRGB">
<feFlood flood-opacity="0" result="BackgroundImageFix"/>
<feColorMatrix in="SourceAlpha" type="matrix" values="0 0 0 0 0 0 0 0 0 0 0 0 0 0 0 0 0 0 255 0"/>
<feOffset dx="0" dy="0"/>
<feGaussianBlur stdDeviation="7.5"/>
<feColorMatrix type="matrix" values="0 0 0 0 0 0 0 0 0 0 0 0 0 0 0 0 0 0 0.25 0"/>
<feBlend mode="normal" in2="BackgroundImageFix" result="effect1_dropShadow"/>
<feBlend mode="normal" in="SourceGraphic" in2="effect1_dropShadow" result="shape"/>
</filter>
<path id="path0_fill" d="M 9.68055 2.74589C 9.62067 2.86615 9.54083 2.94633 9.46099 3.00645C 9.38115 3.06658 9.28135 3.08663 9.16159 3.08663C 9.04183 3.08663 8.88215 3.0265 8.70251 2.8862C 8.52287 2.76594 8.32328 2.60559 8.04384 2.46529C 7.78436 2.30495 7.465 2.16464 7.10572 2.04439C 6.74644 1.92413 6.28736 1.84396 5.76841 1.84396C 5.26941 1.84396 4.8303 1.90408 4.45106 2.04439C 4.07182 2.18469 3.75246 2.36508 3.49298 2.58555C 3.2335 2.80602 3.05386 3.08663 2.91414 3.38727C 2.79439 3.68792 2.71455 4.02865 2.71455 4.38942C 2.71455 4.85041 2.83431 5.23123 3.05387 5.53188C 3.27343 5.83252 3.57282 6.09308 3.95206 6.31355C 4.31134 6.53403 4.7305 6.71441 5.20953 6.87476C 5.66861 7.0351 6.14765 7.19544 6.64665 7.35579C 7.14565 7.51613 7.62468 7.71657 8.08376 7.917C 8.54283 8.11742 8.962 8.39803 9.34123 8.71872C 9.70051 9.0394 9.99991 9.44026 10.2394 9.90125C 10.459 10.3622 10.5787 10.9435 10.5787 11.625C 10.5787 12.3465 10.459 13.0079 10.2195 13.6493C 9.97995 14.2706 9.62067 14.8318 9.16159 15.2928C 8.70251 15.7538 8.12368 16.1146 7.44504 16.3952C 6.76641 16.6558 5.98797 16.7961 5.12969 16.7961C 4.07182 16.7961 3.11374 16.5956 2.23551 16.2148C 1.35727 15.834 0.618756 15.3129 -1.21826e-06 14.6515L 0.638718 13.5892C 0.698598 13.509 0.778438 13.4288 0.858278 13.3687C 0.938118 13.3086 1.03792 13.2885 1.15768 13.2885C 1.31736 13.2885 1.49699 13.3687 1.69659 13.5491C 1.89619 13.7295 2.15567 13.9099 2.47502 14.1103C 2.79438 14.3107 3.15366 14.5111 3.59278 14.6715C 4.0319 14.8519 4.57082 14.9321 5.18957 14.9321C 5.70853 14.9321 6.18757 14.8519 6.58676 14.7116C 7.00592 14.5713 7.34524 14.3708 7.62468 14.0902C 7.90412 13.8096 8.12368 13.509 8.28336 13.1482C 8.44303 12.7875 8.50292 12.3665 8.50292 11.9256C 8.50292 11.4245 8.38315 11.0237 8.1636 10.703C 7.94404 10.3823 7.64464 10.1217 7.28536 9.90125C 6.92608 9.68078 6.50693 9.50039 6.04785 9.36009C 5.58877 9.21979 5.10973 9.05945 4.61074 8.8991C 4.11174 8.73876 3.65266 8.55837 3.17362 8.35794C 2.71454 8.15751 2.29539 7.87691 1.91615 7.55622C 1.55687 7.23553 1.25747 6.81463 1.03792 6.3336C 0.818357 5.83252 0.698595 5.23123 0.698595 4.50968C 0.698595 3.92843 0.818357 3.36723 1.03792 2.82607C 1.25747 2.28491 1.57683 1.80387 2.01595 1.38297C 2.43511 0.962065 2.97402 0.621334 3.59278 0.380817C 4.21154 0.120258 4.9301 1.22333e-06 5.74845 1.22333e-06C 6.66661 1.22333e-06 7.48496 0.140299 8.24344 0.440944C 9.00191 0.721546 9.66059 1.14245 10.2195 1.70366L 9.68055 2.74589Z"/>
<path id="path1_fill" d="M 2.91415 1.46314C 2.91415 1.66357 2.87423 1.84396 2.79439 2.02435C 2.71455 2.20473 2.61475 2.34503 2.47503 2.48533C 2.33531 2.62563 2.19559 2.72585 2.01595 2.80602C 1.83631 2.88619 1.65667 2.92628 1.45707 2.92628C 1.25747 2.92628 1.07784 2.88619 0.898197 2.80602C 0.718557 2.72585 0.578835 2.62563 0.439115 2.48533C 0.299396 2.34503 0.199601 2.20473 0.119762 2.02435C 0.0399222 1.84396 1.21826e-06 1.66357 1.21826e-06 1.46314C 1.21826e-06 1.26271 0.0399222 1.08232 0.119762 0.901936C 0.199601 0.721549 0.299396 0.561207 0.439115 0.440949C 0.578835 0.300648 0.718557 0.200431 0.898197 0.120259C 1.07784 0.0400873 1.25747 1.13931e-14 1.45707 1.13931e-14C 1.65667 1.13931e-14 1.83631 0.0400873 2.01595 0.120259C 2.19559 0.200431 2.33531 0.300648 2.47503 0.440949C 2.61475 0.58125 2.71455 0.721549 2.79439 0.901936C 2.87423 1.08232 2.91415 1.26271 2.91415 1.46314ZM 2.45507 5.11097L 2.45507 16.6958L 0.41916 16.6958L 0.41916 5.11097L 2.45507 5.11097Z"/>
<path id="path2_fill" d="M 0 11.7853L 0 0.20043L 1.21755 0.20043C 1.49699 0.20043 1.69659 0.340733 1.75647 0.621335L 1.89619 1.80387C 2.31535 1.28275 2.79439 0.841807 3.33331 0.501076C 3.85226 0.160344 4.47102 0 5.16961 0C 5.94805 0 6.58676 0.220471 7.0658 0.661417C 7.54484 1.10236 7.90412 1.68362 8.10372 2.42521C 8.2634 2.0043 8.48295 1.64353 8.74243 1.34289C 9.00191 1.04224 9.30131 0.781677 9.62067 0.581246C 9.94003 0.380816 10.2993 0.240519 10.6586 0.140304C 11.0179 0.0400885 11.3971 0 11.7763 0C 12.3751 0 12.934 0.100215 13.3931 0.300645C 13.8721 0.501076 14.2713 0.78168 14.5907 1.14245C 14.93 1.52327 15.1695 1.98426 15.3492 2.52542C 15.5288 3.06658 15.6086 3.68792 15.6086 4.38942L 15.6086 11.7653L 13.5727 11.7653L 13.5727 4.40946C 13.5727 3.50753 13.3731 2.80603 12.9739 2.34504C 12.5747 1.88405 12.0159 1.64353 11.2574 1.64353C 10.9181 1.64353 10.5987 1.70366 10.2993 1.82392C 9.99991 1.94417 9.74043 2.12456 9.50091 2.34504C 9.28135 2.56551 9.10171 2.86615 8.96199 3.20688C 8.82227 3.54762 8.76239 3.94848 8.76239 4.40946L 8.76239 11.7853L 6.78636 11.7853L 6.78636 4.40946C 6.78636 3.48749 6.60673 2.78598 6.22749 2.32499C 5.84825 1.864 5.30933 1.64353 4.59078 1.64353C 4.09178 1.64353 3.6327 1.78383 3.19358 2.04439C 2.77443 2.32499 2.37523 2.68577 2.01595 3.14676L 2.01595 11.7853L 0 11.7853Z"/>
<path id="path3_fill" d="M 0 15.7137L 0 0.20043L 1.21755 0.20043C 1.49699 0.20043 1.69659 0.340733 1.75647 0.621335L 1.93611 1.98426C 2.43511 1.38297 2.99399 0.901938 3.6327 0.541164C 4.27142 0.18039 4.98998 -1.13931e-14 5.82829 -1.13931e-14C 6.48697 -1.13931e-14 7.08577 0.120257 7.62468 0.380816C 8.1636 0.641375 8.62267 1.0222 9.00191 1.52327C 9.38115 2.02435 9.68055 2.64568 9.88015 3.38727C 10.0797 4.12886 10.1795 4.97067 10.1795 5.93274C 10.1795 6.79459 10.0598 7.57626 9.84023 8.31785C 9.62067 9.05945 9.28136 9.68078 8.8622 10.2219C 8.44304 10.7631 7.92407 11.184 7.30532 11.4846C 6.68656 11.7853 5.98796 11.9456 5.20953 11.9456C 4.49097 11.9456 3.89218 11.8254 3.37323 11.5849C 2.87423 11.3443 2.41515 11.0036 2.03591 10.5827L 2.03591 15.7137L 0 15.7137ZM 5.1297 1.64353C 4.47102 1.64353 3.89218 1.80387 3.39318 2.10452C 2.89419 2.40516 2.43511 2.84611 2.01595 3.38727L 2.01595 8.99932C 2.39519 9.50039 2.79439 9.86117 3.23351 10.0616C 3.67262 10.262 4.17162 10.3622 4.7305 10.3622C 5.80833 10.3622 6.62668 9.98142 7.20552 9.19975C 7.78435 8.43811 8.0638 7.33575 8.0638 5.91269C 8.0638 5.15106 8.00392 4.50968 7.8642 3.96852C 7.72448 3.42735 7.54484 2.98641 7.28536 2.64568C 7.02588 2.30495 6.72649 2.04439 6.36721 1.88404C 6.00793 1.7237 5.58877 1.64353 5.1297 1.64353Z"/>
<path id="path4_fill" d="M 2.03591 2.44666e-06L 2.03591 16.8562L -2.43651e-06 16.8562L -2.43651e-06 2.44666e-06L 2.03591 2.44666e-06Z"/>
<path id="path5_fill" d="M 5.34925 1.22333e-06C 6.04785 1.22333e-06 6.68656 0.120256 7.2654 0.340729C 7.84423 0.581245 8.3632 0.901934 8.78236 1.34288C 9.20151 1.78383 9.54083 2.32499 9.78035 2.96637C 10.0199 3.60774 10.1396 4.34933 10.1396 5.1711C 10.1396 5.49179 10.0997 5.71226 10.0398 5.81248C 9.97995 5.91269 9.84022 5.97282 9.66058 5.97282L 1.97602 5.97282C 1.99598 6.71441 2.09578 7.33575 2.27542 7.87691C 2.45506 8.41807 2.71455 8.87906 3.03391 9.23984C 3.35327 9.60061 3.7325 9.88121 4.17161 10.0616C 4.61073 10.242 5.10973 10.3222 5.64865 10.3222C 6.16761 10.3222 6.58676 10.262 6.966 10.1418C 7.32528 10.0215 7.64464 9.90125 7.92408 9.76095C 8.18356 9.62065 8.40312 9.50039 8.58276 9.38013C 8.7624 9.25988 8.92207 9.19975 9.04183 9.19975C 9.20151 9.19975 9.34124 9.25988 9.42107 9.40018L 9.9999 10.1418C 9.74043 10.4424 9.44103 10.703 9.10171 10.9435C 8.76239 11.164 8.38316 11.3444 7.98396 11.5047C 7.58476 11.645 7.1656 11.7653 6.74644 11.8254C 6.32729 11.9056 5.90813 11.9256 5.48897 11.9256C 4.69058 11.9256 3.95206 11.7853 3.29339 11.5247C 2.61475 11.2441 2.03591 10.8633 1.55687 10.3422C 1.05787 9.82108 0.678634 9.1797 0.419155 8.39803C 0.139717 7.63639 2.43651e-06 6.73445 2.43651e-06 5.75234C 2.43651e-06 4.95062 0.119754 4.18899 0.379233 3.48749C 0.618752 2.78598 0.97804 2.18469 1.43712 1.66357C 1.89619 1.14245 2.47503 0.741589 3.13371 0.440944C 3.77243 0.140299 4.51094 1.22333e-06 5.34925 1.22333e-06ZM 5.38917 1.48318C 4.41114 1.48318 3.6327 1.76378 3.07382 2.34503C 2.51494 2.90624 2.15567 3.70796 2.03591 4.71011L 8.30331 4.71011C 8.30331 4.22908 8.24343 3.80818 8.10371 3.40732C 7.98396 3.00645 7.78436 2.66572 7.52489 2.38512C 7.26541 2.10452 6.966 1.88405 6.60672 1.7237C 6.2674 1.56336 5.86821 1.48318 5.38917 1.48318Z"/>
<path id="path6_fill" d="M 12.2953 12.8075C 12.455 12.8075 12.6146 12.8676 12.7344 13.0079L 13.932 14.3308C 13.2733 15.1525 12.435 15.7939 11.457 16.2348C 10.4789 16.6758 9.30131 16.8963 7.94403 16.8963C 6.72648 16.8963 5.62869 16.6958 4.65065 16.2749C 3.67262 15.854 2.8343 15.2728 2.15566 14.5312C 1.45707 13.7896 0.93811 12.8877 0.558872 11.8454C 0.199594 10.8032 -2.43651e-06 9.68078 -2.43651e-06 8.43811C -2.43651e-06 7.19544 0.199604 6.05299 0.618762 5.0308C 1.03792 3.98856 1.59679 3.10667 2.35526 2.36508C 3.11374 1.62349 3.99198 1.04224 5.02989 0.621334C 6.06781 0.20043 7.20552 -1.22333e-06 8.463 -1.22333e-06C 9.68055 -1.22333e-06 10.7584 0.200428 11.6765 0.581245C 12.5947 0.982106 13.3731 1.50323 14.0318 2.1446L 13.0139 3.56766C 12.954 3.66788 12.8741 3.74804 12.7743 3.80817C 12.6745 3.8683 12.5548 3.90839 12.3751 3.90839C 12.1955 3.90839 12.0159 3.84826 11.8362 3.70796C 11.6566 3.56766 11.4171 3.42736 11.1376 3.26701C 10.8582 3.10667 10.4989 2.96637 10.0797 2.82607C 9.64063 2.68576 9.10171 2.62564 8.44303 2.62564C 7.6646 2.62564 6.96601 2.76594 6.30733 3.0265C 5.64866 3.3071 5.08977 3.68791 4.6307 4.18899C 4.17162 4.69006 3.79238 5.3114 3.5329 6.03295C 3.27342 6.7545 3.1337 7.55622 3.1337 8.45816C 3.1337 9.38013 3.27342 10.2219 3.5329 10.9435C 3.79238 11.665 4.15166 12.2864 4.59077 12.7674C 5.02989 13.2685 5.56881 13.6493 6.16761 13.9099C 6.76641 14.1704 7.42508 14.3107 8.12368 14.3107C 8.54284 14.3107 8.92208 14.2907 9.26139 14.2506C 9.60071 14.2105 9.92007 14.1303 10.1995 14.0301C 10.4789 13.9299 10.7584 13.8096 11.0179 13.6493C 11.2773 13.489 11.5169 13.3086 11.7763 13.0681C 11.8562 13.0079 11.936 12.9478 12.0159 12.9077C 12.0957 12.8275 12.1955 12.8075 12.2953 12.8075Z"/>
<path id="path7_fill" d="M -4.87302e-06 16.9965L -4.87302e-06 0L 2.81435 0L 2.81435 6.53403C 3.27343 6.09308 3.77242 5.75234 4.31134 5.47174C 4.85026 5.21118 5.50893 5.07088 6.22749 5.07088C 6.8662 5.07088 7.42508 5.1711 7.92408 5.39157C 8.42307 5.61204 8.82227 5.91269 9.16159 6.31355C 9.50091 6.71441 9.74043 7.1754 9.92007 7.71656C 10.0997 8.25772 10.1795 8.85902 10.1795 9.52044L 10.1795 16.9965L 7.3652 16.9965L 7.3652 9.52044C 7.3652 8.79889 7.20552 8.25773 6.8662 7.85687C 6.52689 7.45601 6.04785 7.27561 5.36921 7.27561C 4.89017 7.27561 4.4311 7.39587 4.01194 7.61635C 3.59278 7.83682 3.19358 8.13747 2.79438 8.51828L 2.79438 16.9965L -4.87302e-06 16.9965Z"/>
<path id="path8_fill" d="M 2.8343 2.44666e-06L 2.8343 7.456C 2.8343 8.17755 2.99398 8.71872 3.3333 9.11958C 3.67262 9.52044 4.15166 9.70082 4.81034 9.70082C 5.28937 9.70082 5.74845 9.60061 6.16761 9.38013C 6.58676 9.15966 6.98597 8.85902 7.38517 8.4782L 7.38517 2.44666e-06L 10.1995 2.44666e-06L 10.1995 11.7452L 8.48296 11.7452C 8.12368 11.7452 7.88416 11.5648 7.7644 11.2241L 7.5648 10.2821C 7.32528 10.5226 7.0658 10.7431 6.80632 10.9435C 6.54685 11.1439 6.26741 11.3243 5.98797 11.4646C 5.68858 11.6049 5.38917 11.7252 5.04986 11.8053C 4.71054 11.8855 4.35126 11.9256 3.95206 11.9256C 3.31335 11.9256 2.75447 11.8254 2.25547 11.6049C 1.75647 11.3844 1.35727 11.0838 1.01795 10.6829C 0.678636 10.2821 0.43912 9.82108 0.259481 9.27992C 0.079842 8.73876 4.87302e-06 8.13747 4.87302e-06 7.47605L 4.87302e-06 0.0200406L 2.8343 0.0200406L 2.8343 2.44666e-06Z"/>
<path id="path9_fill" d="M -2.43651e-06 11.9657L -2.43651e-06 0.220476L 1.65667 0.220476C 1.9361 0.220476 2.15566 0.280602 2.25546 0.380817C 2.37522 0.481033 2.45507 0.661422 2.47503 0.921981L 2.65466 2.34503C 3.07382 1.62348 3.55286 1.04224 4.1317 0.621336C 4.69058 0.200433 5.32929 1.22333e-06 6.02789 1.22333e-06C 6.60673 1.22333e-06 7.08577 0.140302 7.465 0.400862L 7.10573 2.52542C 7.08577 2.66572 7.02589 2.76594 6.96601 2.82607C 6.88617 2.8862 6.78637 2.90624 6.66661 2.90624C 6.54685 2.90624 6.38717 2.8862 6.20753 2.82607C 6.00793 2.76594 5.74845 2.74589 5.42909 2.74589C 4.85025 2.74589 4.35126 2.90624 3.9321 3.22693C 3.51294 3.54762 3.15367 4.02865 2.87423 4.64998L 2.87423 11.9657L -2.43651e-06 11.9657Z"/>
<path id="path10_fill" d="M 8.98195 2.62564C 8.90211 2.72585 8.82227 2.82606 8.74243 2.88619C 8.66259 2.94632 8.54284 2.98641 8.40312 2.98641C 8.2634 2.98641 8.12368 2.94633 7.98396 2.84611C 7.84424 2.76594 7.68456 2.66572 7.48496 2.54547C 7.28536 2.42521 7.06581 2.34504 6.80633 2.24482C 6.54685 2.16465 6.22749 2.10452 5.82829 2.10452C 5.32929 2.10452 4.91013 2.18469 4.5309 2.36507C 4.15166 2.54546 3.85226 2.80603 3.59278 3.14676C 3.35326 3.48749 3.15366 3.88834 3.0339 4.36938C 2.91414 4.85041 2.85426 5.39157 2.85426 5.99286C 2.85426 6.6142 2.91414 7.1754 3.05386 7.65644C 3.19358 8.13747 3.37322 8.55837 3.6327 8.87906C 3.89218 9.19975 4.19157 9.46031 4.55085 9.64069C 4.91013 9.82108 5.30933 9.90125 5.74845 9.90125C 6.18756 9.90125 6.5668 9.84113 6.84624 9.74091C 7.12568 9.64069 7.3652 9.50039 7.54484 9.38013C 7.74443 9.23983 7.90411 9.11958 8.04383 9.01936C 8.18355 8.8991 8.34324 8.85902 8.52288 8.85902C 8.74243 8.85902 8.92207 8.93919 9.04183 9.11958L 9.86019 10.1418C 9.54083 10.5025 9.20151 10.8232 8.84223 11.0638C 8.48295 11.3043 8.10372 11.5047 7.70452 11.665C 7.30533 11.8053 6.90612 11.9256 6.48696 11.9857C 6.06781 12.0459 5.64865 12.0859 5.24945 12.0859C 4.53089 12.0859 3.85226 11.9456 3.21355 11.6851C 2.57483 11.4045 2.01595 11.0237 1.53691 10.5025C 1.05787 9.98142 0.678641 9.34005 0.419163 8.59846C 0.139724 7.85686 -2.43651e-06 6.99502 -2.43651e-06 6.03295C -2.43651e-06 5.1711 0.119762 4.36938 0.37924 3.62779C 0.618759 2.8862 0.997997 2.26486 1.47703 1.7237C 1.95607 1.18254 2.55486 0.761632 3.25346 0.460987C 3.95205 0.160342 4.77041 -3.41794e-14 5.68857 -3.41794e-14C 6.5668 -3.41794e-14 7.32528 0.140302 7.98396 0.420905C 8.64263 0.701507 9.24143 1.10237 9.76039 1.64353L 8.98195 2.62564Z"/>
<path id="path11_fill" d="M -2.43651e-06 16.9965L -2.43651e-06 0L 2.81435 0L 2.81435 6.53403C 3.27343 6.09308 3.77243 5.75234 4.31134 5.47174C 4.85026 5.21118 5.50893 5.07088 6.22749 5.07088C 6.8662 5.07088 7.42508 5.1711 7.92408 5.39157C 8.42308 5.61204 8.82228 5.91269 9.1616 6.31355C 9.50091 6.71441 9.74043 7.1754 9.92007 7.71656C 10.0997 8.25772 10.1795 8.85902 10.1795 9.52044L 10.1795 16.9965L 7.3652 16.9965L 7.3652 9.52044C 7.3652 8.79889 7.20553 8.25773 6.86621 7.85687C 6.52689 7.45601 6.04785 7.27561 5.36922 7.27561C 4.89018 7.27561 4.4311 7.39587 4.01194 7.61635C 3.59279 7.83682 3.17362 8.13747 2.79438 8.51828L 2.79438 16.9965L -2.43651e-06 16.9965Z"/>
<path id="path12_fill" d="M 12.7743 0L 12.7743 1.864L 7.50491 1.864L 7.50491 16.3952L 5.28937 16.3952L 5.28937 1.864L -4.87302e-06 1.864L -4.87302e-06 0L 12.7743 0Z"/>
<path id="path13_fill" d="M 5.48896 1.22333e-06C 6.32728 1.22333e-06 7.08576 0.140304 7.76439 0.420906C 8.44303 0.701508 9.02188 1.10237 9.50092 1.62349C 9.97996 2.14461 10.3392 2.76594 10.5987 3.50753C 10.8582 4.24912 10.9779 5.07088 10.9779 5.97282C 10.9779 6.8948 10.8582 7.71657 10.5987 8.43811C 10.3392 9.17971 9.97996 9.80104 9.50092 10.3222C 9.02188 10.8433 8.44303 11.2441 7.76439 11.5247C 7.08576 11.8053 6.32728 11.9456 5.48896 11.9456C 4.65065 11.9456 3.89219 11.8053 3.21355 11.5247C 2.53492 11.2441 1.95607 10.8433 1.47703 10.3222C 0.99799 9.80104 0.638712 9.17971 0.379233 8.43811C 0.119755 7.69652 -9.74604e-06 6.87475 -9.74604e-06 5.97282C -9.74604e-06 5.07088 0.119755 4.24912 0.379233 3.50753C 0.638712 2.76594 0.99799 2.14461 1.47703 1.62349C 1.95607 1.10237 2.53492 0.701508 3.21355 0.420906C 3.89219 0.140304 4.65065 1.22333e-06 5.48896 1.22333e-06ZM 5.48896 10.3422C 6.62668 10.3422 7.48496 9.96138 8.04384 9.19975C 8.60272 8.43811 8.88214 7.35579 8.88214 5.99286C 8.88214 4.60989 8.60272 3.52757 8.04384 2.76594C 7.48496 2.0043 6.62668 1.60344 5.48896 1.60344C 4.91012 1.60344 4.41113 1.70366 3.99197 1.90409C 3.57281 2.10452 3.21355 2.38512 2.93411 2.76594C 2.65467 3.14675 2.4351 3.60774 2.29538 4.1489C 2.15566 4.69006 2.07582 5.3114 2.07582 5.99286C 2.07582 6.67433 2.15566 7.29566 2.29538 7.83682C 2.4351 8.37799 2.65467 8.83897 2.93411 9.19975C 3.21355 9.56052 3.57281 9.86117 3.99197 10.0416C 4.41113 10.242 4.91012 10.3422 5.48896 10.3422Z"/>
<path id="path14_fill" d="M 5.48898 1.22333e-06C 6.32729 1.22333e-06 7.08577 0.140304 7.76441 0.420906C 8.44305 0.701508 9.02187 1.10237 9.50091 1.62349C 9.97995 2.14461 10.3392 2.76594 10.5987 3.50753C 10.8582 4.24912 10.9779 5.07088 10.9779 5.97282C 10.9779 6.8948 10.8582 7.71657 10.5987 8.43811C 10.3392 9.17971 9.97995 9.80104 9.50091 10.3222C 9.02187 10.8433 8.44305 11.2441 7.76441 11.5247C 7.08577 11.8053 6.32729 11.9456 5.48898 11.9456C 4.65066 11.9456 3.89218 11.8053 3.21354 11.5247C 2.53491 11.2441 1.95608 10.8433 1.47704 10.3222C 0.998005 9.80104 0.638726 9.17971 0.379248 8.43811C 0.119769 7.69652 4.87302e-06 6.87475 4.87302e-06 5.97282C 4.87302e-06 5.07088 0.119769 4.24912 0.379248 3.50753C 0.638726 2.76594 0.998005 2.14461 1.47704 1.62349C 1.95608 1.10237 2.53491 0.701508 3.21354 0.420906C 3.89218 0.140304 4.65066 1.22333e-06 5.48898 1.22333e-06ZM 5.48898 10.3422C 6.62669 10.3422 7.48495 9.96138 8.04383 9.19975C 8.60271 8.43811 8.88216 7.35579 8.88216 5.99286C 8.88216 4.60989 8.60271 3.52757 8.04383 2.76594C 7.48495 2.0043 6.62669 1.60344 5.48898 1.60344C 4.91014 1.60344 4.41114 1.70366 3.99198 1.90409C 3.57283 2.10452 3.21354 2.38512 2.9341 2.76594C 2.65466 3.14675 2.43511 3.60774 2.29539 4.1489C 2.15567 4.69006 2.07584 5.3114 2.07584 5.99286C 2.07584 6.67433 2.15567 7.29566 2.29539 7.83682C 2.43511 8.37799 2.65466 8.83897 2.9341 9.19975C 3.21354 9.56052 3.57283 9.86117 3.99198 10.0416C 4.41114 10.242 4.91014 10.3422 5.48898 10.3422Z"/>
<path id="path15_fill" d="M 2.03591 2.44666e-06L 2.03591 16.8562L 9.74604e-06 16.8562L 9.74604e-06 2.44666e-06L 2.03591 2.44666e-06Z"/>
<path id="path16_fill" d="M 7.54483 2.06443C 7.44503 2.22478 7.30532 2.32499 7.12568 2.32499C 7.00592 2.32499 6.88615 2.28491 6.74643 2.20474C 6.60672 2.12456 6.42709 2.02434 6.20753 1.92413C 6.00793 1.82391 5.74846 1.7237 5.46902 1.64353C 5.16962 1.56335 4.83029 1.50323 4.45105 1.50323C 4.11173 1.50323 3.79238 1.54331 3.5329 1.64353C 3.25346 1.7237 3.0339 1.84396 2.8343 2.0043C 2.6347 2.16465 2.49499 2.32499 2.39519 2.54546C 2.29539 2.74589 2.2355 2.96637 2.2355 3.20689C 2.2355 3.50753 2.31535 3.74804 2.49499 3.94847C 2.67463 4.1489 2.89419 4.30925 3.17363 4.46959C 3.45307 4.6099 3.77242 4.7502 4.13169 4.85041C 4.49097 4.97067 4.85025 5.07089 5.22949 5.21119C 5.60873 5.33145 5.968 5.47174 6.32728 5.63209C 6.68656 5.79243 7.00593 5.97282 7.28537 6.21334C 7.56481 6.43381 7.78437 6.71441 7.96401 7.05514C 8.14365 7.39587 8.22347 7.77669 8.22347 8.25772C 8.22347 8.79889 8.12367 9.27992 7.94403 9.74091C 7.74443 10.2019 7.465 10.5827 7.10572 10.9234C 6.72648 11.2642 6.2674 11.5247 5.72849 11.7051C 5.18957 11.9056 4.57081 11.9857 3.85225 11.9857C 3.05385 11.9857 2.31534 11.8454 1.65666 11.5849C 0.997985 11.3243 0.439123 10.9836 4.87302e-06 10.5627L 0.479047 9.78099C 0.538927 9.68078 0.618762 9.60061 0.698601 9.56052C 0.778441 9.50039 0.89819 9.48035 1.03791 9.48035C 1.17763 9.48035 1.31736 9.54048 1.47704 9.64069C 1.63672 9.74091 1.81635 9.86117 2.0359 10.0015C 2.25546 10.1217 2.51495 10.242 2.81435 10.3622C 3.11374 10.4625 3.51295 10.5226 3.97203 10.5226C 4.37123 10.5226 4.71054 10.4625 5.00993 10.3622C 5.30933 10.262 5.54884 10.1217 5.74844 9.94134C 5.94804 9.76095 6.08777 9.56052 6.18757 9.34005C 6.28737 9.11957 6.32728 8.85902 6.32728 8.59846C 6.32728 8.27777 6.24746 8.01721 6.06782 7.79674C 5.88818 7.59631 5.66862 7.41592 5.38918 7.25557C 5.10974 7.11527 4.79037 6.97497 4.43109 6.87476C 4.07181 6.7545 3.69258 6.65428 3.3333 6.53402C 2.95406 6.41376 2.59478 6.27347 2.2355 6.11312C 1.87623 5.95278 1.55688 5.75235 1.27744 5.53187C 0.998005 5.29136 0.778441 5.01075 0.598802 4.64998C 0.419163 4.30925 0.339313 3.88835 0.339313 3.38727C 0.339313 2.94633 0.439118 2.52542 0.618757 2.10452C 0.798396 1.70366 1.05787 1.34288 1.41715 1.02219C 1.77643 0.701503 2.19559 0.460991 2.71455 0.280604C 3.21354 0.100216 3.81233 2.44666e-06 4.45105 2.44666e-06C 5.20952 2.44666e-06 5.88817 0.120258 6.48697 0.360774C 7.08577 0.601291 7.60471 0.921978 8.04383 1.34288L 7.54483 2.06443Z"/>
<path id="path17_fill" d="M 2.11575 0.581246C 2.09579 0.621332 2.05586 0.661417 1.99598 0.661417C 1.95606 0.661417 1.93611 0.641378 1.87623 0.621335C 1.83631 0.601292 1.77643 0.561207 1.71655 0.541164C 1.65667 0.521121 1.57683 0.48103 1.49699 0.460987C 1.41715 0.440944 1.31735 0.420905 1.19759 0.420905C 1.09779 0.420905 1.01795 0.440944 0.938113 0.460987C 0.858273 0.48103 0.798393 0.521116 0.738514 0.561202C 0.678634 0.601288 0.638719 0.661421 0.618759 0.72155C 0.598799 0.781679 0.578837 0.841807 0.578837 0.901936C 0.578837 0.982108 0.598802 1.06228 0.658681 1.12241C 0.698601 1.18254 0.778441 1.22262 0.85828 1.26271C 0.93812 1.30279 1.03791 1.34288 1.13771 1.36292C 1.23751 1.40301 1.33732 1.42305 1.45708 1.46314C 1.55688 1.50322 1.67663 1.54331 1.77643 1.5834C 1.87623 1.62348 1.97603 1.68362 2.05587 1.74375C 2.13571 1.80387 2.19559 1.88404 2.25547 1.98426C 2.29539 2.08447 2.33531 2.18469 2.33531 2.32499C 2.33531 2.48534 2.31535 2.62564 2.25547 2.7459C 2.19559 2.86615 2.11575 2.98641 2.01595 3.08662C 1.91615 3.18684 1.77643 3.24697 1.63671 3.3071C 1.47703 3.36723 1.29739 3.38727 1.09779 3.38727C 0.878231 3.38727 0.658677 3.34718 0.479038 3.26701C 0.299398 3.18684 0.139714 3.08662 -4.87302e-06 2.98641L 0.139717 2.76593C 0.159677 2.74589 0.179634 2.72585 0.199594 2.70581C 0.219554 2.68577 0.259474 2.68576 0.299394 2.68576C 0.339313 2.68576 0.37924 2.70581 0.41916 2.72585C 0.45908 2.76594 0.518957 2.78598 0.578837 2.82607C 0.638717 2.86615 0.718551 2.90624 0.798391 2.92628C 0.878231 2.96637 0.997997 2.96636 1.11776 2.96636C 1.23752 2.96636 1.33732 2.94633 1.41716 2.92628C 1.49699 2.90624 1.57683 2.86615 1.63671 2.80602C 1.69659 2.76594 1.73652 2.70581 1.75648 2.62564C 1.77644 2.56551 1.79639 2.48534 1.79639 2.42521C 1.79639 2.32499 1.77643 2.26486 1.71655 2.20473C 1.67663 2.1446 1.59679 2.10452 1.51695 2.04439C 1.43711 2.0043 1.33731 1.96422 1.23751 1.92413C 1.13771 1.88405 1.03792 1.864 0.918158 1.82392C 0.818358 1.78383 0.698592 1.74374 0.598792 1.70366C 0.498993 1.66357 0.3992 1.60344 0.319361 1.54332C 0.239521 1.48319 0.179642 1.40301 0.119762 1.3028C 0.079842 1.20258 0.0399174 1.08233 0.0399174 0.942024C 0.0399174 0.821766 0.0598821 0.701505 0.119762 0.581246C 0.179642 0.460988 0.239516 0.360773 0.339316 0.280601C 0.439115 0.200429 0.558872 0.120257 0.698592 0.0801709C 0.838311 0.0200418 0.99799 2.27863e-14 1.19759 2.27863e-14C 1.41715 2.27863e-14 1.61675 0.040086 1.77643 0.100215C 1.95607 0.160344 2.09579 0.260558 2.21555 0.380816L 2.11575 0.581246Z"/>
<path id="path18_fill" d="M 0.858278 0.420903C 0.858278 0.481033 0.838316 0.521116 0.818356 0.581245C 0.798396 0.621331 0.758476 0.681462 0.718556 0.701505C 0.678636 0.741591 0.638714 0.761632 0.578835 0.781675C 0.538915 0.801718 0.479037 0.821764 0.419158 0.821764C 0.359278 0.821764 0.319361 0.801718 0.259481 0.781675C 0.219561 0.761632 0.159674 0.721548 0.139714 0.701505C 0.0997946 0.661418 0.0798347 0.621331 0.0399149 0.581245C 0.019955 0.541159 4.87302e-06 0.481033 4.87302e-06 0.420903C 4.87302e-06 0.360774 0.019955 0.320691 0.0399149 0.260562C 0.0598748 0.200433 0.0997946 0.160344 0.139714 0.120258C 0.179634 0.0801721 0.219561 0.0601303 0.259481 0.0400873C 0.299401 0.0200442 0.359278 -1.22333e-06 0.419158 -1.22333e-06C 0.479037 -1.22333e-06 0.518955 0.0200442 0.578835 0.0400873C 0.618754 0.0601303 0.678636 0.100215 0.718556 0.120258C 0.758476 0.160344 0.778436 0.200433 0.818356 0.260562C 0.858276 0.320691 0.858278 0.360774 0.858278 0.420903ZM 0.738511 1.46314L 0.738511 4.7502L 0.159682 4.7502L 0.159682 1.46314L 0.738511 1.46314Z"/>
<path id="path19_fill" d="M 2.43651e-06 3.32714L 2.43651e-06 0.0400885L 0.339323 0.0400885C 0.419163 0.0400885 0.47904 0.0801696 0.499 0.160342L 0.538922 0.501076C 0.658681 0.360774 0.798401 0.220476 0.93812 0.140304C 1.0978 0.0400885 1.25747 0 1.45707 0C 1.67663 0 1.85627 0.0601278 1.99599 0.180386C 2.13571 0.300644 2.23551 0.460988 2.29539 0.681462C 2.33531 0.561203 2.39518 0.460988 2.47502 0.380816C 2.55486 0.300644 2.63471 0.220471 2.73451 0.160342C 2.83431 0.100213 2.93411 0.0601315 3.03391 0.0400885C 3.13371 0.0200455 3.25346 0 3.35326 0C 3.5329 0 3.67262 0.0200418 3.81234 0.0801709C 3.95206 0.1403 4.05186 0.220474 4.15166 0.32069C 4.25146 0.420905 4.31133 0.561206 4.37121 0.72155C 4.41113 0.881894 4.45106 1.06228 4.45106 1.26271L 4.45106 3.36723L 3.85226 3.36723L 3.85226 1.26271C 3.85226 1.00215 3.79238 0.80172 3.69258 0.681462C 3.57282 0.54116 3.41314 0.481031 3.21354 0.481031C 3.11374 0.481031 3.03391 0.501077 2.93411 0.52112C 2.85427 0.561206 2.77442 0.601288 2.71454 0.661417C 2.65466 0.721546 2.59479 0.801721 2.55487 0.901936C 2.51495 1.00215 2.49499 1.12241 2.49499 1.24267L 2.49499 3.34719L 1.91615 3.34719L 1.91615 1.24267C 1.91615 0.982111 1.85627 0.78168 1.75647 0.641379C 1.65667 0.521121 1.49699 0.440949 1.2974 0.440949C 1.15768 0.440949 1.01796 0.48103 0.898198 0.561202C 0.778438 0.641374 0.658677 0.741591 0.558877 0.881892L 0.558877 3.32714L 2.43651e-06 3.32714Z"/>
<path id="path20_fill" d="M -2.43651e-06 4.48964L -2.43651e-06 0.0801745L 0.339318 0.0801745C 0.419158 0.0801745 0.479035 0.120256 0.498995 0.200428L 0.538917 0.58125C 0.678636 0.400863 0.83832 0.280604 1.01796 0.160345C 1.1976 0.0601303 1.39719 -2.44666e-06 1.63671 -2.44666e-06C 1.81635 -2.44666e-06 1.99598 0.0400836 2.15566 0.100213C 2.31534 0.180385 2.4351 0.280601 2.55486 0.420902C 2.65466 0.561203 2.75446 0.741592 2.79438 0.942022C 2.85426 1.14245 2.87423 1.40301 2.87423 1.66357C 2.87423 1.90409 2.83431 2.12456 2.77443 2.34503C 2.71455 2.54546 2.61474 2.72585 2.49498 2.8862C 2.37523 3.04654 2.21554 3.1668 2.05586 3.24697C 1.89619 3.32714 1.67663 3.38727 1.45707 3.38727C 1.25747 3.38727 1.07783 3.34719 0.938115 3.28706C 0.798396 3.22693 0.658672 3.12671 0.558872 3.00645L 0.558872 4.4696L -2.43651e-06 4.4696L -2.43651e-06 4.48964ZM 1.45707 0.481035C 1.27743 0.481035 1.09779 0.521116 0.95807 0.601288C 0.818351 0.68146 0.678632 0.801722 0.558872 0.962066L 0.558872 2.54546C 0.658672 2.68577 0.778433 2.78598 0.898193 2.84611C 1.01795 2.90624 1.15768 2.92628 1.31736 2.92628C 1.61676 2.92628 1.85628 2.82606 2.01595 2.60559C 2.17563 2.38512 2.25546 2.06443 2.25546 1.66357C 2.25546 1.4431 2.23551 1.26271 2.19559 1.10236C 2.15567 0.94202 2.09579 0.821763 2.03591 0.721548C 1.95607 0.621332 1.87623 0.541159 1.77643 0.501073C 1.69659 0.501073 1.59679 0.481035 1.45707 0.481035Z"/>
<path id="path21_fill" d="M 0.578842 2.44666e-06L 0.578842 4.79028L 0 4.79028L 0 2.44666e-06L 0.578842 2.44666e-06Z"/>
<path id="path22_fill" d="M 1.53692 -1.22333e-06C 1.73652 -1.22333e-06 1.91615 0.0400848 2.07582 0.100214C 2.2355 0.160343 2.37523 0.260557 2.51494 0.380815C 2.6347 0.501073 2.73451 0.661421 2.79439 0.841808C 2.85427 1.0222 2.89419 1.24267 2.89419 1.46314C 2.89419 1.56336 2.89418 1.62349 2.87422 1.64353C 2.85426 1.68362 2.81435 1.68361 2.75447 1.68361L 0.578832 1.68361C 0.578832 1.88404 0.618757 2.06443 0.658677 2.22478C 0.718556 2.38512 0.778431 2.50538 0.878231 2.60559C 0.97803 2.70581 1.07784 2.78598 1.1976 2.82607C 1.31736 2.8862 1.45707 2.90624 1.61675 2.90624C 1.75647 2.90624 1.89619 2.8862 1.99599 2.86615C 2.09579 2.82607 2.19558 2.78598 2.27542 2.76594C 2.35526 2.7459 2.41515 2.68577 2.45507 2.66572C 2.51495 2.62564 2.55487 2.60559 2.59479 2.60559C 2.63471 2.60559 2.67463 2.62564 2.69459 2.66572L 2.85426 2.88619C 2.77443 2.96636 2.69459 3.04654 2.59479 3.10667C 2.49499 3.1668 2.39518 3.22693 2.27542 3.26701C 2.15566 3.3071 2.03591 3.34719 1.91615 3.36723C 1.79639 3.38727 1.67663 3.40731 1.55687 3.40731C 1.33731 3.40731 1.11776 3.36723 0.93812 3.28705C 0.738521 3.20688 0.578842 3.10667 0.439123 2.94633C 0.299403 2.80602 0.199597 2.60559 0.119757 2.38512C 0.0399174 2.16464 2.43651e-06 1.92413 2.43651e-06 1.62348C 2.43651e-06 1.40301 0.0399222 1.18254 0.0998019 0.982106C 0.179642 0.781675 0.279441 0.601293 0.3992 0.460992C 0.53892 0.320691 0.698592 0.20043 0.878231 0.120258C 1.09779 0.040086 1.31736 -1.22333e-06 1.53692 -1.22333e-06ZM 1.55687 0.420903C 1.27743 0.420903 1.05788 0.501078 0.898198 0.661422C 0.738519 0.821766 0.638719 1.04224 0.598799 1.34288L 2.37522 1.34288C 2.37522 1.20258 2.35527 1.08232 2.31535 0.982106C 2.27543 0.861847 2.21555 0.781677 2.15567 0.701504C 2.07583 0.621332 1.99599 0.561205 1.89619 0.521119C 1.81635 0.440946 1.69659 0.420903 1.55687 0.420903Z"/>
<path id="path23_fill" d="M 1.31735 4.44955C 1.05787 4.44955 0.858271 4.36938 0.718551 4.22907C 0.578832 4.08877 0.518952 3.86831 0.518952 3.60775L 0.518952 1.5834L 0.119755 1.5834C 0.0798347 1.5834 0.0598821 1.5834 0.0399222 1.54331C 0.0199623 1.52327 0 1.48318 0 1.4431L 0 1.20258L 0.53892 1.14245L 0.678641 0.120256C 0.678641 0.0801696 0.698591 0.0601278 0.718551 0.0400848C 0.738511 0.0200418 0.778431 2.44666e-06 0.818351 2.44666e-06L 1.11775 2.44666e-06L 1.11775 1.14245L 2.05587 1.14245L 2.05587 1.56336L 1.11775 1.56336L 1.11775 3.54761C 1.11775 3.68791 1.15767 3.78813 1.21755 3.84826C 1.27743 3.90839 1.37724 3.94847 1.47704 3.94847C 1.53692 3.94847 1.59679 3.94847 1.63671 3.92843C 1.67663 3.90839 1.71655 3.88835 1.75647 3.8683C 1.79639 3.84826 1.81635 3.82822 1.83631 3.80818C 1.85627 3.78813 1.87623 3.78813 1.89619 3.78813C 1.93611 3.78813 1.95607 3.80817 1.97603 3.84826L 2.13571 4.12886C 2.03591 4.22907 1.91615 4.28921 1.77644 4.34933C 1.61676 4.40946 1.47703 4.44955 1.31735 4.44955Z"/>
<path id="path24_fill" d="M 1.57684 -1.22333e-06C 1.81636 -1.22333e-06 2.03591 0.040086 2.23551 0.120258C 2.43511 0.20043 2.59479 0.320691 2.73451 0.460992C 2.87423 0.601293 2.97402 0.781677 3.05386 1.00215C 3.1337 1.20258 3.15366 1.4431 3.15366 1.70366C 3.15366 1.96421 3.11374 2.20473 3.05386 2.40516C 2.97402 2.60559 2.87423 2.78598 2.73451 2.94633C 2.59479 3.08663 2.43511 3.20688 2.23551 3.28705C 2.03591 3.36723 1.81636 3.40731 1.57684 3.40731C 1.33732 3.40731 1.11776 3.36723 0.938118 3.28705C 0.738519 3.20688 0.578839 3.08663 0.43912 2.94633C 0.299401 2.80602 0.199594 2.62563 0.119755 2.40516C 0.0399149 2.20473 2.26918e-14 1.96421 2.26918e-14 1.70366C 2.26918e-14 1.4431 0.0399149 1.20258 0.119755 1.00215C 0.199594 0.80172 0.299401 0.621336 0.43912 0.460992C 0.578839 0.320691 0.738519 0.20043 0.938118 0.120258C 1.11776 0.040086 1.33732 -1.22333e-06 1.57684 -1.22333e-06ZM 1.57684 2.94633C 1.8962 2.94633 2.13571 2.84611 2.29539 2.62564C 2.45507 2.40516 2.53491 2.10452 2.53491 1.70366C 2.53491 1.3028 2.45507 1.00215 2.29539 0.781675C 2.13571 0.561202 1.8962 0.460992 1.57684 0.460992C 1.41716 0.460992 1.27743 0.481034 1.15767 0.541163C 1.03791 0.601292 0.938113 0.68146 0.858273 0.781675C 0.778434 0.88189 0.718561 1.02219 0.678641 1.18254C 0.638722 1.34288 0.618752 1.50323 0.618752 1.70366C 0.618752 1.90409 0.638722 2.06443 0.678641 2.22478C 0.718561 2.38512 0.778434 2.50538 0.858273 2.60559C 0.938113 2.70581 1.03791 2.78598 1.15767 2.84611C 1.25747 2.90624 1.41716 2.94633 1.57684 2.94633Z"/>
<path id="path25_fill" d="M 1.57684 -1.22333e-06C 1.81636 -1.22333e-06 2.0359 0.040086 2.21554 0.120258C 2.41514 0.20043 2.57482 0.320691 2.71454 0.460992C 2.85426 0.601293 2.95407 0.781677 3.03391 1.00215C 3.11375 1.20258 3.13371 1.4431 3.13371 1.70366C 3.13371 1.96421 3.09379 2.20473 3.03391 2.40516C 2.95407 2.60559 2.85426 2.78598 2.71454 2.94633C 2.57482 3.08663 2.41514 3.20688 2.21554 3.28705C 2.01594 3.36723 1.7964 3.40731 1.57684 3.40731C 1.33732 3.40731 1.11775 3.36723 0.91815 3.28705C 0.718551 3.20688 0.558872 3.08663 0.419153 2.94633C 0.279434 2.80602 0.179639 2.62563 0.0997995 2.40516C 0.0199599 2.20473 0 1.96421 0 1.70366C 0 1.4431 0.0399198 1.20258 0.0997995 1.00215C 0.179639 0.80172 0.279434 0.621336 0.419153 0.460992C 0.558872 0.300648 0.718551 0.20043 0.91815 0.120258C 1.11775 0.040086 1.33732 -1.22333e-06 1.57684 -1.22333e-06ZM 1.57684 2.94633C 1.8962 2.94633 2.13571 2.84611 2.29539 2.62564C 2.45507 2.40516 2.53491 2.10452 2.53491 1.70366C 2.53491 1.3028 2.45507 1.00215 2.29539 0.781675C 2.13571 0.561202 1.8962 0.460992 1.57684 0.460992C 1.41716 0.460992 1.27743 0.481034 1.15767 0.541163C 1.03791 0.601292 0.938113 0.68146 0.858273 0.781675C 0.778434 0.88189 0.718561 1.02219 0.678641 1.18254C 0.638722 1.34288 0.618752 1.50323 0.618752 1.70366C 0.618752 1.90409 0.638722 2.06443 0.678641 2.22478C 0.718561 2.38512 0.778434 2.50538 0.858273 2.60559C 0.938113 2.70581 1.03791 2.78598 1.15767 2.84611C 1.27743 2.90624 1.41716 2.94633 1.57684 2.94633Z"/>
<path id="path26_fill" d="M 0.578837 2.44666e-06L 0.578837 4.79028L -4.87302e-06 4.79028L -4.87302e-06 2.44666e-06L 0.578837 2.44666e-06Z"/>
<path id="path27_fill" d="M 2.13571 0.581246C 2.11575 0.621332 2.07583 0.661417 2.01595 0.661417C 1.97603 0.661417 1.95607 0.641378 1.89619 0.621335C 1.85627 0.601292 1.7964 0.561207 1.73652 0.541164C 1.67664 0.521121 1.61675 0.48103 1.51695 0.460987C 1.43711 0.440944 1.33731 0.420905 1.21755 0.420905C 1.11775 0.420905 1.03791 0.440944 0.958075 0.460987C 0.878235 0.48103 0.818356 0.521116 0.758476 0.561202C 0.698596 0.601288 0.658681 0.661421 0.638722 0.72155C 0.618762 0.781679 0.598799 0.841807 0.598799 0.901936C 0.598799 0.982108 0.618752 1.06228 0.678632 1.12241C 0.718551 1.18254 0.798391 1.22262 0.878231 1.26271C 0.95807 1.30279 1.05787 1.34288 1.15767 1.36292C 1.25747 1.40301 1.35727 1.42305 1.47703 1.46314C 1.57683 1.50322 1.69659 1.54331 1.79639 1.5834C 1.89619 1.62348 1.99598 1.68362 2.07582 1.74375C 2.15566 1.80387 2.21554 1.88404 2.27542 1.98426C 2.31534 2.08447 2.35527 2.18469 2.35527 2.32499C 2.35527 2.48534 2.3353 2.62564 2.27542 2.7459C 2.21554 2.86615 2.13571 2.98641 2.03591 3.08662C 1.93611 3.18684 1.7964 3.24697 1.63672 3.3071C 1.47704 3.36723 1.2974 3.38727 1.0978 3.38727C 0.878238 3.38727 0.658672 3.34718 0.479033 3.26701C 0.299394 3.18684 0.139722 3.08662 2.43651e-06 2.98641L 0.139724 2.76593C 0.159684 2.74589 0.179641 2.72585 0.199601 2.70581C 0.219561 2.68577 0.259481 2.68576 0.299401 2.68576C 0.339321 2.68576 0.379236 2.70581 0.419155 2.72585C 0.459075 2.76594 0.518952 2.78598 0.578832 2.82607C 0.638712 2.86615 0.718559 2.90624 0.798398 2.92628C 0.878238 2.96637 0.997992 2.96636 1.11775 2.96636C 1.23751 2.96636 1.33731 2.94633 1.41715 2.92628C 1.49699 2.90624 1.57684 2.86615 1.63672 2.80602C 1.6966 2.76594 1.73651 2.70581 1.75647 2.62564C 1.77643 2.56551 1.79639 2.48534 1.79639 2.42521C 1.79639 2.32499 1.77643 2.26486 1.71655 2.20473C 1.67663 2.1446 1.59679 2.10452 1.51695 2.04439C 1.43711 2.0043 1.33732 1.96422 1.23752 1.92413C 1.13772 1.88405 1.03791 1.864 0.918153 1.82392C 0.818353 1.78383 0.698599 1.74374 0.598799 1.70366C 0.499 1.66357 0.399195 1.60344 0.319356 1.54332C 0.239516 1.48319 0.179637 1.40301 0.119757 1.3028C 0.0798372 1.20258 0.0399247 1.08233 0.0399247 0.942024C 0.0399247 0.821766 0.0598773 0.701505 0.119757 0.581246C 0.179637 0.460988 0.239524 0.360773 0.339323 0.280601C 0.439123 0.200429 0.558879 0.120257 0.698599 0.0801709C 0.838318 0.0200418 1.01796 2.27863e-14 1.1976 2.27863e-14C 1.41716 2.27863e-14 1.59679 0.040086 1.77643 0.100215C 1.95606 0.160344 2.09579 0.260558 2.21555 0.380816L 2.13571 0.581246Z"/>
<path id="path28_fill" d="M 1.31735 4.44955C 1.05787 4.44955 0.858273 4.36938 0.718554 4.22907C 0.578835 4.08877 0.518955 3.86831 0.518955 3.60775L 0.518955 1.5834L 0.119757 1.5834C 0.0798372 1.5834 0.0598846 1.5834 0.0399247 1.54331C 0.0199648 1.52327 2.43651e-06 1.48318 2.43651e-06 1.4431L 2.43651e-06 1.20258L 0.538922 1.14245L 0.678632 0.120256C 0.678632 0.0801696 0.698594 0.0601278 0.718554 0.0400848C 0.738514 0.0200418 0.778434 2.44666e-06 0.818353 2.44666e-06L 1.11775 2.44666e-06L 1.11775 1.14245L 2.05587 1.14245L 2.05587 1.56336L 1.11775 1.56336L 1.11775 3.54761C 1.11775 3.68791 1.15767 3.78813 1.21755 3.84826C 1.27743 3.90839 1.37723 3.94847 1.47703 3.94847C 1.53691 3.94847 1.5968 3.94847 1.63672 3.92843C 1.67664 3.90839 1.71655 3.88835 1.75647 3.8683C 1.79639 3.84826 1.81636 3.82822 1.83632 3.80818C 1.85628 3.78813 1.87623 3.78813 1.89619 3.78813C 1.93611 3.78813 1.95606 3.80817 1.97602 3.84826L 2.13571 4.12886C 2.03591 4.22907 1.91615 4.28921 1.77643 4.34933C 1.61675 4.40946 1.45707 4.44955 1.31735 4.44955Z"/>
<path id="path29_fill" d="M 1.59679 -1.22333e-06C 1.83631 -1.22333e-06 2.05587 0.040086 2.25547 0.120258C 2.45506 0.20043 2.61474 0.320691 2.75446 0.460992C 2.89418 0.601293 2.99399 0.781677 3.07383 1.00215C 3.15367 1.20258 3.17363 1.4431 3.17363 1.70366C 3.17363 1.96421 3.13371 2.20473 3.07383 2.40516C 2.99399 2.60559 2.89418 2.78598 2.75446 2.94633C 2.61474 3.08663 2.45506 3.20688 2.25547 3.28705C 2.05587 3.36723 1.83631 3.40731 1.59679 3.40731C 1.35727 3.40731 1.13772 3.36723 0.938118 3.28705C 0.738519 3.20688 0.578839 3.08663 0.43912 2.94633C 0.299401 2.80602 0.199594 2.62563 0.119755 2.40516C 0.0399149 2.18469 0 1.96421 0 1.70366C 0 1.4431 0.0399149 1.20258 0.119755 1.00215C 0.199594 0.80172 0.299401 0.621336 0.43912 0.460992C 0.578839 0.320691 0.738519 0.20043 0.938118 0.120258C 1.15768 0.040086 1.35727 -1.22333e-06 1.59679 -1.22333e-06ZM 1.59679 2.94633C 1.91615 2.94633 2.15566 2.84611 2.31534 2.62564C 2.47502 2.40516 2.55486 2.10452 2.55486 1.70366C 2.55486 1.3028 2.47502 1.00215 2.31534 0.781675C 2.15566 0.561202 1.91615 0.460992 1.59679 0.460992C 1.43711 0.460992 1.2974 0.481034 1.17764 0.541163C 1.05788 0.601292 0.95808 0.68146 0.87824 0.781675C 0.798401 0.88189 0.738516 1.02219 0.698596 1.18254C 0.658677 1.34288 0.638719 1.50323 0.638719 1.70366C 0.638719 1.90409 0.658677 2.06443 0.698596 2.22478C 0.738516 2.38512 0.798401 2.50538 0.87824 2.60559C 0.95808 2.70581 1.05788 2.78598 1.17764 2.84611C 1.2974 2.90624 1.43711 2.94633 1.59679 2.94633Z"/>
<path id="path30_fill" d="M -4.87302e-06 4.79028L -4.87302e-06 2.44666e-06L 0.578837 2.44666e-06L 0.578837 1.94417C 0.718556 1.80387 0.878233 1.68361 1.03791 1.5834C 1.21755 1.50323 1.39719 1.4431 1.63671 1.4431C 1.81635 1.4431 1.97603 1.46314 2.11575 1.52327C 2.25547 1.5834 2.37523 1.66357 2.45507 1.78383C 2.55487 1.88405 2.61475 2.02435 2.65467 2.18469C 2.69459 2.34503 2.73452 2.50538 2.73452 2.68577L 2.73452 4.79028L 2.15567 4.79028L 2.15567 2.68577C 2.15567 2.44525 2.09579 2.24482 1.97603 2.10452C 1.85627 1.96422 1.6966 1.90409 1.45708 1.90409C 1.27744 1.90409 1.11775 1.94417 0.978035 2.02434C 0.838316 2.10451 0.698601 2.22478 0.558882 2.36508L 0.558882 4.79028L -4.87302e-06 4.79028Z"/>
<path id="path31_fill" d="M 1.51694 -1.22333e-06C 1.71654 -1.22333e-06 1.89619 0.0400848 2.05587 0.100214C 2.21555 0.160343 2.37522 0.260557 2.49498 0.380815C 2.61474 0.501073 2.71455 0.661421 2.77443 0.841808C 2.83431 1.0222 2.87422 1.24267 2.87422 1.46314C 2.87422 1.56336 2.87423 1.62349 2.85427 1.64353C 2.83431 1.68362 2.79439 1.68361 2.73452 1.68361L 0.558882 1.68361C 0.558882 1.88404 0.598807 2.06443 0.638726 2.22478C 0.698606 2.38512 0.758481 2.50538 0.85828 2.60559C 0.95808 2.70581 1.05787 2.78598 1.17763 2.82607C 1.29739 2.8862 1.43711 2.90624 1.59679 2.90624C 1.73651 2.90624 1.85627 2.8862 1.97603 2.86615C 2.07583 2.82607 2.17563 2.78598 2.25547 2.76594C 2.33531 2.72585 2.3952 2.68577 2.43512 2.66572C 2.495 2.62564 2.53491 2.60559 2.57483 2.60559C 2.61475 2.60559 2.65466 2.62564 2.69458 2.66572L 2.85427 2.88619C 2.77443 2.96636 2.69458 3.04654 2.59478 3.10667C 2.49498 3.1668 2.39519 3.22693 2.27543 3.26701C 2.15567 3.3071 2.0359 3.34719 1.91614 3.36723C 1.79638 3.38727 1.67664 3.40731 1.55688 3.40731C 1.33732 3.40731 1.11776 3.36723 0.938125 3.28705C 0.738526 3.20688 0.578847 3.10667 0.439127 2.94633C 0.299408 2.80602 0.199589 2.60559 0.11975 2.38512C 0.03991 2.16464 -4.87302e-06 1.92413 -4.87302e-06 1.62348C -4.87302e-06 1.40301 0.0399149 1.18254 0.0997946 0.982106C 0.179634 0.781675 0.279434 0.601293 0.399193 0.460992C 0.538912 0.320691 0.698596 0.20043 0.878235 0.120258C 1.05787 0.040086 1.27742 -1.22333e-06 1.51694 -1.22333e-06ZM 1.51694 0.420903C 1.2375 0.420903 1.01796 0.501078 0.85828 0.661422C 0.698601 0.821766 0.598802 1.04224 0.558882 1.34288L 2.33532 1.34288C 2.33532 1.20258 2.31535 1.08232 2.27543 0.982106C 2.23551 0.861847 2.17562 0.781677 2.11574 0.701504C 2.0359 0.621332 1.95607 0.561205 1.85628 0.521119C 1.77644 0.440946 1.65666 0.420903 1.51694 0.420903Z"/>
<path id="path32_fill" d="M 0.578847 2.44666e-06L 0.578847 4.79028L 4.87302e-06 4.79028L 4.87302e-06 2.44666e-06L 0.578847 2.44666e-06Z"/>
<path id="path33_fill" d="M 4.87302e-06 4.48964L 4.87302e-06 0.0801745L 0.339313 0.0801745C 0.419153 0.0801745 0.479042 0.120256 0.499002 0.200428L 0.538912 0.58125C 0.678632 0.400863 0.838316 0.280604 1.01795 0.160345C 1.19759 0.0601303 1.39719 -2.44666e-06 1.63671 -2.44666e-06C 1.81635 -2.44666e-06 1.99598 0.0400836 2.15566 0.100213C 2.31534 0.180385 2.4351 0.280601 2.55486 0.420902C 2.65466 0.561203 2.75447 0.741592 2.79439 0.942022C 2.85427 1.14245 2.87423 1.40301 2.87423 1.66357C 2.87423 1.90409 2.83432 2.12456 2.77444 2.34503C 2.71456 2.54546 2.61475 2.72585 2.49499 2.8862C 2.37523 3.04654 2.2355 3.1668 2.05586 3.24697C 1.87622 3.32714 1.67662 3.38727 1.45706 3.38727C 1.25746 3.38727 1.07783 3.34719 0.93811 3.28706C 0.798391 3.22693 0.658667 3.12671 0.558867 3.00645L 0.558867 4.4696L 4.87302e-06 4.4696L 4.87302e-06 4.48964ZM 1.45706 0.481035C 1.27742 0.481035 1.09778 0.521116 0.958065 0.601288C 0.818346 0.68146 0.678627 0.801722 0.558867 0.962066L 0.558867 2.54546C 0.658667 2.68577 0.778441 2.78598 0.8982 2.84611C 1.01796 2.90624 1.15767 2.92628 1.31735 2.92628C 1.61675 2.92628 1.85627 2.82606 2.01595 2.60559C 2.17563 2.38512 2.25546 2.06443 2.25546 1.66357C 2.25546 1.4431 2.23551 1.26271 2.19559 1.10236C 2.15567 0.94202 2.09578 0.821763 2.0359 0.721548C 1.95606 0.621332 1.87624 0.541159 1.77644 0.501073C 1.67664 0.460987 1.59678 0.481035 1.45706 0.481035Z"/>
<path id="path34_fill" d="M 2.47502 0.661421C 2.45506 0.681464 2.43511 0.701505 2.41515 0.721548C 2.39519 0.741591 2.37523 0.741592 2.33531 0.741592C 2.29539 0.741592 2.27543 0.721546 2.23551 0.701503C 2.19559 0.68146 2.15568 0.641375 2.0958 0.621332C 2.03592 0.581246 1.97602 0.561205 1.87622 0.541162C 1.79638 0.521119 1.69658 0.501073 1.57682 0.501073C 1.41714 0.501073 1.27743 0.521121 1.15767 0.58125C 1.03791 0.641379 0.93811 0.721547 0.858271 0.821763C 0.778431 0.921978 0.718547 1.06228 0.678627 1.22262C 0.638707 1.38297 0.618762 1.54331 0.618762 1.74374C 0.618762 1.94417 0.638707 2.12456 0.678627 2.28491C 0.718547 2.44525 0.778426 2.56551 0.878226 2.66572C 0.958065 2.76594 1.05786 2.84611 1.17762 2.90624C 1.29738 2.96636 1.41714 2.98641 1.57682 2.98641C 1.71654 2.98641 1.83632 2.96637 1.91615 2.92628C 2.01595 2.88619 2.07583 2.84611 2.13571 2.80602C 2.19559 2.76593 2.2355 2.72585 2.27542 2.68577C 2.31534 2.64568 2.35528 2.62563 2.3952 2.62563C 2.43512 2.62563 2.47503 2.64568 2.51495 2.68577L 2.67462 2.90624C 2.5349 3.08662 2.35527 3.20689 2.13571 3.28706C 1.91615 3.36723 1.69659 3.40731 1.45707 3.40731C 1.25747 3.40731 1.05786 3.36723 0.878226 3.28706C 0.698587 3.20689 0.558882 3.10667 0.419163 2.96637C 0.279443 2.82607 0.179644 2.64568 0.119764 2.4252C 0.0399247 2.22477 9.74604e-06 1.98426 9.74604e-06 1.70365C 9.74604e-06 1.46314 0.0399295 1.22262 0.0998092 1.02219C 0.159689 0.821763 0.259488 0.641379 0.399208 0.481035C 0.538927 0.320691 0.698587 0.220472 0.878226 0.120257C 1.07782 0.0400848 1.29739 -2.44666e-06 1.53691 -2.44666e-06C 1.75647 -2.44666e-06 1.97603 0.0400848 2.13571 0.120257C 2.31535 0.200429 2.47503 0.300645 2.61475 0.440946L 2.47502 0.661421Z"/>
<path id="path35_fill" d="M -9.74604e-06 4.79028L -9.74604e-06 2.44666e-06L 0.578832 2.44666e-06L 0.578832 1.94417C 0.718551 1.80387 0.87824 1.68361 1.03792 1.5834C 1.21756 1.50323 1.3972 1.4431 1.63672 1.4431C 1.81636 1.4431 1.97604 1.46314 2.11576 1.52327C 2.25548 1.5834 2.37523 1.66357 2.45507 1.78383C 2.55487 1.88405 2.61475 2.02435 2.65467 2.18469C 2.69459 2.34503 2.73451 2.50538 2.73451 2.68577L 2.73451 4.79028L 2.15567 4.79028L 2.15567 2.68577C 2.15567 2.44525 2.09578 2.24482 1.97602 2.10452C 1.85627 1.96422 1.69659 1.90409 1.45707 1.90409C 1.27743 1.90409 1.11775 1.94417 0.97803 2.02434C 0.838311 2.10451 0.698596 2.22478 0.558877 2.36508L 0.558877 4.79028L -9.74604e-06 4.79028Z"/>
<path id="path36_fill" d="M 0.538907 0.0200455L 0.538907 2.12456C 0.538907 2.36508 0.598792 2.56551 0.718551 2.70581C 0.838311 2.84611 0.997985 2.90624 1.2375 2.90624C 1.39718 2.90624 1.55687 2.86615 1.71655 2.78598C 1.85627 2.70581 1.99598 2.58555 2.1357 2.44525L 2.1357 0.0200455L 2.71454 0.0200455L 2.71454 3.3071L 2.37523 3.3071C 2.29539 3.3071 2.2355 3.26701 2.21554 3.18684L 2.17563 2.82607C 2.03591 2.98641 1.87623 3.10667 1.69659 3.20688C 1.51695 3.3071 1.31735 3.34718 1.09779 3.34718C 0.918155 3.34718 0.758471 3.32714 0.618752 3.26701C 0.479033 3.20688 0.359283 3.12671 0.279443 3.00645C 0.199604 2.8862 0.119764 2.76594 0.0798445 2.60559C 0.0399247 2.44525 4.53836e-14 2.28491 4.53836e-14 2.10452L 4.53836e-14 1.22333e-06L 0.538907 1.22333e-06L 0.538907 0.0200455Z"/>
<path id="path37_fill" d="M -9.74604e-06 3.34719L -9.74604e-06 0.0601315L 0.339323 0.0601315C 0.399203 0.0601315 0.439118 0.0801709 0.459078 0.100214C 0.479037 0.120257 0.498988 0.160344 0.498988 0.220473L 0.538922 0.741593C 0.658681 0.52112 0.798396 0.34073 0.958075 0.200429C 1.11775 0.0801709 1.31736 -1.22333e-06 1.53692 -1.22333e-06C 1.63672 -1.22333e-06 1.71655 0.0200442 1.77643 0.0400873C 1.85627 0.0601303 1.91615 0.0801721 1.97602 0.120258L 1.89618 0.561207C 1.87622 0.621336 1.85626 0.641378 1.79638 0.641378C 1.77642 0.641378 1.71655 0.621332 1.65667 0.601289C 1.59679 0.581246 1.49698 0.561207 1.39718 0.561207C 1.19758 0.561207 1.0379 0.621335 0.898186 0.741593C 0.758466 0.861851 0.658677 1.0222 0.558877 1.24267L 0.558877 3.34719L -9.74604e-06 3.34719Z"/>
<path id="path38_fill" d="M 2.47503 0.661421C 2.45507 0.681464 2.4351 0.701505 2.41514 0.721548C 2.39518 0.741591 2.37522 0.741592 2.3353 0.741592C 2.29538 0.741592 2.27542 0.721546 2.2355 0.701503C 2.19558 0.68146 2.15567 0.641375 2.09579 0.621332C 2.03591 0.581246 1.97603 0.561205 1.87624 0.541162C 1.7964 0.521119 1.6966 0.501073 1.57684 0.501073C 1.41716 0.501073 1.27744 0.521121 1.15768 0.58125C 1.03792 0.641379 0.938125 0.721547 0.858285 0.821763C 0.778446 0.921978 0.718561 1.06228 0.678641 1.22262C 0.638722 1.38297 0.618752 1.54331 0.618752 1.74374C 0.618752 1.94417 0.638722 2.12456 0.678641 2.28491C 0.718561 2.44525 0.778441 2.56551 0.87824 2.66572C 0.95808 2.76594 1.05788 2.84611 1.17764 2.90624C 1.2974 2.96636 1.41716 2.98641 1.57684 2.98641C 1.71656 2.98641 1.83631 2.96637 1.91615 2.92628C 2.01594 2.88619 2.07582 2.84611 2.1357 2.80602C 2.19558 2.76593 2.23551 2.72585 2.27543 2.68577C 2.31535 2.64568 2.35527 2.62563 2.39519 2.62563C 2.43511 2.62563 2.47502 2.64568 2.51494 2.68577L 2.67463 2.90624C 2.53491 3.08662 2.35526 3.20689 2.1357 3.28706C 1.91614 3.36723 1.6966 3.40731 1.45708 3.40731C 1.25748 3.40731 1.05788 3.36723 0.87824 3.28706C 0.698601 3.20689 0.558872 3.10667 0.419153 2.96637C 0.279434 2.82607 0.179634 2.64568 0.119755 2.4252C 0.0399149 2.22477 4.53835e-14 1.98426 4.53835e-14 1.70365C 4.53835e-14 1.46314 0.0399198 1.22262 0.0997995 1.02219C 0.159679 0.821763 0.259479 0.641379 0.399198 0.481035C 0.538917 0.320691 0.698601 0.220472 0.87824 0.120257C 1.07784 0.0400848 1.29738 -2.44666e-06 1.5369 -2.44666e-06C 1.75646 -2.44666e-06 1.97602 0.0400848 2.1357 0.120257C 2.31534 0.200429 2.47502 0.300645 2.61474 0.440946L 2.47503 0.661421Z"/>
<path id="path39_fill" d="M 4.87302e-06 4.79028L 4.87302e-06 2.44666e-06L 0.578847 2.44666e-06L 0.578847 1.94417C 0.718566 1.80387 0.878231 1.68361 1.03791 1.5834C 1.21755 1.50323 1.39719 1.4431 1.63671 1.4431C 1.81635 1.4431 1.97603 1.46314 2.11575 1.52327C 2.25547 1.5834 2.37522 1.66357 2.45506 1.78383C 2.55486 1.88405 2.61474 2.02435 2.65466 2.18469C 2.69458 2.34503 2.7345 2.50538 2.7345 2.68577L 2.7345 4.79028L 2.15566 4.79028L 2.15566 2.68577C 2.15566 2.44525 2.0958 2.24482 1.97604 2.10452C 1.85628 1.96422 1.69658 1.90409 1.45706 1.90409C 1.27742 1.90409 1.11776 1.94417 0.978045 2.02434C 0.838325 2.10451 0.698587 2.22478 0.558867 2.36508L 0.558867 4.79028L 4.87302e-06 4.79028Z"/>
<path id="path40_fill" d="M 1.497 -1.22333e-06C 1.6966 -1.22333e-06 1.87623 0.0400848 2.0359 0.100214C 2.19558 0.160343 2.35528 0.260557 2.47504 0.380815C 2.5948 0.501073 2.69458 0.661421 2.75446 0.841808C 2.81434 1.0222 2.85426 1.24267 2.85426 1.46314C 2.85426 1.56336 2.85426 1.62349 2.8343 1.64353C 2.81434 1.66357 2.77443 1.68361 2.71455 1.68361L 0.538912 1.68361C 0.538912 1.88404 0.578837 2.06443 0.618757 2.22478C 0.658677 2.38512 0.738511 2.50538 0.838311 2.60559C 0.93811 2.70581 1.0379 2.78598 1.15766 2.82607C 1.27742 2.8862 1.41716 2.90624 1.57684 2.90624C 1.71656 2.90624 1.8363 2.8862 1.95606 2.86615C 2.05586 2.82607 2.15566 2.78598 2.2355 2.76594C 2.31534 2.72585 2.37522 2.68577 2.4351 2.66572C 2.47502 2.62564 2.53492 2.60559 2.57484 2.60559C 2.61476 2.60559 2.65467 2.62564 2.69459 2.66572L 2.85426 2.88619C 2.77442 2.96636 2.69459 3.04654 2.59479 3.10667C 2.49499 3.1668 2.3952 3.22693 2.27544 3.26701C 2.15568 3.3071 2.03591 3.34719 1.91615 3.36723C 1.79639 3.38727 1.67662 3.40731 1.55686 3.40731C 1.3373 3.40731 1.11775 3.36723 0.93811 3.28705C 0.738511 3.20688 0.578832 3.10667 0.439113 2.94633C 0.299394 2.80602 0.199599 2.60559 0.119759 2.38512C 0.0399198 2.16464 4.87302e-06 1.92413 4.87302e-06 1.62348C 4.87302e-06 1.40301 0.0399247 1.18254 0.0998044 0.982106C 0.179644 0.781675 0.279443 0.601293 0.399203 0.460992C 0.538922 0.320691 0.698606 0.20043 0.878245 0.120258C 1.03792 0.040086 1.25748 -1.22333e-06 1.497 -1.22333e-06ZM 1.497 0.420903C 1.21756 0.420903 0.99799 0.501078 0.838311 0.661422C 0.678632 0.821766 0.578832 1.04224 0.538912 1.34288L 2.31535 1.34288C 2.31535 1.20258 2.29538 1.08232 2.25546 0.982106C 2.21554 0.861847 2.15567 0.781677 2.09579 0.701504C 2.01595 0.621332 1.93611 0.561205 1.83631 0.521119C 1.75647 0.440946 1.63672 0.420903 1.497 0.420903Z"/>
<path id="path41_fill" d="M 2.0958 0.581246C 2.07584 0.621332 2.0359 0.661417 1.97602 0.661417C 1.9361 0.661417 1.91614 0.641378 1.87622 0.621335C 1.8363 0.601292 1.77644 0.561207 1.71656 0.541164C 1.65668 0.521121 1.57684 0.48103 1.497 0.460987C 1.41716 0.440944 1.31736 0.420905 1.1976 0.420905C 1.0978 0.420905 1.01795 0.440944 0.938115 0.460987C 0.858276 0.48103 0.798396 0.521116 0.738516 0.561202C 0.678636 0.601288 0.638722 0.661421 0.618762 0.72155C 0.598802 0.781679 0.578827 0.841807 0.578827 0.901936C 0.578827 0.982108 0.598792 1.06228 0.658672 1.12241C 0.698592 1.18254 0.778431 1.22262 0.858271 1.26271C 0.93811 1.30279 1.03791 1.34288 1.13771 1.36292C 1.23751 1.40301 1.33731 1.42305 1.45707 1.46314C 1.55687 1.50322 1.67662 1.54331 1.77642 1.5834C 1.87622 1.62348 1.97602 1.68362 2.05586 1.74375C 2.1357 1.80387 2.19558 1.88404 2.25546 1.98426C 2.29538 2.08447 2.33531 2.18469 2.33531 2.32499C 2.33531 2.48534 2.31534 2.62564 2.25546 2.7459C 2.19558 2.86615 2.11575 2.98641 2.01595 3.08662C 1.91615 3.18684 1.77643 3.24697 1.63671 3.3071C 1.47703 3.36723 1.2974 3.38727 1.0978 3.38727C 0.878245 3.38727 0.658667 3.34718 0.479028 3.26701C 0.299389 3.18684 0.139729 3.08662 9.74604e-06 2.98641L 0.139719 2.76593C 0.159679 2.74589 0.179649 2.72585 0.199609 2.70581C 0.219569 2.68577 0.259488 2.68576 0.299408 2.68576C 0.339328 2.68576 0.379243 2.70581 0.419163 2.72585C 0.459083 2.76594 0.518948 2.78598 0.578827 2.82607C 0.638707 2.86615 0.718566 2.90624 0.798406 2.92628C 0.878245 2.96637 0.998 2.96636 1.11776 2.96636C 1.23752 2.96636 1.33732 2.94633 1.41716 2.92628C 1.497 2.90624 1.57683 2.86615 1.63671 2.80602C 1.69659 2.76594 1.73651 2.70581 1.75647 2.62564C 1.77643 2.56551 1.7964 2.48534 1.7964 2.42521C 1.7964 2.32499 1.77644 2.26486 1.71656 2.20473C 1.67664 2.1446 1.5968 2.10452 1.51696 2.04439C 1.43712 2.0043 1.33731 1.96422 1.23751 1.92413C 1.13771 1.88405 1.03792 1.864 0.91816 1.82392C 0.818361 1.78383 0.698606 1.74374 0.598807 1.70366C 0.499007 1.66357 0.399203 1.60344 0.319363 1.54332C 0.239524 1.48319 0.179644 1.40301 0.119764 1.3028C 0.0798445 1.20258 0.0399198 1.08233 0.0399198 0.942024C 0.0399198 0.821766 0.0598846 0.701505 0.119764 0.581246C 0.179644 0.460988 0.239519 0.360773 0.339318 0.280601C 0.439118 0.200429 0.558887 0.120257 0.698606 0.0801709C 0.838325 0.0200418 1.01796 2.27863e-14 1.1976 2.27863e-14C 1.41716 2.27863e-14 1.61674 0.040086 1.77642 0.100215C 1.95606 0.160344 2.09579 0.260558 2.21555 0.380816L 2.0958 0.581246Z"/>
<path id="path42_fill" d="M 13.1948 25.796L 2.51622 15.0931C 2.31662 14.8926 2.1769 14.6321 2.13698 14.3515L 0.00127222 0.241177C -0.0186877 0.0407464 0.200871 -0.0795105 0.34059 0.0607906L 13.1748 12.9485C 13.3944 13.1689 13.5141 13.4696 13.5341 13.7903L 13.5341 25.6557C 13.5341 25.8361 13.3145 25.9363 13.1948 25.796Z"/>
<path id="path43_fill" d="M 0.359278 25.796L 11.0179 15.0931C 11.2175 14.8926 11.3572 14.6321 11.3971 14.3515L 13.5328 0.241177C 13.5528 0.0407464 13.3332 -0.0795105 13.1935 0.0607906L 0.359278 12.9485C 0.139719 13.1689 0.0199587 13.4696 -1.21826e-06 13.7903L -1.21826e-06 25.6557C 0.0199587 25.8361 0.239518 25.9363 0.359278 25.796Z"/>
<path id="path44_fill" d="M 6.4221 0.0751601C 6.3223 -0.025055 6.16262 -0.025055 6.08278 0.0751601L 0.0748502 6.18828C -0.0249493 6.2885 -0.0249493 6.4288 0.0748502 6.52902L 0.733527 7.19043L 10.6536 4.30424L 6.4221 0.0751601Z"/>
<path id="path45_fill" d="M 12.7743 3.4474C 12.7743 3.08663 12.6346 2.74589 12.3751 2.48533L 9.90011 0L 0 2.88619L 12.3751 15.3129C 12.5348 15.4732 12.7943 15.353 12.7943 15.1325L 12.7743 3.4474Z"/>
</defs>
</svg>
