<svg width="438" height="80" viewBox="0 0 438 80" version="1.1" xmlns="http://www.w3.org/2000/svg" xmlns:xlink="http://www.w3.org/1999/xlink">
<title>SimpleChurchTools-dark-logo</title>
<desc>Created using Figma</desc>
<g id="Canvas" transform="translate(-1377 -1783)">
<g id="SimpleChurchTools-dark-logo">
<g id="Group 2">
<g id="Vector">
<use xlink:href="#path0_fill" transform="translate(1450.05 1806.01)" fill="#041A38"/>
</g>
<g id="Vector">
<use xlink:href="#path1_fill" transform="translate(1474.88 1805.77)" fill="#041A38"/>
</g>
<g id="Vector">
<use xlink:href="#path2_fill" transform="translate(1486.02 1815.59)" fill="#041A38"/>
</g>
<g id="Vector">
<use xlink:href="#path3_fill" transform="translate(1521.75 1815.59)" fill="#041A38"/>
</g>
<g id="Vector">
<use xlink:href="#path4_fill" transform="translate(1546.02 1805.45)" fill="#041A38"/>
</g>
<g id="Vector">
<use xlink:href="#path5_fill" transform="translate(1554.76 1815.63)" fill="#041A38"/>
</g>
<g id="Vector">
<use xlink:href="#path6_fill" transform="translate(1578.55 1805.73)" fill="#041A38"/>
</g>
<g id="Vector">
<use xlink:href="#path7_fill" transform="translate(1609.81 1805.17)" fill="#041A38"/>
</g>
<g id="Vector">
<use xlink:href="#path8_fill" transform="translate(1634.28 1815.67)" fill="#041A38"/>
</g>
<g id="Vector">
<use xlink:href="#path9_fill" transform="translate(1659.79 1815.23)" fill="#041A38"/>
</g>
<g id="Vector">
<use xlink:href="#path10_fill" transform="translate(1675.96 1815.39)" fill="#041A38"/>
</g>
<g id="Vector">
<use xlink:href="#path11_fill" transform="translate(1698.31 1805.17)" fill="#041A38"/>
</g>
<g id="Vector">
<use xlink:href="#path12_fill" transform="translate(1717 1806.37)" fill="#041A38"/>
</g>
<g id="Vector">
<use xlink:href="#path13_fill" transform="translate(1739.19 1815.63)" fill="#041A38"/>
</g>
<g id="Vector">
<use xlink:href="#path14_fill" transform="translate(1763.62 1815.63)" fill="#041A38"/>
</g>
<g id="Vector">
<use xlink:href="#path15_fill" transform="translate(1790.13 1805.45)" fill="#041A38"/>
</g>
<g id="Vector">
<use xlink:href="#path16_fill" transform="translate(1798.55 1815.67)" fill="#041A38"/>
</g>
</g>
<g id="Group 2">
<g id="Vector">
<use xlink:href="#path17_fill" transform="translate(1635.76 1847.26)" fill="#041A38"/>
</g>
<g id="Vector">
<use xlink:href="#path18_fill" transform="translate(1642.07 1844.41)" fill="#041A38"/>
</g>
<g id="Vector">
<use xlink:href="#path19_fill" transform="translate(1645.98 1847.26)" fill="#041A38"/>
</g>
<g id="Vector">
<use xlink:href="#path20_fill" transform="translate(1657 1847.18)" fill="#041A38"/>
</g>
<g id="Vector">
<use xlink:href="#path21_fill" transform="translate(1664.66 1844.33)" fill="#041A38"/>
</g>
<g id="Vector">
<use xlink:href="#path22_fill" transform="translate(1667.74 1847.22)" fill="#041A38"/>
</g>
<g id="Vector">
<use xlink:href="#path23_fill" transform="translate(1677.63 1845.13)" fill="#041A38"/>
</g>
<g id="Vector">
<use xlink:href="#path24_fill" transform="translate(1683.03 1847.22)" fill="#041A38"/>
</g>
<g id="Vector">
<use xlink:href="#path25_fill" transform="translate(1690.61 1847.22)" fill="#041A38"/>
</g>
<g id="Vector">
<use xlink:href="#path26_fill" transform="translate(1698.83 1844.33)" fill="#041A38"/>
</g>
<g id="Vector">
<use xlink:href="#path27_fill" transform="translate(1701.87 1847.26)" fill="#041A38"/>
</g>
<g id="Vector">
<use xlink:href="#path28_fill" transform="translate(1710.65 1845.13)" fill="#041A38"/>
</g>
<g id="Vector">
<use xlink:href="#path29_fill" transform="translate(1715.96 1847.22)" fill="#041A38"/>
</g>
<g id="Vector">
<use xlink:href="#path30_fill" transform="translate(1726.98 1844.33)" fill="#041A38"/>
</g>
<g id="Vector">
<use xlink:href="#path31_fill" transform="translate(1734.16 1847.22)" fill="#041A38"/>
</g>
<g id="Vector">
<use xlink:href="#path32_fill" transform="translate(1741.87 1844.33)" fill="#041A38"/>
</g>
<g id="Vector">
<use xlink:href="#path33_fill" transform="translate(1745.46 1847.18)" fill="#041A38"/>
</g>
<g id="Vector">
<use xlink:href="#path34_fill" transform="translate(1755.4 1847.18)" fill="#041A38"/>
</g>
<g id="Vector">
<use xlink:href="#path35_fill" transform="translate(1762.35 1844.33)" fill="#041A38"/>
</g>
<g id="Vector">
<use xlink:href="#path36_fill" transform="translate(1769.85 1847.3)" fill="#041A38"/>
</g>
<g id="Vector">
<use xlink:href="#path37_fill" transform="translate(1777.52 1847.22)" fill="#041A38"/>
</g>
<g id="Vector">
<use xlink:href="#path38_fill" transform="translate(1782.62 1847.18)" fill="#041A38"/>
</g>
<g id="Vector">
<use xlink:href="#path39_fill" transform="translate(1789.57 1844.33)" fill="#041A38"/>
</g>
<g id="Vector">
<use xlink:href="#path40_fill" transform="translate(1796.76 1847.22)" fill="#041A38"/>
</g>
<g id="Vector">
<use xlink:href="#path41_fill" transform="translate(1803.9 1847.26)" fill="#041A38"/>
</g>
</g>
<g id="Vector">
<use xlink:href="#path42_fill" transform="translate(1405.9 1783)" fill="#3678FF"/>
</g>
<g id="Vector">
<use xlink:href="#path43_fill" transform="translate(1377 1783)" fill="#24D783"/>
</g>
<g id="Group">
<g id="Vector">
<use xlink:href="#path44_fill" transform="translate(1378.81 1823.62)" fill="#FFC203"/>
</g>
<g id="Vector">
<use xlink:href="#path45_fill" transform="translate(1380.23 1832.23)" fill="#FFD504"/>
</g>
</g>
</g>
</g>
<defs>
<path id="path0_fill" d="M 19.3611 5.49178C 19.2413 5.7323 19.0817 5.89265 18.922 6.01291C 18.7623 6.13317 18.5627 6.17325 18.3232 6.17325C 18.0837 6.17325 17.7643 6.05299 17.405 5.77239C 17.0458 5.53187 16.6466 5.21118 16.0877 4.93058C 15.5687 4.60989 14.93 4.32929 14.2114 4.08877C 13.4929 3.84826 12.5747 3.68791 11.5368 3.68791C 10.5388 3.68791 9.66059 3.80817 8.90212 4.08877C 8.14364 4.36937 7.50492 4.73015 6.98596 5.1711C 6.467 5.61205 6.10773 6.17325 5.82829 6.77454C 5.58877 7.37583 5.42909 8.05729 5.42909 8.77884C 5.42909 9.70082 5.66862 10.4625 6.10773 11.0638C 6.54685 11.665 7.14565 12.1862 7.90412 12.6271C 8.62268 13.0681 9.46099 13.4288 10.4191 13.7495C 11.3372 14.0702 12.2953 14.3909 13.2933 14.7116C 14.2913 15.0323 15.2494 15.4331 16.1675 15.834C 17.0857 16.2349 17.924 16.7961 18.6825 17.4374C 19.401 18.0788 19.9998 18.8805 20.4789 19.8025C 20.918 20.7245 21.1575 21.887 21.1575 23.2499C 21.1575 24.693 20.918 26.0158 20.4389 27.2986C 19.9599 28.5413 19.2413 29.6637 18.3232 30.5856C 17.405 31.5076 16.2474 32.2292 14.8901 32.7904C 13.5328 33.3115 11.9759 33.5921 10.2594 33.5921C 8.14364 33.5921 6.22749 33.1912 4.47102 32.4296C 2.71455 31.668 1.23751 30.6257 -2.43651e-06 29.3029L 1.27744 27.1783C 1.3972 27.018 1.55688 26.8576 1.71656 26.7374C 1.87624 26.6171 2.07583 26.577 2.31535 26.577C 2.63471 26.577 2.99398 26.7374 3.39318 27.0982C 3.79238 27.4589 4.31133 27.8197 4.95005 28.2206C 5.58877 28.6214 6.30732 29.0223 7.18556 29.343C 8.0638 29.7038 9.14163 29.8641 10.3791 29.8641C 11.4171 29.8641 12.3751 29.7038 13.1735 29.4232C 14.0118 29.1426 14.6905 28.7417 15.2494 28.1805C 15.8082 27.6193 16.2474 27.018 16.5667 26.2965C 16.8861 25.5749 17.0058 24.7331 17.0058 23.8512C 17.0058 22.849 16.7663 22.0473 16.3272 21.4059C 15.8881 20.7646 15.2893 20.2435 14.5707 19.8025C 13.8522 19.3616 13.0139 19.0008 12.0957 18.7202C 11.1775 18.4396 10.2195 18.1189 9.22147 17.7982C 8.22348 17.4775 7.30532 17.1167 6.34724 16.7159C 5.42909 16.315 4.59078 15.7538 3.8323 15.1124C 3.11374 14.4711 2.51495 13.6293 2.07583 12.6672C 1.63671 11.665 1.39719 10.4625 1.39719 9.01936C 1.39719 7.85687 1.63671 6.73446 2.07583 5.65214C 2.51495 4.56981 3.15366 3.60774 4.0319 2.76594C 4.87021 1.92413 5.94805 1.24267 7.18556 0.761635C 8.42307 0.240516 9.86019 2.44666e-06 11.4969 2.44666e-06C 13.3332 2.44666e-06 14.9699 0.280597 16.4869 0.881888C 18.0038 1.44309 19.3212 2.28491 20.4389 3.40732L 19.3611 5.49178Z"/>
<path id="path1_fill" d="M 5.82829 2.92628C 5.82829 3.32714 5.74845 3.68792 5.58877 4.04869C 5.42909 4.40947 5.22949 4.69006 4.95005 4.97067C 4.67062 5.25127 4.39118 5.4517 4.0319 5.61205C 3.67263 5.77239 3.31334 5.85256 2.91414 5.85256C 2.51494 5.85256 2.15567 5.77239 1.79639 5.61205C 1.43711 5.4517 1.15767 5.25127 0.878231 4.97067C 0.598792 4.69006 0.399203 4.40947 0.239524 4.04869C 0.0798444 3.68792 2.43651e-06 3.32714 2.43651e-06 2.92628C 2.43651e-06 2.52542 0.0798444 2.16465 0.239524 1.80387C 0.399203 1.4431 0.598792 1.12241 0.878231 0.881898C 1.15767 0.601296 1.43711 0.400863 1.79639 0.240519C 2.15567 0.0801745 2.51494 2.27863e-14 2.91414 2.27863e-14C 3.31334 2.27863e-14 3.67263 0.0801745 4.0319 0.240519C 4.39118 0.400863 4.67062 0.601296 4.95005 0.881898C 5.22949 1.1625 5.42909 1.4431 5.58877 1.80387C 5.74845 2.16465 5.82829 2.52542 5.82829 2.92628ZM 4.91013 10.2219L 4.91013 33.3917L 0.838321 33.3917L 0.838321 10.2219L 4.91013 10.2219Z"/>
<path id="path2_fill" d="M 0 23.5706L 0 0.40086L 2.43511 0.40086C 2.99399 0.40086 3.39318 0.681465 3.51294 1.24267L 3.79238 3.60774C 4.6307 2.56551 5.58878 1.68361 6.66661 1.00215C 7.70452 0.320688 8.94203 0 10.3392 0C 11.8961 0 13.1735 0.440942 14.1316 1.32283C 15.0897 2.20473 15.8082 3.36723 16.2074 4.85041C 16.5268 4.00861 16.9659 3.28706 17.4849 2.68577C 18.0038 2.08448 18.6026 1.56335 19.2413 1.16249C 19.8801 0.761632 20.5986 0.481037 21.3172 0.280607C 22.0357 0.080177 22.7942 0 23.5527 0C 24.7503 0 25.868 0.20043 26.7862 0.601291C 27.7443 1.00215 28.5427 1.56336 29.1814 2.28491C 29.86 3.04654 30.339 3.96852 30.6983 5.05084C 31.0576 6.13317 31.2173 7.37583 31.2173 8.77884L 31.2173 23.5305L 27.1455 23.5305L 27.1455 8.81893C 27.1455 7.01506 26.7463 5.61205 25.9479 4.69007C 25.1495 3.76809 24.0317 3.28706 22.5148 3.28706C 21.8361 3.28706 21.1974 3.40732 20.5986 3.64783C 19.9998 3.88835 19.4809 4.24913 19.0018 4.69007C 18.5627 5.13102 18.2034 5.7323 17.924 6.41377C 17.6445 7.09523 17.5248 7.89695 17.5248 8.81893L 17.5248 23.5706L 13.5727 23.5706L 13.5727 8.81893C 13.5727 6.97497 13.2135 5.57196 12.455 4.64998C 11.6965 3.728 10.6187 3.28706 9.18155 3.28706C 8.18356 3.28706 7.2654 3.56766 6.38717 4.08878C 5.54885 4.64999 4.75046 5.37154 4.0319 6.29351L 4.0319 23.5706L 0 23.5706L 0 23.5706Z"/>
<path id="path3_fill" d="M 0 31.4275L 0 0.40086L 2.43511 0.40086C 2.99399 0.40086 3.39318 0.681465 3.51294 1.24267L 3.87222 3.96852C 4.87022 2.76593 5.98797 1.80388 7.26541 1.08233C 8.54284 0.360779 9.97995 -2.27863e-14 11.6566 -2.27863e-14C 12.9739 -2.27863e-14 14.1715 0.240514 15.2494 0.761632C 16.3272 1.28275 17.2453 2.04439 18.0038 3.04654C 18.7623 4.04869 19.3611 5.29136 19.7603 6.77454C 20.1595 8.25772 20.3591 9.94134 20.3591 11.8655C 20.3591 13.5892 20.1196 15.1525 19.6805 16.6357C 19.2413 18.1189 18.5627 19.3616 17.7244 20.4439C 16.8861 21.5262 15.8481 22.368 14.6106 22.9693C 13.3731 23.5706 11.9759 23.8913 10.4191 23.8913C 8.98194 23.8913 7.78437 23.6508 6.74645 23.1697C 5.74846 22.6887 4.8303 22.0072 4.07182 21.1654L 4.07182 31.4275L 0 31.4275L 0 31.4275ZM 10.2594 3.28706C 8.94204 3.28706 7.78436 3.60774 6.78636 4.20903C 5.78837 4.81033 4.87022 5.69222 4.0319 6.77454L 4.0319 17.9986C 4.79038 19.0008 5.58878 19.7223 6.46701 20.1232C 7.34525 20.5241 8.34324 20.7245 9.461 20.7245C 11.6167 20.7245 13.2534 19.9628 14.411 18.3995C 15.5687 16.8762 16.1276 14.6715 16.1276 11.8254C 16.1276 10.3021 16.0078 9.01935 15.7284 7.93703C 15.449 6.85471 15.0897 5.97283 14.5707 5.29136C 14.0518 4.6099 13.453 4.08877 12.7344 3.76809C 12.0159 3.4474 11.1775 3.28706 10.2594 3.28706Z"/>
<path id="path4_fill" d="M 4.07182 4.89332e-06L 4.07182 33.7124L -4.87302e-06 33.7124L -4.87302e-06 4.89332e-06L 4.07182 4.89332e-06L 4.07182 4.89332e-06Z"/>
<path id="path5_fill" d="M 10.6985 2.44666e-06C 12.0957 2.44666e-06 13.3731 0.240511 14.5308 0.681458C 15.6885 1.16249 16.7264 1.80387 17.5647 2.68576C 18.403 3.56765 19.0817 4.64998 19.5607 5.93273C 20.0397 7.21549 20.2793 8.69867 20.2793 10.3422C 20.2793 10.9836 20.1994 11.4245 20.0797 11.625C 19.9599 11.8254 19.6804 11.9456 19.3212 11.9456L 3.95205 11.9456C 3.99197 13.4288 4.19157 14.6715 4.55085 15.7538C 4.91012 16.8361 5.4291 17.7581 6.06782 18.4797C 6.70653 19.2012 7.46499 19.7624 8.34323 20.1232C 9.22146 20.484 10.2195 20.6443 11.2973 20.6443C 12.3352 20.6443 13.1735 20.5241 13.932 20.2835C 14.6506 20.043 15.2893 19.8025 15.8482 19.5219C 16.3671 19.2413 16.8062 19.0008 17.1655 18.7603C 17.5248 18.5198 17.8441 18.3995 18.0837 18.3995C 18.403 18.3995 18.6825 18.5198 18.8422 18.8004L 19.9998 20.2835C 19.4809 20.8848 18.8821 21.406 18.2034 21.887C 17.5248 22.3279 16.7663 22.6887 15.9679 23.0094C 15.1695 23.29 14.3312 23.5305 13.4929 23.6508C 12.6546 23.8111 11.8163 23.8512 10.9779 23.8512C 9.38116 23.8512 7.90412 23.5706 6.58677 23.0495C 5.2295 22.4883 4.07182 21.7266 3.11374 20.6844C 2.11575 19.6422 1.35727 18.3594 0.838311 16.7961C 0.279434 15.2728 4.87302e-06 13.4689 4.87302e-06 11.5047C 4.87302e-06 9.90125 0.239509 8.37798 0.758466 6.97497C 1.2375 5.57196 1.95608 4.36938 2.87423 3.32714C 3.79239 2.2849 4.95006 1.48318 6.26742 0.881888C 7.54485 0.280597 9.02187 2.44666e-06 10.6985 2.44666e-06ZM 10.7783 2.96637C 8.82228 2.96637 7.26539 3.52757 6.14764 4.69006C 5.02988 5.81247 4.31135 7.41592 4.07183 9.42022L 16.6066 9.42022C 16.6066 8.45816 16.4869 7.61635 16.2074 6.81463C 15.9679 6.01291 15.5687 5.33144 15.0498 4.77024C 14.5308 4.20903 13.932 3.76809 13.2134 3.4474C 12.5348 3.12672 11.7364 2.96637 10.7783 2.96637Z"/>
<path id="path6_fill" d="M 24.5906 25.615C 24.91 25.615 25.2293 25.7352 25.4688 26.0158L 27.864 28.6615C 26.5466 30.305 24.87 31.5878 22.914 32.4697C 20.9579 33.3516 18.6026 33.7925 15.8881 33.7925C 13.453 33.7925 11.2574 33.3917 9.3013 32.5499C 7.34523 31.7081 5.6686 30.5456 4.31133 29.0624C 2.91413 27.5792 1.87622 25.7753 1.11774 23.6908C 0.399188 21.6064 -4.87302e-06 19.3616 -4.87302e-06 16.8762C -4.87302e-06 14.3909 0.399208 12.106 1.23752 10.0616C 2.07584 7.97712 3.19357 6.21334 4.71053 4.73016C 6.22748 3.24697 7.98396 2.08447 10.0598 1.24267C 12.1356 0.40086 14.411 -2.44666e-06 16.926 -2.44666e-06C 19.3611 -2.44666e-06 21.5168 0.400855 23.3531 1.16249C 25.1894 1.96421 26.7462 3.00646 28.0636 4.28921L 26.0277 7.13532C 25.9079 7.33575 25.7483 7.49609 25.5487 7.61635C 25.3491 7.7366 25.1095 7.81678 24.7503 7.81678C 24.391 7.81678 24.0317 7.69652 23.6724 7.41592C 23.3131 7.13531 22.8341 6.85472 22.2752 6.53403C 21.7164 6.21334 20.9978 5.93273 20.1595 5.65213C 19.2813 5.37153 18.2034 5.25127 16.8861 5.25127C 15.3292 5.25127 13.932 5.53187 12.6147 6.05299C 11.2973 6.6142 10.1795 7.37583 9.26139 8.37798C 8.34324 9.38013 7.58476 10.6228 7.0658 12.0659C 6.54685 13.509 6.26741 15.1124 6.26741 16.9163C 6.26741 18.7603 6.54685 20.4439 7.0658 21.887C 7.58476 23.3301 8.30331 24.5727 9.18155 25.5348C 10.0598 26.537 11.1376 27.2986 12.3352 27.8197C 13.5328 28.3408 14.8502 28.6214 16.2474 28.6214C 17.0857 28.6214 17.8442 28.5813 18.5228 28.5012C 19.2014 28.421 19.8401 28.2607 20.399 28.0602C 20.9579 27.8598 21.5168 27.6193 22.0357 27.2986C 22.5547 26.9779 23.0337 26.6171 23.5527 26.1361C 23.7124 26.0158 23.872 25.8956 24.0317 25.8154C 24.1914 25.6551 24.391 25.615 24.5906 25.615Z"/>
<path id="path7_fill" d="M -9.74604e-06 33.993L -9.74604e-06 0L 5.6287 0L 5.6287 13.0681C 6.54685 12.1862 7.54485 11.5047 8.62268 10.9435C 9.70051 10.4224 11.0179 10.1418 12.455 10.1418C 13.7324 10.1418 14.8502 10.3422 15.8482 10.7831C 16.8461 11.2241 17.6445 11.8254 18.3232 12.6271C 19.0018 13.4288 19.4809 14.3508 19.8401 15.4331C 20.1994 16.5154 20.3591 17.718 20.3591 19.0409L 20.3591 33.993L 14.7304 33.993L 14.7304 19.0409C 14.7304 17.5978 14.411 16.5155 13.7324 15.7137C 13.0538 14.912 12.0957 14.5512 10.7384 14.5512C 9.78035 14.5512 8.8622 14.7917 8.02388 15.2327C 7.18557 15.6736 6.38716 16.2749 5.58876 17.0366L 5.58876 33.993L -9.74604e-06 33.993L -9.74604e-06 33.993Z"/>
<path id="path8_fill" d="M 5.6686 4.89332e-06L 5.6686 14.912C 5.6686 16.3551 5.98796 17.4374 6.6666 18.2392C 7.34523 19.0409 8.30332 19.4016 9.62067 19.4016C 10.5787 19.4016 11.4969 19.2012 12.3352 18.7603C 13.1735 18.3193 13.9719 17.718 14.7703 16.9564L 14.7703 4.89332e-06L 20.399 4.89332e-06L 20.399 23.4904L 16.9659 23.4904C 16.2474 23.4904 15.7683 23.1297 15.5288 22.4482L 15.1296 20.5641C 14.6506 21.0452 14.1316 21.4861 13.6126 21.887C 13.0937 22.2878 12.5348 22.6486 11.9759 22.9292C 11.3772 23.2098 10.7783 23.4503 10.0997 23.6107C 9.42108 23.771 8.70252 23.8512 7.90412 23.8512C 6.62669 23.8512 5.50894 23.6508 4.51094 23.2098C 3.51295 22.7689 2.71455 22.1676 2.03591 21.3659C 1.35727 20.5641 0.87824 19.6422 0.518962 18.5598C 0.159684 17.4775 9.74604e-06 16.2749 9.74604e-06 14.9521L 9.74604e-06 0.0400811L 5.6686 0.0400811L 5.6686 4.89332e-06Z"/>
<path id="path9_fill" d="M -4.87302e-06 23.9314L -4.87302e-06 0.440951L 3.31333 0.440951C 3.87221 0.440951 4.31133 0.561205 4.51093 0.761635C 4.75045 0.962065 4.91014 1.32284 4.95006 1.84396L 5.30932 4.69006C 6.14764 3.24696 7.10572 2.08448 8.2634 1.24267C 9.38115 0.400865 10.6586 2.44666e-06 12.0558 2.44666e-06C 13.2135 2.44666e-06 14.1715 0.280605 14.93 0.801723L 14.2115 5.05085C 14.1715 5.33145 14.0518 5.53188 13.932 5.65214C 13.7723 5.77239 13.5727 5.81248 13.3332 5.81248C 13.0937 5.81248 12.7743 5.77239 12.4151 5.65214C 12.0159 5.53188 11.4969 5.49178 10.8582 5.49178C 9.70051 5.49178 8.70251 5.81248 7.8642 6.45386C 7.02588 7.09523 6.30733 8.05729 5.74845 9.29996L 5.74845 23.9314L -4.87302e-06 23.9314Z"/>
<path id="path10_fill" d="M 17.9639 5.25127C 17.8042 5.4517 17.6445 5.65213 17.4849 5.77239C 17.3252 5.89265 17.0857 5.97282 16.8062 5.97282C 16.5268 5.97282 16.2474 5.89265 15.9679 5.69222C 15.6885 5.53188 15.3691 5.33145 14.9699 5.09093C 14.5707 4.85042 14.1316 4.69007 13.6127 4.48964C 13.0937 4.3293 12.455 4.20903 11.6566 4.20903C 10.6586 4.20903 9.82027 4.36937 9.06179 4.73015C 8.30332 5.09092 7.70451 5.61205 7.18556 6.29351C 6.70652 6.97498 6.30733 7.77669 6.06781 8.73875C 5.82829 9.70082 5.70852 10.7831 5.70852 11.9857C 5.70852 13.2284 5.82828 14.3508 6.10772 15.3129C 6.38716 16.2749 6.74644 17.1167 7.2654 17.7581C 7.78436 18.3995 8.38315 18.9206 9.1017 19.2814C 9.82026 19.6422 10.6187 19.8025 11.4969 19.8025C 12.3751 19.8025 13.1336 19.6823 13.6925 19.4818C 14.2514 19.2814 14.7304 19.0008 15.0897 18.7603C 15.4889 18.4797 15.8082 18.2392 16.0877 18.0387C 16.3671 17.7982 16.6865 17.718 17.0458 17.718C 17.4849 17.718 17.8441 17.8784 18.0837 18.2392L 19.7204 20.2835C 19.0817 21.0051 18.403 21.6465 17.6845 22.1275C 16.9659 22.6085 16.2074 23.0094 15.409 23.3301C 14.6107 23.6107 13.8122 23.8512 12.9739 23.9714C 12.1356 24.0917 11.2973 24.1719 10.4989 24.1719C 9.06178 24.1719 7.70453 23.8913 6.4271 23.3702C 5.14966 22.809 4.0319 22.0473 3.07382 21.0051C 2.11575 19.9628 1.35728 18.6801 0.838325 17.1969C 0.279448 15.7137 -4.87302e-06 13.99 -4.87302e-06 12.0659C -4.87302e-06 10.3422 0.239524 8.73876 0.758481 7.25558C 1.23752 5.77239 1.99599 4.52973 2.95407 3.4474C 3.91214 2.36508 5.10972 1.52326 6.50692 0.921974C 7.90411 0.320683 9.54083 -6.83588e-14 11.3771 -6.83588e-14C 13.1336 -6.83588e-14 14.6506 0.280605 15.9679 0.841809C 17.2853 1.40301 18.4829 2.20474 19.5208 3.28706L 17.9639 5.25127Z"/>
<path id="path11_fill" d="M -4.87302e-06 33.993L -4.87302e-06 0L 5.6287 0L 5.6287 13.0681C 6.54686 12.1862 7.54485 11.5047 8.62269 10.9435C 9.70052 10.4224 11.0179 10.1418 12.455 10.1418C 13.7324 10.1418 14.8502 10.3422 15.8482 10.7831C 16.8462 11.2241 17.6446 11.8254 18.3232 12.6271C 19.0018 13.4288 19.4809 14.3508 19.8401 15.4331C 20.1994 16.5154 20.3591 17.718 20.3591 19.0409L 20.3591 33.993L 14.7304 33.993L 14.7304 19.0409C 14.7304 17.5978 14.4111 16.5155 13.7324 15.7137C 13.0538 14.912 12.0957 14.5512 10.7384 14.5512C 9.78035 14.5512 8.8622 14.7917 8.02389 15.2327C 7.18557 15.6736 6.34724 16.2749 5.58877 17.0366L 5.58877 33.993L -4.87302e-06 33.993L -4.87302e-06 33.993Z"/>
<path id="path12_fill" d="M 25.5487 0L 25.5487 3.728L 15.0098 3.728L 15.0098 32.7904L 10.5787 32.7904L 10.5787 3.728L -9.74604e-06 3.728L -9.74604e-06 0L 25.5487 0Z"/>
<path id="path13_fill" d="M 10.9779 2.44666e-06C 12.6546 2.44666e-06 14.1715 0.280607 15.5288 0.841812C 16.8861 1.40302 18.0438 2.20474 19.0018 3.24697C 19.9599 4.28921 20.6785 5.53188 21.1974 7.01506C 21.7164 8.49824 21.9559 10.1418 21.9559 11.9456C 21.9559 13.7896 21.7164 15.4331 21.1974 16.8762C 20.6785 18.3594 19.9599 19.6021 19.0018 20.6443C 18.0438 21.6866 16.8861 22.4883 15.5288 23.0495C 14.1715 23.6107 12.6546 23.8913 10.9779 23.8913C 9.30129 23.8913 7.78438 23.6107 6.42711 23.0495C 5.06983 22.4883 3.91213 21.6866 2.95406 20.6443C 1.99598 19.6021 1.27742 18.3594 0.758466 16.8762C 0.239509 15.393 -1.94921e-05 13.7495 -1.94921e-05 11.9456C -1.94921e-05 10.1418 0.239509 8.49824 0.758466 7.01506C 1.27742 5.53188 1.99598 4.28921 2.95406 3.24697C 3.91213 2.20474 5.06983 1.40302 6.42711 0.841812C 7.78438 0.280607 9.30129 2.44666e-06 10.9779 2.44666e-06ZM 10.9779 20.6844C 13.2534 20.6844 14.9699 19.9228 16.0877 18.3995C 17.2054 16.8762 17.7643 14.7116 17.7643 11.9857C 17.7643 9.21979 17.2054 7.05514 16.0877 5.53187C 14.9699 4.0086 13.2534 3.20689 10.9779 3.20689C 9.82025 3.20689 8.82225 3.40732 7.98394 3.80818C 7.14562 4.20904 6.4271 4.77024 5.86822 5.53187C 5.30934 6.29351 4.8702 7.21548 4.59076 8.29781C 4.31132 9.38013 4.15165 10.6228 4.15165 11.9857C 4.15165 13.3487 4.31132 14.5913 4.59076 15.6736C 4.8702 16.756 5.30934 17.6779 5.86822 18.3995C 6.4271 19.121 7.14562 19.7223 7.98394 20.0831C 8.82225 20.484 9.82025 20.6844 10.9779 20.6844Z"/>
<path id="path14_fill" d="M 10.978 2.44666e-06C 12.6546 2.44666e-06 14.1715 0.280607 15.5288 0.841812C 16.8861 1.40302 18.0437 2.20474 19.0018 3.24697C 19.9599 4.28921 20.6785 5.53188 21.1974 7.01506C 21.7164 8.49824 21.9559 10.1418 21.9559 11.9456C 21.9559 13.7896 21.7164 15.4331 21.1974 16.8762C 20.6785 18.3594 19.9599 19.6021 19.0018 20.6443C 18.0437 21.6866 16.8861 22.4883 15.5288 23.0495C 14.1715 23.6107 12.6546 23.8913 10.978 23.8913C 9.30132 23.8913 7.78436 23.6107 6.42709 23.0495C 5.06981 22.4883 3.91216 21.6866 2.95408 20.6443C 1.99601 19.6021 1.27745 18.3594 0.758496 16.8762C 0.239538 15.393 9.74604e-06 13.7495 9.74604e-06 11.9456C 9.74604e-06 10.1418 0.239538 8.49824 0.758496 7.01506C 1.27745 5.53188 1.99601 4.28921 2.95408 3.24697C 3.91216 2.20474 5.06981 1.40302 6.42709 0.841812C 7.78436 0.280607 9.30132 2.44666e-06 10.978 2.44666e-06ZM 10.978 20.6844C 13.2534 20.6844 14.9699 19.9228 16.0877 18.3995C 17.2054 16.8762 17.7643 14.7116 17.7643 11.9857C 17.7643 9.21979 17.2054 7.05514 16.0877 5.53187C 14.9699 4.0086 13.2534 3.20689 10.978 3.20689C 9.82028 3.20689 8.82228 3.40732 7.98397 3.80818C 7.14565 4.20904 6.42708 4.77024 5.8682 5.53187C 5.30932 6.29351 4.87022 7.21548 4.59079 8.29781C 4.31135 9.38013 4.15168 10.6228 4.15168 11.9857C 4.15168 13.3487 4.31135 14.5913 4.59079 15.6736C 4.87022 16.756 5.30932 17.6779 5.8682 18.3995C 6.42708 19.121 7.14565 19.7223 7.98397 20.0831C 8.82228 20.484 9.82028 20.6844 10.978 20.6844Z"/>
<path id="path15_fill" d="M 4.07182 4.89332e-06L 4.07182 33.7124L 1.94921e-05 33.7124L 1.94921e-05 4.89332e-06L 4.07182 4.89332e-06L 4.07182 4.89332e-06Z"/>
<path id="path16_fill" d="M 15.0897 4.12886C 14.8901 4.44955 14.6106 4.64998 14.2514 4.64998C 14.0118 4.64998 13.7723 4.56981 13.4929 4.40947C 13.2134 4.24913 12.8542 4.04869 12.4151 3.84826C 12.0159 3.64783 11.4969 3.4474 10.938 3.28705C 10.3392 3.12671 9.66057 3.00646 8.90209 3.00646C 8.22346 3.00646 7.58475 3.08662 7.06579 3.28705C 6.50692 3.4474 6.0678 3.68792 5.6686 4.00861C 5.2694 4.3293 4.98998 4.64998 4.79038 5.09093C 4.59079 5.49179 4.47101 5.93274 4.47101 6.41377C 4.47101 7.01506 4.63071 7.49609 4.98998 7.89695C 5.34926 8.29781 5.78839 8.6185 6.34727 8.93919C 6.90614 9.21979 7.54483 9.50039 8.26339 9.70082C 8.98194 9.94134 9.7005 10.1418 10.459 10.4224C 11.2175 10.6629 11.936 10.9435 12.6546 11.2642C 13.3731 11.5849 14.0119 11.9456 14.5707 12.4267C 15.1296 12.8676 15.5687 13.4288 15.928 14.1103C 16.2873 14.7917 16.4469 15.5534 16.4469 16.5154C 16.4469 17.5978 16.2473 18.5598 15.8881 19.4818C 15.4889 20.4038 14.93 21.1654 14.2114 21.8469C 13.453 22.5284 12.5348 23.0495 11.457 23.4103C 10.3791 23.8111 9.14161 23.9715 7.7045 23.9715C 6.10771 23.9715 4.63068 23.6909 3.31332 23.1697C 1.99597 22.6486 0.878245 21.9671 9.74604e-06 21.1253L 0.958094 19.562C 1.07785 19.3616 1.23752 19.2012 1.3972 19.121C 1.55688 19.0008 1.79638 18.9607 2.07582 18.9607C 2.35526 18.9607 2.63473 19.081 2.95408 19.2814C 3.27344 19.4818 3.63269 19.7223 4.07181 20.0029C 4.51093 20.2435 5.02989 20.484 5.62869 20.7245C 6.22749 20.9249 7.0259 21.0452 7.94406 21.0452C 8.74245 21.0452 9.42107 20.9249 10.0199 20.7245C 10.6187 20.5241 11.0977 20.2434 11.4969 19.8827C 11.8961 19.5219 12.1755 19.121 12.3751 18.6801C 12.5747 18.2391 12.6546 17.718 12.6546 17.1969C 12.6546 16.5555 12.4949 16.0344 12.1356 15.5935C 11.7764 15.1926 11.3372 14.8318 10.7784 14.5111C 10.2195 14.2305 9.58074 13.9499 8.86218 13.7495C 8.14363 13.509 7.38515 13.3086 6.6666 13.068C 5.90812 12.8275 5.18956 12.5469 4.47101 12.2262C 3.75245 11.9056 3.11376 11.5047 2.55489 11.0637C 1.99601 10.5827 1.55688 10.0215 1.1976 9.29996C 0.838325 8.6185 0.678627 7.77669 0.678627 6.77454C 0.678627 5.89265 0.878235 5.05085 1.23751 4.20904C 1.59679 3.40732 2.11575 2.68576 2.83431 2.04438C 3.55286 1.40301 4.39118 0.921981 5.42909 0.561207C 6.42709 0.200433 7.62466 4.89332e-06 8.90209 4.89332e-06C 10.419 4.89332e-06 11.7763 0.240516 12.9739 0.721549C 14.1715 1.20258 15.2094 1.84396 16.0877 2.68576L 15.0897 4.12886Z"/>
<path id="path17_fill" d="M 4.2315 1.16249C 4.19158 1.24266 4.11173 1.32283 3.99197 1.32283C 3.91213 1.32283 3.87222 1.28276 3.75246 1.24267C 3.67262 1.20258 3.55287 1.12241 3.43311 1.08233C 3.31335 1.04224 3.15365 0.96206 2.99397 0.921974C 2.8343 0.881888 2.6347 0.841809 2.39518 0.841809C 2.19558 0.841809 2.0359 0.881888 1.87623 0.921974C 1.71655 0.96206 1.59679 1.04223 1.47703 1.1224C 1.35727 1.20258 1.27744 1.32284 1.23752 1.4431C 1.1976 1.56336 1.15767 1.68361 1.15767 1.80387C 1.15767 1.96422 1.1976 2.12456 1.31736 2.24482C 1.3972 2.36508 1.55688 2.44524 1.71656 2.52542C 1.87624 2.60559 2.07582 2.68576 2.27542 2.72585C 2.47502 2.80602 2.67464 2.8461 2.91415 2.92628C 3.11375 3.00645 3.35326 3.08662 3.55286 3.1668C 3.75246 3.24697 3.95207 3.36723 4.11175 3.48749C 4.27143 3.60775 4.39119 3.76809 4.51095 3.96852C 4.59079 4.16895 4.67061 4.36938 4.67061 4.64998C 4.67061 4.97067 4.63071 5.25128 4.51095 5.49179C 4.39119 5.73231 4.2315 5.97282 4.0319 6.17325C 3.8323 6.37368 3.55286 6.49394 3.27342 6.6142C 2.95406 6.73446 2.59478 6.77454 2.19558 6.77454C 1.75646 6.77454 1.31735 6.69436 0.958075 6.53402C 0.598797 6.37368 0.279429 6.17325 -9.74604e-06 5.97282L 0.279434 5.53187C 0.319353 5.49178 0.359268 5.4517 0.399188 5.41162C 0.439108 5.37153 0.518948 5.37153 0.598787 5.37153C 0.678627 5.37153 0.758481 5.41162 0.838321 5.4517C 0.91816 5.53188 1.03791 5.57196 1.15767 5.65213C 1.27743 5.73231 1.4371 5.81248 1.59678 5.85256C 1.75646 5.93274 1.99599 5.93273 2.23551 5.93273C 2.47503 5.93273 2.67463 5.89265 2.83431 5.85256C 2.99399 5.81248 3.15366 5.7323 3.27342 5.61205C 3.39318 5.53187 3.47303 5.41162 3.51295 5.25127C 3.55287 5.13102 3.59277 4.97067 3.59277 4.85041C 3.59277 4.64998 3.55287 4.52972 3.43311 4.40946C 3.35327 4.28921 3.19359 4.20904 3.03391 4.08878C 2.87423 4.00861 2.67462 3.92843 2.47502 3.84826C 2.27542 3.76809 2.07583 3.728 1.83632 3.64783C 1.63672 3.56766 1.39718 3.48749 1.19758 3.40731C 0.997985 3.32714 0.798401 3.20689 0.638722 3.08663C 0.479042 2.96637 0.359283 2.80602 0.239524 2.60559C 0.159684 2.40516 0.0798347 2.16465 0.0798347 1.88405C 0.0798347 1.64353 0.119764 1.40301 0.239524 1.16249C 0.359283 0.921977 0.479033 0.721546 0.678632 0.561202C 0.878231 0.400858 1.11774 0.240514 1.39718 0.160342C 1.67662 0.0400836 1.99598 4.55726e-14 2.39518 4.55726e-14C 2.8343 4.55726e-14 3.2335 0.0801721 3.55286 0.20043C 3.91214 0.320688 4.19158 0.521116 4.4311 0.761632L 4.2315 1.16249Z"/>
<path id="path18_fill" d="M 1.71656 0.841807C 1.71656 0.962065 1.67663 1.04223 1.63671 1.16249C 1.59679 1.24266 1.51695 1.36292 1.43711 1.40301C 1.35727 1.48318 1.27743 1.52326 1.15767 1.56335C 1.07783 1.60344 0.958075 1.64353 0.838316 1.64353C 0.718556 1.64353 0.638722 1.60344 0.518962 1.56335C 0.439123 1.52326 0.319349 1.4431 0.279429 1.40301C 0.199589 1.32284 0.159669 1.24266 0.0798298 1.16249C 0.03991 1.08232 9.74604e-06 0.962065 9.74604e-06 0.841807C 9.74604e-06 0.721549 0.03991 0.641382 0.0798298 0.521123C 0.11975 0.400865 0.199589 0.320688 0.279429 0.240516C 0.359268 0.160344 0.439123 0.120261 0.518962 0.0801745C 0.598802 0.0400885 0.718556 -2.44666e-06 0.838316 -2.44666e-06C 0.958075 -2.44666e-06 1.03791 0.0400885 1.15767 0.0801745C 1.23751 0.120261 1.35727 0.20043 1.43711 0.240516C 1.51695 0.320688 1.55687 0.400865 1.63671 0.521123C 1.71655 0.641382 1.71656 0.721549 1.71656 0.841807ZM 1.47702 2.92629L 1.47702 9.5004L 0.319363 9.5004L 0.319363 2.92629L 1.47702 2.92629Z"/>
<path id="path19_fill" d="M 4.87302e-06 6.65429L 4.87302e-06 0.080177L 0.678646 0.080177C 0.838325 0.080177 0.95808 0.160339 0.998 0.320683L 1.07784 1.00215C 1.31736 0.721549 1.5968 0.440951 1.87624 0.280607C 2.1956 0.080177 2.51495 0 2.91415 0C 3.35326 0 3.71255 0.120256 3.99198 0.360772C 4.27142 0.601288 4.47102 0.921977 4.59078 1.36292C 4.67062 1.12241 4.79037 0.921977 4.95004 0.761632C 5.10972 0.601288 5.26942 0.440942 5.46902 0.320683C 5.66862 0.200425 5.86822 0.120263 6.06782 0.080177C 6.26742 0.0400909 6.50693 0 6.70653 0C 7.0658 0 7.34524 0.0400836 7.62468 0.160342C 7.90411 0.2806 8.10372 0.440949 8.30332 0.641379C 8.50292 0.841809 8.62267 1.12241 8.74242 1.4431C 8.82226 1.76379 8.90211 2.12456 8.90211 2.52542L 8.90211 6.73445L 7.70452 6.73445L 7.70452 2.52542C 7.70452 2.0043 7.58477 1.60344 7.38517 1.36292C 7.14565 1.08232 6.82628 0.962063 6.42708 0.962063C 6.22748 0.962063 6.06782 1.00215 5.86822 1.04224C 5.70854 1.12241 5.54885 1.20258 5.42909 1.32283C 5.30933 1.44309 5.18957 1.60344 5.10973 1.80387C 5.02989 2.0043 4.98998 2.24482 4.98998 2.48534L 4.98998 6.69437L 3.8323 6.69437L 3.8323 2.48534C 3.8323 1.96422 3.71254 1.56336 3.51294 1.28276C 3.31334 1.04224 2.99399 0.881898 2.59479 0.881898C 2.31535 0.881898 2.03591 0.96206 1.7964 1.1224C 1.55688 1.28275 1.31735 1.48318 1.11775 1.76378L 1.11775 6.65429L 4.87302e-06 6.65429L 4.87302e-06 6.65429Z"/>
<path id="path20_fill" d="M -4.87302e-06 8.97928L -4.87302e-06 0.160349L 0.678636 0.160349C 0.838316 0.160349 0.95807 0.240511 0.99799 0.400856L 1.07783 1.1625C 1.35727 0.801726 1.67664 0.561207 2.03592 0.320691C 2.3952 0.120261 2.79439 -4.89332e-06 3.27342 -4.89332e-06C 3.6327 -4.89332e-06 3.99197 0.0801672 4.31133 0.200425C 4.63069 0.36077 4.8702 0.561202 5.10972 0.841805C 5.30932 1.12241 5.50893 1.48318 5.58877 1.88404C 5.70853 2.2849 5.74845 2.80603 5.74845 3.32714C 5.74845 3.80818 5.66862 4.24912 5.54886 4.69007C 5.4291 5.09093 5.22949 5.45171 4.98997 5.7724C 4.75045 6.09308 4.43109 6.3336 4.11173 6.49394C 3.79237 6.65428 3.35325 6.77455 2.91413 6.77455C 2.51494 6.77455 2.15567 6.69437 1.87623 6.57412C 1.59679 6.45386 1.31734 6.25342 1.11774 6.0129L 1.11774 8.93919L -4.87302e-06 8.93919L -4.87302e-06 8.97928ZM 2.91413 0.96207C 2.55486 0.96207 2.19558 1.04223 1.91614 1.20258C 1.6367 1.36292 1.35726 1.60344 1.11774 1.92413L 1.11774 5.09093C 1.31734 5.37153 1.55687 5.57196 1.79639 5.69222C 2.0359 5.81248 2.31536 5.85256 2.63472 5.85256C 3.23351 5.85256 3.71255 5.65213 4.03191 5.21118C 4.35127 4.77023 4.51093 4.12886 4.51093 3.32714C 4.51093 2.8862 4.47101 2.52542 4.39117 2.20473C 4.31133 1.88404 4.19158 1.64353 4.07182 1.4431C 3.91214 1.24266 3.75247 1.08232 3.55287 1.00215C 3.39319 1.00215 3.19357 0.96207 2.91413 0.96207Z"/>
<path id="path21_fill" d="M 1.15768 4.89332e-06L 1.15768 9.58057L 0 9.58057L 0 4.89332e-06L 1.15768 4.89332e-06Z"/>
<path id="path22_fill" d="M 3.07383 -2.44666e-06C 3.47303 -2.44666e-06 3.83229 0.0801696 4.15165 0.200428C 4.47101 0.320686 4.75045 0.521114 5.02989 0.76163C 5.26941 1.00215 5.46902 1.32284 5.58878 1.68362C 5.70854 2.04439 5.78837 2.48534 5.78837 2.92629C 5.78837 3.12672 5.78836 3.24697 5.74844 3.28706C 5.70852 3.36723 5.62869 3.36722 5.50893 3.36722L 1.15766 3.36722C 1.15766 3.76808 1.23751 4.12886 1.31735 4.44955C 1.43711 4.77024 1.55686 5.01075 1.75646 5.21118C 1.95606 5.41161 2.15567 5.57196 2.39519 5.65213C 2.63471 5.77239 2.91414 5.81247 3.2335 5.81247C 3.51294 5.81247 3.79239 5.7724 3.99198 5.73231C 4.19158 5.65214 4.39117 5.57196 4.55085 5.53188C 4.71053 5.49179 4.83029 5.37153 4.91013 5.33145C 5.02989 5.25128 5.10974 5.21118 5.18958 5.21118C 5.26942 5.21118 5.34926 5.25128 5.38918 5.33145L 5.70853 5.77239C 5.54885 5.93273 5.38918 6.09308 5.18958 6.21333C 4.98998 6.33359 4.79037 6.45386 4.55085 6.53403C 4.31133 6.6142 4.07181 6.69437 3.8323 6.73446C 3.59278 6.77455 3.35326 6.81462 3.11374 6.81462C 2.67463 6.81462 2.23552 6.73445 1.87624 6.57411C 1.47704 6.41376 1.15768 6.21334 0.878245 5.89265C 0.598807 5.61205 0.399193 5.21118 0.239514 4.77023C 0.0798347 4.32929 4.87302e-06 3.84826 4.87302e-06 3.24697C 4.87302e-06 2.80602 0.0798445 2.36507 0.199604 1.96421C 0.359283 1.56335 0.558882 1.20259 0.798401 0.921984C 1.07784 0.641382 1.39718 0.40086 1.75646 0.240516C 2.19558 0.0801721 2.63472 -2.44666e-06 3.07383 -2.44666e-06ZM 3.11374 0.841807C 2.55487 0.841807 2.11575 1.00216 1.7964 1.32284C 1.47704 1.64353 1.27744 2.08448 1.1976 2.68577L 4.75045 2.68577C 4.75045 2.40516 4.71053 2.16464 4.63069 1.96421C 4.55085 1.72369 4.4311 1.56335 4.31134 1.40301C 4.15166 1.24266 3.99198 1.12241 3.79239 1.04224C 3.63271 0.881893 3.39318 0.841807 3.11374 0.841807Z"/>
<path id="path23_fill" d="M 2.6347 8.8991C 2.11574 8.8991 1.71654 8.73875 1.4371 8.45815C 1.15766 8.17755 1.0379 7.73661 1.0379 7.21549L 1.0379 3.1668L 0.239509 3.1668C 0.159669 3.1668 0.119764 3.16679 0.0798445 3.08662C 0.0399247 3.04654 0 2.96636 0 2.88619L 0 2.40517L 1.07784 2.2849L 1.35728 0.240511C 1.35728 0.160339 1.39718 0.120256 1.4371 0.0801696C 1.47702 0.0400836 1.55686 4.89332e-06 1.6367 4.89332e-06L 2.2355 4.89332e-06L 2.2355 2.2849L 4.11173 2.2849L 4.11173 3.12671L 2.2355 3.12671L 2.2355 7.09523C 2.2355 7.37583 2.31534 7.57626 2.4351 7.69652C 2.55486 7.81678 2.75448 7.89695 2.95407 7.89695C 3.07383 7.89695 3.19359 7.89694 3.27343 7.85686C 3.35327 7.81677 3.4331 7.77669 3.51294 7.73661C 3.59278 7.69652 3.63271 7.65644 3.67263 7.61635C 3.71255 7.57627 3.75246 7.57626 3.79238 7.57626C 3.87222 7.57626 3.91215 7.61634 3.95207 7.69652L 4.27142 8.25772C 4.07182 8.45815 3.83231 8.57841 3.55287 8.69867C 3.23351 8.81893 2.95405 8.8991 2.6347 8.8991Z"/>
<path id="path24_fill" d="M 3.15367 -2.44666e-06C 3.63271 -2.44666e-06 4.07182 0.0801721 4.47102 0.240516C 4.87022 0.40086 5.18958 0.641382 5.46902 0.921984C 5.74845 1.20259 5.94804 1.56335 6.10772 2.0043C 6.2674 2.40516 6.30732 2.88619 6.30732 3.40731C 6.30732 3.92843 6.22748 4.40946 6.10772 4.81032C 5.94804 5.21118 5.74845 5.57196 5.46902 5.89265C 5.18958 6.17325 4.87022 6.41376 4.47102 6.57411C 4.07182 6.73445 3.63271 6.81462 3.15367 6.81462C 2.67464 6.81462 2.23551 6.73445 1.87624 6.57411C 1.47704 6.41376 1.15768 6.17325 0.87824 5.89265C 0.598802 5.61205 0.399188 5.25127 0.239509 4.81032C 0.0798298 4.40946 4.53835e-14 3.92843 4.53835e-14 3.40731C 4.53835e-14 2.88619 0.0798298 2.40516 0.239509 2.0043C 0.399188 1.60344 0.598802 1.24267 0.87824 0.921984C 1.15768 0.641382 1.47704 0.40086 1.87624 0.240516C 2.23551 0.0801721 2.67464 -2.44666e-06 3.15367 -2.44666e-06ZM 3.15367 5.89265C 3.79239 5.89265 4.27142 5.69222 4.59078 5.25127C 4.91013 4.81033 5.06982 4.20903 5.06982 3.40731C 5.06982 2.60559 4.91013 2.0043 4.59078 1.56335C 4.27142 1.1224 3.79239 0.921984 3.15367 0.921984C 2.83431 0.921984 2.55486 0.962067 2.31534 1.08233C 2.07582 1.20258 1.87623 1.36292 1.71655 1.56335C 1.55687 1.76378 1.43712 2.04438 1.35728 2.36507C 1.27744 2.68576 1.2375 3.00645 1.2375 3.40731C 1.2375 3.80817 1.27744 4.12886 1.35728 4.44955C 1.43712 4.77024 1.55687 5.01075 1.71655 5.21118C 1.87623 5.41161 2.07582 5.57196 2.31534 5.69222C 2.51494 5.81248 2.83431 5.89265 3.15367 5.89265Z"/>
<path id="path25_fill" d="M 3.15367 -2.44666e-06C 3.63271 -2.44666e-06 4.07181 0.0801721 4.43109 0.240516C 4.83029 0.40086 5.14964 0.641382 5.42908 0.921984C 5.70852 1.20259 5.90813 1.56335 6.06781 2.0043C 6.22749 2.40516 6.26741 2.88619 6.26741 3.40731C 6.26741 3.92843 6.18757 4.40946 6.06781 4.81032C 5.90813 5.21118 5.70852 5.57196 5.42908 5.89265C 5.14964 6.17325 4.83029 6.41376 4.43109 6.57411C 4.03189 6.73445 3.59279 6.81462 3.15367 6.81462C 2.67464 6.81462 2.2355 6.73445 1.8363 6.57411C 1.4371 6.41376 1.11774 6.17325 0.838306 5.89265C 0.558867 5.61205 0.359278 5.25127 0.199599 4.81032C 0.0399198 4.40946 0 3.92843 0 3.40731C 0 2.88619 0.0798396 2.40516 0.199599 2.0043C 0.359278 1.60344 0.558867 1.24267 0.838306 0.921984C 1.11774 0.601295 1.4371 0.40086 1.8363 0.240516C 2.2355 0.0801721 2.67464 -2.44666e-06 3.15367 -2.44666e-06ZM 3.15367 5.89265C 3.79239 5.89265 4.27142 5.69222 4.59078 5.25127C 4.91013 4.81033 5.06982 4.20903 5.06982 3.40731C 5.06982 2.60559 4.91013 2.0043 4.59078 1.56335C 4.27142 1.1224 3.79239 0.921984 3.15367 0.921984C 2.83432 0.921984 2.55486 0.962067 2.31534 1.08233C 2.07582 1.20258 1.87623 1.36292 1.71655 1.56335C 1.55687 1.76378 1.43712 2.04438 1.35728 2.36507C 1.27744 2.68576 1.2375 3.00645 1.2375 3.40731C 1.2375 3.80817 1.27744 4.12886 1.35728 4.44955C 1.43712 4.77024 1.55687 5.01075 1.71655 5.21118C 1.87623 5.41161 2.07582 5.57196 2.31534 5.69222C 2.55486 5.81248 2.83432 5.89265 3.15367 5.89265Z"/>
<path id="path26_fill" d="M 1.15767 4.89332e-06L 1.15767 9.58057L -9.74604e-06 9.58057L -9.74604e-06 4.89332e-06L 1.15767 4.89332e-06Z"/>
<path id="path27_fill" d="M 4.27143 1.16249C 4.23151 1.24266 4.15165 1.32283 4.03189 1.32283C 3.95205 1.32283 3.91214 1.28276 3.79239 1.24267C 3.71255 1.20258 3.59279 1.12241 3.47303 1.08233C 3.35327 1.04224 3.2335 0.96206 3.0339 0.921974C 2.87422 0.881888 2.67462 0.841809 2.4351 0.841809C 2.2355 0.841809 2.07583 0.881888 1.91615 0.921974C 1.75647 0.96206 1.63671 1.04223 1.51695 1.1224C 1.39719 1.20258 1.31736 1.32284 1.27744 1.4431C 1.23752 1.56336 1.1976 1.68361 1.1976 1.80387C 1.1976 1.96422 1.2375 2.12456 1.35726 2.24482C 1.4371 2.36508 1.59678 2.44524 1.75646 2.52542C 1.91614 2.60559 2.11575 2.68576 2.31535 2.72585C 2.51495 2.80602 2.71454 2.8461 2.95405 2.92628C 3.15365 3.00645 3.39319 3.08662 3.59279 3.1668C 3.79239 3.24697 3.99197 3.36723 4.15165 3.48749C 4.31133 3.60775 4.43109 3.76809 4.55085 3.96852C 4.63069 4.16895 4.71054 4.36938 4.71054 4.64998C 4.71054 4.97067 4.67061 5.25128 4.55085 5.49179C 4.43109 5.73231 4.27143 5.97282 4.07183 6.17325C 3.87223 6.37368 3.59279 6.49394 3.27343 6.6142C 2.95407 6.73446 2.59479 6.77454 2.19559 6.77454C 1.75648 6.77454 1.31734 6.69436 0.958065 6.53402C 0.598787 6.37368 0.279443 6.17325 4.87302e-06 5.97282L 0.279448 5.53187C 0.319368 5.49178 0.359283 5.4517 0.399203 5.41162C 0.439123 5.37153 0.518962 5.37153 0.598802 5.37153C 0.678641 5.37153 0.758471 5.41162 0.838311 5.4517C 0.91815 5.53188 1.0379 5.57196 1.15766 5.65213C 1.27742 5.73231 1.43712 5.81248 1.5968 5.85256C 1.75648 5.93274 1.99598 5.93273 2.2355 5.93273C 2.47502 5.93273 2.67462 5.89265 2.8343 5.85256C 2.99398 5.81248 3.15367 5.7323 3.27343 5.61205C 3.39319 5.53187 3.47302 5.41162 3.51294 5.25127C 3.55286 5.13102 3.59279 4.97067 3.59279 4.85041C 3.59279 4.64998 3.55286 4.52972 3.4331 4.40946C 3.35326 4.28921 3.19358 4.20904 3.0339 4.08878C 2.87422 4.00861 2.67464 3.92843 2.47504 3.84826C 2.27544 3.76809 2.07582 3.728 1.83631 3.64783C 1.63671 3.56766 1.3972 3.48749 1.1976 3.40731C 0.998 3.32714 0.798391 3.20689 0.638712 3.08663C 0.479033 2.96637 0.359273 2.80602 0.239514 2.60559C 0.159674 2.40516 0.0798493 2.16465 0.0798493 1.88405C 0.0798493 1.64353 0.119755 1.40301 0.239514 1.16249C 0.359273 0.921977 0.479047 0.721546 0.678646 0.561202C 0.878245 0.400858 1.11776 0.240514 1.3972 0.160342C 1.67664 0.0400836 2.03591 4.55726e-14 2.39519 4.55726e-14C 2.83431 4.55726e-14 3.19357 0.0801721 3.55285 0.20043C 3.91213 0.320688 4.19157 0.521116 4.43109 0.761632L 4.27143 1.16249Z"/>
<path id="path28_fill" d="M 2.6347 8.8991C 2.11574 8.8991 1.71655 8.73875 1.43711 8.45815C 1.15767 8.17755 1.03791 7.73661 1.03791 7.21549L 1.03791 3.1668L 0.239514 3.1668C 0.159674 3.1668 0.119769 3.16679 0.0798493 3.08662C 0.0399295 3.04654 4.87302e-06 2.96636 4.87302e-06 2.88619L 4.87302e-06 2.40517L 1.07784 2.2849L 1.35726 0.240511C 1.35726 0.160339 1.39719 0.120256 1.43711 0.0801696C 1.47703 0.0400836 1.55687 4.89332e-06 1.63671 4.89332e-06L 2.2355 4.89332e-06L 2.2355 2.2849L 4.11174 2.2849L 4.11174 3.12671L 2.2355 3.12671L 2.2355 7.09523C 2.2355 7.37583 2.31534 7.57626 2.4351 7.69652C 2.55486 7.81678 2.75446 7.89695 2.95405 7.89695C 3.07381 7.89695 3.19359 7.89694 3.27343 7.85686C 3.35327 7.81677 3.4331 7.77669 3.51294 7.73661C 3.59278 7.69652 3.63271 7.65644 3.67263 7.61635C 3.71255 7.57627 3.75247 7.57626 3.79239 7.57626C 3.87222 7.57626 3.91213 7.61634 3.95205 7.69652L 4.27143 8.25772C 4.07183 8.45815 3.83229 8.57841 3.55285 8.69867C 3.23349 8.81893 2.91414 8.8991 2.6347 8.8991Z"/>
<path id="path29_fill" d="M 3.19358 -2.44666e-06C 3.67262 -2.44666e-06 4.11173 0.0801721 4.51093 0.240516C 4.91013 0.40086 5.22949 0.641382 5.50893 0.921984C 5.78836 1.20259 5.98798 1.56335 6.14766 2.0043C 6.30734 2.40516 6.34726 2.88619 6.34726 3.40731C 6.34726 3.92843 6.26742 4.40946 6.14766 4.81032C 5.98798 5.21118 5.78836 5.57196 5.50893 5.89265C 5.22949 6.17325 4.91013 6.41376 4.51093 6.57411C 4.11173 6.73445 3.67262 6.81462 3.19358 6.81462C 2.71455 6.81462 2.27543 6.73445 1.87624 6.57411C 1.47704 6.41376 1.15768 6.17325 0.87824 5.89265C 0.598802 5.61205 0.399188 5.25127 0.239509 4.81032C 0.0798298 4.36938 0 3.92843 0 3.40731C 0 2.88619 0.0798298 2.40516 0.239509 2.0043C 0.399188 1.60344 0.598802 1.24267 0.87824 0.921984C 1.15768 0.641382 1.47704 0.40086 1.87624 0.240516C 2.31535 0.0801721 2.71455 -2.44666e-06 3.19358 -2.44666e-06ZM 3.19358 5.89265C 3.8323 5.89265 4.31133 5.69222 4.63069 5.25127C 4.95004 4.81033 5.10973 4.20903 5.10973 3.40731C 5.10973 2.60559 4.95004 2.0043 4.63069 1.56335C 4.31133 1.1224 3.8323 0.921984 3.19358 0.921984C 2.87422 0.921984 2.5948 0.962067 2.35528 1.08233C 2.11576 1.20258 1.91616 1.36292 1.75648 1.56335C 1.5968 1.76378 1.47703 2.04438 1.39719 2.36507C 1.31735 2.68576 1.27744 3.00645 1.27744 3.40731C 1.27744 3.80817 1.31735 4.12886 1.39719 4.44955C 1.47703 4.77024 1.5968 5.01075 1.75648 5.21118C 1.91616 5.41161 2.11576 5.57196 2.35528 5.69222C 2.5948 5.81248 2.87422 5.89265 3.19358 5.89265Z"/>
<path id="path30_fill" d="M -9.74604e-06 9.58057L -9.74604e-06 4.89332e-06L 1.15767 4.89332e-06L 1.15767 3.88834C 1.43711 3.60774 1.75647 3.36723 2.07582 3.1668C 2.4351 3.00646 2.79438 2.88619 3.27342 2.88619C 3.6327 2.88619 3.95206 2.92628 4.2315 3.04653C 4.51094 3.16679 4.75046 3.32714 4.91014 3.56766C 5.10974 3.76809 5.2295 4.04869 5.30934 4.36938C 5.38918 4.69007 5.46903 5.01076 5.46903 5.37153L 5.46903 9.58057L 4.31135 9.58057L 4.31135 5.37153C 4.31135 4.8905 4.19158 4.48964 3.95206 4.20904C 3.71254 3.92844 3.39319 3.80818 2.91415 3.80818C 2.55488 3.80818 2.23551 3.88834 1.95607 4.04869C 1.67663 4.20903 1.3972 4.44955 1.11776 4.73015L 1.11776 9.58057L -9.74604e-06 9.58057L -9.74604e-06 9.58057Z"/>
<path id="path31_fill" d="M 3.03388 -2.44666e-06C 3.43308 -2.44666e-06 3.79239 0.0801696 4.11175 0.200428C 4.43111 0.320686 4.75045 0.521114 4.98996 0.76163C 5.22948 1.00215 5.42909 1.32284 5.54885 1.68362C 5.66861 2.04439 5.74845 2.48534 5.74845 2.92629C 5.74845 3.12672 5.74846 3.24697 5.70854 3.28706C 5.66862 3.36723 5.58879 3.36722 5.46903 3.36722L 1.11776 3.36722C 1.11776 3.76808 1.19761 4.12886 1.27745 4.44955C 1.39721 4.77024 1.51696 5.01075 1.71656 5.21118C 1.91616 5.41161 2.11575 5.57196 2.35527 5.65213C 2.59479 5.77239 2.87422 5.81247 3.19357 5.81247C 3.47301 5.81247 3.71254 5.7724 3.95206 5.73231C 4.15166 5.65214 4.35127 5.57196 4.51095 5.53188C 4.67063 5.45171 4.79039 5.37153 4.87023 5.33145C 4.98999 5.25128 5.06981 5.21118 5.14965 5.21118C 5.22949 5.21118 5.30932 5.25128 5.38916 5.33145L 5.70854 5.77239C 5.54886 5.93273 5.38916 6.09308 5.18956 6.21333C 4.98996 6.33359 4.79037 6.45386 4.55086 6.53403C 4.31134 6.6142 4.0718 6.69437 3.83228 6.73446C 3.59276 6.77455 3.35327 6.81462 3.11375 6.81462C 2.67464 6.81462 2.23553 6.73445 1.87625 6.57411C 1.47705 6.41376 1.15769 6.21334 0.878255 5.89265C 0.598816 5.61205 0.399178 5.21118 0.239499 4.77023C 0.0798201 4.32929 -9.74604e-06 3.84826 -9.74604e-06 3.24697C -9.74604e-06 2.80602 0.0798298 2.36507 0.199589 1.96421C 0.359268 1.56335 0.558867 1.20259 0.798386 0.921984C 1.07782 0.641382 1.39719 0.40086 1.75647 0.240516C 2.11575 0.0801721 2.55485 -2.44666e-06 3.03388 -2.44666e-06ZM 3.03388 0.841807C 2.47501 0.841807 2.03592 1.00216 1.71656 1.32284C 1.3972 1.64353 1.1976 2.08448 1.11776 2.68577L 4.67063 2.68577C 4.67063 2.40516 4.6307 2.16464 4.55086 1.96421C 4.47102 1.72369 4.35124 1.56335 4.23148 1.40301C 4.0718 1.24266 3.91215 1.12241 3.71255 1.04224C 3.55287 0.881893 3.31332 0.841807 3.03388 0.841807Z"/>
<path id="path32_fill" d="M 1.15769 4.89332e-06L 1.15769 9.58057L 9.74604e-06 9.58057L 9.74604e-06 4.89332e-06L 1.15769 4.89332e-06Z"/>
<path id="path33_fill" d="M 9.74604e-06 8.97928L 9.74604e-06 0.160349L 0.678627 0.160349C 0.838306 0.160349 0.958085 0.240511 0.998004 0.400856L 1.07782 1.1625C 1.35726 0.801726 1.67663 0.561207 2.03591 0.320691C 2.39519 0.120261 2.79438 -4.89332e-06 3.27341 -4.89332e-06C 3.63269 -4.89332e-06 3.99196 0.0801672 4.31132 0.200425C 4.63068 0.36077 4.8702 0.561202 5.10971 0.841805C 5.30931 1.12241 5.50894 1.48318 5.58878 1.88404C 5.70854 2.2849 5.74847 2.80603 5.74847 3.32714C 5.74847 3.80818 5.66863 4.24912 5.54887 4.69007C 5.42911 5.09093 5.2295 5.45171 4.98998 5.7724C 4.75047 6.09308 4.471 6.3336 4.11172 6.49394C 3.75244 6.65428 3.35324 6.77455 2.91413 6.77455C 2.51493 6.77455 2.15566 6.69437 1.87622 6.57412C 1.59678 6.45386 1.31733 6.25342 1.11773 6.0129L 1.11773 8.93919L 9.74604e-06 8.93919L 9.74604e-06 8.97928ZM 2.91413 0.96207C 2.55485 0.96207 2.19557 1.04223 1.91613 1.20258C 1.63669 1.36292 1.35725 1.60344 1.11773 1.92413L 1.11773 5.09093C 1.31733 5.37153 1.55688 5.57196 1.7964 5.69222C 2.03592 5.81248 2.31535 5.85256 2.63471 5.85256C 3.2335 5.85256 3.71254 5.65213 4.0319 5.21118C 4.35126 4.77023 4.51092 4.12886 4.51092 3.32714C 4.51092 2.8862 4.47103 2.52542 4.39119 2.20473C 4.31135 1.88404 4.19157 1.64353 4.07181 1.4431C 3.91213 1.24266 3.75248 1.08232 3.55288 1.00215C 3.35328 0.921974 3.19356 0.96207 2.91413 0.96207Z"/>
<path id="path34_fill" d="M 4.95003 1.32284C 4.91011 1.36293 4.87022 1.40301 4.8303 1.4431C 4.79038 1.48318 4.75045 1.48318 4.67062 1.48318C 4.59078 1.48318 4.55086 1.44309 4.47102 1.40301C 4.39118 1.36292 4.31136 1.28275 4.1916 1.24266C 4.07184 1.16249 3.95204 1.12241 3.75244 1.08232C 3.59276 1.04224 3.39316 1.00215 3.15364 1.00215C 2.83429 1.00215 2.55486 1.04224 2.31534 1.1625C 2.07582 1.28276 1.87622 1.44309 1.71654 1.64353C 1.55686 1.84396 1.43709 2.12456 1.35725 2.44525C 1.27741 2.76593 1.23752 3.08663 1.23752 3.48749C 1.23752 3.88835 1.27741 4.24913 1.35725 4.56981C 1.43709 4.8905 1.55685 5.13102 1.75645 5.33145C 1.91613 5.53188 2.11573 5.69221 2.35525 5.81247C 2.59477 5.93273 2.83429 5.97283 3.15364 5.97283C 3.43308 5.97283 3.67263 5.93273 3.83231 5.85256C 4.03191 5.77239 4.15166 5.69221 4.27142 5.61204C 4.39118 5.53187 4.471 5.45171 4.55084 5.37153C 4.63068 5.29136 4.71055 5.25127 4.79039 5.25127C 4.87023 5.25127 4.95006 5.29136 5.0299 5.37153L 5.34923 5.81247C 5.06979 6.17325 4.71054 6.41377 4.27142 6.57412C 3.8323 6.73446 3.39317 6.81462 2.91413 6.81462C 2.51494 6.81462 2.11573 6.73446 1.75645 6.57412C 1.39717 6.41377 1.11776 6.21334 0.838325 5.93274C 0.558887 5.65213 0.359288 5.29136 0.239528 4.85041C 0.0798493 4.44955 1.94921e-05 3.96851 1.94921e-05 3.40731C 1.94921e-05 2.92628 0.0798591 2.44525 0.199618 2.04439C 0.319378 1.64353 0.518977 1.28276 0.798415 0.96207C 1.07785 0.641382 1.39717 0.440944 1.75645 0.240514C 2.15565 0.0801696 2.59479 -4.89332e-06 3.07382 -4.89332e-06C 3.51294 -4.89332e-06 3.95206 0.0801696 4.27142 0.240514C 4.6307 0.400858 4.95006 0.601291 5.2295 0.881893L 4.95003 1.32284Z"/>
<path id="path35_fill" d="M -1.94921e-05 9.58057L -1.94921e-05 4.89332e-06L 1.15766 4.89332e-06L 1.15766 3.88834C 1.4371 3.60774 1.75648 3.36723 2.07584 3.1668C 2.43512 3.00646 2.7944 2.88619 3.27343 2.88619C 3.63271 2.88619 3.95208 2.92628 4.23152 3.04653C 4.51096 3.16679 4.75046 3.32714 4.91013 3.56766C 5.10973 3.76809 5.22949 4.04869 5.30933 4.36938C 5.38917 4.69007 5.46902 5.01076 5.46902 5.37153L 5.46902 9.58057L 4.31134 9.58057L 4.31134 5.37153C 4.31134 4.8905 4.19157 4.48964 3.95205 4.20904C 3.71253 3.92844 3.39318 3.80818 2.91414 3.80818C 2.55487 3.80818 2.2355 3.88834 1.95606 4.04869C 1.67662 4.20903 1.39719 4.44955 1.11775 4.73015L 1.11775 9.58057L -1.94921e-05 9.58057L -1.94921e-05 9.58057Z"/>
<path id="path36_fill" d="M 1.07781 0.0400909L 1.07781 4.24913C 1.07781 4.73016 1.19758 5.13102 1.4371 5.41162C 1.67662 5.69222 1.99597 5.81248 2.47501 5.81248C 2.79437 5.81248 3.11373 5.7323 3.43309 5.57196C 3.71253 5.41162 3.99196 5.17109 4.2714 4.89049L 4.2714 0.0400909L 5.42908 0.0400909L 5.42908 6.6142L 4.75047 6.6142C 4.59079 6.6142 4.47101 6.53403 4.43109 6.37368L 4.35127 5.65214C 4.07183 5.97283 3.75246 6.21334 3.39318 6.41377C 3.0339 6.6142 2.63471 6.69436 2.19559 6.69436C 1.83631 6.69436 1.51694 6.65428 1.2375 6.53402C 0.958065 6.41376 0.718566 6.25343 0.558887 6.01291C 0.399208 5.77239 0.239529 5.53188 0.159689 5.21119C 0.0798493 4.8905 9.07671e-14 4.56981 9.07671e-14 4.20904L 9.07671e-14 2.44666e-06L 1.07781 2.44666e-06L 1.07781 0.0400909Z"/>
<path id="path37_fill" d="M -1.94921e-05 6.69437L -1.94921e-05 0.120263L 0.678646 0.120263C 0.798406 0.120263 0.878235 0.160342 0.918155 0.200428C 0.958075 0.240514 0.997975 0.320688 0.997975 0.440947L 1.07784 1.48319C 1.31736 1.04224 1.59679 0.68146 1.91615 0.400858C 2.23551 0.160342 2.63472 -2.44666e-06 3.07383 -2.44666e-06C 3.27343 -2.44666e-06 3.43309 0.0400885 3.55285 0.0801745C 3.71253 0.120261 3.83229 0.160344 3.95205 0.240516L 3.79236 1.12241C 3.75244 1.24267 3.71252 1.28276 3.59276 1.28276C 3.55284 1.28276 3.4331 1.24266 3.31334 1.20258C 3.19358 1.16249 2.99396 1.12241 2.79437 1.12241C 2.39517 1.12241 2.07581 1.24267 1.79637 1.48319C 1.51693 1.7237 1.31735 2.04439 1.11775 2.48534L 1.11775 6.69437L -1.94921e-05 6.69437Z"/>
<path id="path38_fill" d="M 4.95006 1.32284C 4.91014 1.36293 4.8702 1.40301 4.83028 1.4431C 4.79037 1.48318 4.75044 1.48318 4.6706 1.48318C 4.59076 1.48318 4.55084 1.44309 4.471 1.40301C 4.39116 1.36292 4.31134 1.28275 4.19158 1.24266C 4.07182 1.16249 3.95207 1.12241 3.75247 1.08232C 3.59279 1.04224 3.39319 1.00215 3.15367 1.00215C 2.83431 1.00215 2.55489 1.04224 2.31537 1.1625C 2.07585 1.28276 1.87625 1.44309 1.71657 1.64353C 1.55689 1.84396 1.43712 2.12456 1.35728 2.44525C 1.27744 2.76593 1.2375 3.08663 1.2375 3.48749C 1.2375 3.88835 1.27744 4.24913 1.35728 4.56981C 1.43712 4.8905 1.55688 5.13102 1.75648 5.33145C 1.91616 5.53188 2.11576 5.69221 2.35528 5.81247C 2.5948 5.93273 2.83431 5.97283 3.15367 5.97283C 3.43311 5.97283 3.67261 5.93273 3.83229 5.85256C 4.03189 5.77239 4.15164 5.69221 4.2714 5.61204C 4.39116 5.53187 4.47103 5.45171 4.55087 5.37153C 4.63071 5.29136 4.71054 5.25127 4.79037 5.25127C 4.87021 5.25127 4.95004 5.29136 5.02988 5.37153L 5.34926 5.81247C 5.06982 6.17325 4.71052 6.41377 4.2714 6.57412C 3.83228 6.73446 3.3932 6.81462 2.91416 6.81462C 2.51497 6.81462 2.11576 6.73446 1.75648 6.57412C 1.3972 6.41377 1.11774 6.21334 0.838306 5.93274C 0.558867 5.65213 0.359268 5.29136 0.239509 4.85041C 0.0798298 4.44955 9.07671e-14 3.96851 9.07671e-14 3.40731C 9.07671e-14 2.92628 0.0798396 2.44525 0.199599 2.04439C 0.319358 1.64353 0.518957 1.28276 0.798396 0.96207C 1.07783 0.641382 1.3972 0.440944 1.75648 0.240514C 2.15568 0.0801696 2.59477 -4.89332e-06 3.0738 -4.89332e-06C 3.51292 -4.89332e-06 3.95204 0.0801696 4.2714 0.240514C 4.63068 0.400858 4.95004 0.601291 5.22948 0.881893L 4.95006 1.32284Z"/>
<path id="path39_fill" d="M 9.74604e-06 9.58057L 9.74604e-06 4.89332e-06L 1.15769 4.89332e-06L 1.15769 3.88834C 1.43713 3.60774 1.75646 3.36723 2.07582 3.1668C 2.4351 3.00646 2.79438 2.88619 3.27341 2.88619C 3.63269 2.88619 3.95206 2.92628 4.2315 3.04653C 4.51094 3.16679 4.75044 3.32714 4.91011 3.56766C 5.10971 3.76809 5.22947 4.04869 5.30931 4.36938C 5.38915 4.69007 5.469 5.01076 5.469 5.37153L 5.469 9.58057L 4.31132 9.58057L 4.31132 5.37153C 4.31132 4.8905 4.1916 4.48964 3.95208 4.20904C 3.71256 3.92844 3.39316 3.80818 2.91413 3.80818C 2.55485 3.80818 2.23553 3.88834 1.95609 4.04869C 1.67665 4.20903 1.39717 4.44955 1.11773 4.73015L 1.11773 9.58057L 9.74604e-06 9.58057L 9.74604e-06 9.58057Z"/>
<path id="path40_fill" d="M 2.99399 -2.44666e-06C 3.39319 -2.44666e-06 3.75245 0.0801696 4.07181 0.200428C 4.39117 0.320686 4.71056 0.521114 4.95007 0.76163C 5.18959 1.00215 5.38915 1.32284 5.50891 1.68362C 5.62867 2.04439 5.70851 2.48534 5.70851 2.92629C 5.70851 3.12672 5.70852 3.24697 5.6686 3.28706C 5.62868 3.32714 5.54885 3.36722 5.42909 3.36722L 1.07782 3.36722C 1.07782 3.76808 1.15767 4.12886 1.23751 4.44955C 1.31735 4.77024 1.47702 5.01075 1.67662 5.21118C 1.87622 5.41161 2.07581 5.57196 2.31533 5.65213C 2.55485 5.77239 2.83432 5.81247 3.15368 5.81247C 3.43312 5.81247 3.6726 5.7724 3.91212 5.73231C 4.11172 5.65214 4.31133 5.57196 4.47101 5.53188C 4.63069 5.45171 4.75045 5.37153 4.87021 5.33145C 4.95004 5.25128 5.06983 5.21118 5.14967 5.21118C 5.22951 5.21118 5.30934 5.25128 5.38918 5.33145L 5.70851 5.77239C 5.54883 5.93273 5.38918 6.09308 5.18958 6.21333C 4.98998 6.33359 4.79039 6.45386 4.55088 6.53403C 4.31136 6.6142 4.07182 6.69437 3.8323 6.73446C 3.59278 6.77455 3.35324 6.81462 3.11372 6.81462C 2.67461 6.81462 2.2355 6.73445 1.87622 6.57411C 1.47702 6.41376 1.15766 6.21334 0.878226 5.89265C 0.598787 5.61205 0.399198 5.21118 0.239519 4.77023C 0.0798396 4.32929 9.74604e-06 3.84826 9.74604e-06 3.24697C 9.74604e-06 2.80602 0.0798493 2.36507 0.199609 1.96421C 0.359288 1.56335 0.558887 1.20259 0.798406 0.921984C 1.07784 0.641382 1.39721 0.40086 1.75649 0.240516C 2.07585 0.0801721 2.51496 -2.44666e-06 2.99399 -2.44666e-06ZM 2.99399 0.841807C 2.43512 0.841807 1.99598 1.00216 1.67662 1.32284C 1.35726 1.64353 1.15766 2.08448 1.07782 2.68577L 4.6307 2.68577C 4.6307 2.40516 4.59076 2.16464 4.51092 1.96421C 4.43108 1.72369 4.31135 1.56335 4.19159 1.40301C 4.03191 1.24266 3.87221 1.12241 3.67261 1.04224C 3.51293 0.881893 3.27343 0.841807 2.99399 0.841807Z"/>
<path id="path41_fill" d="M 4.1916 1.16249C 4.15168 1.24266 4.0718 1.32283 3.95204 1.32283C 3.8722 1.32283 3.83228 1.28276 3.75244 1.24267C 3.6726 1.20258 3.55287 1.12241 3.43311 1.08233C 3.31335 1.04224 3.15368 0.96206 2.994 0.921974C 2.83432 0.881888 2.63473 0.841809 2.39521 0.841809C 2.19561 0.841809 2.03591 0.881888 1.87623 0.921974C 1.71655 0.96206 1.59679 1.04223 1.47703 1.1224C 1.35727 1.20258 1.27744 1.32284 1.23752 1.4431C 1.1976 1.56336 1.15765 1.68361 1.15765 1.80387C 1.15765 1.96422 1.19758 2.12456 1.31734 2.24482C 1.39718 2.36508 1.55686 2.44524 1.71654 2.52542C 1.87622 2.60559 2.07583 2.68576 2.27543 2.72585C 2.47503 2.80602 2.67462 2.8461 2.91414 2.92628C 3.11373 3.00645 3.35324 3.08662 3.55284 3.1668C 3.75244 3.24697 3.95205 3.36723 4.11173 3.48749C 4.27141 3.60775 4.39117 3.76809 4.51093 3.96852C 4.59077 4.16895 4.67062 4.36938 4.67062 4.64998C 4.67062 4.97067 4.63069 5.25128 4.51093 5.49179C 4.39117 5.73231 4.23151 5.97282 4.03191 6.17325C 3.83231 6.37368 3.55286 6.49394 3.27342 6.6142C 2.95406 6.73446 2.59481 6.77454 2.19561 6.77454C 1.75649 6.77454 1.31733 6.69436 0.958056 6.53402C 0.598777 6.37368 0.279458 6.17325 1.94921e-05 5.97282L 0.279439 5.53187C 0.319358 5.49178 0.359298 5.4517 0.399217 5.41162C 0.439137 5.37153 0.518977 5.37153 0.598816 5.37153C 0.678656 5.37153 0.758486 5.41162 0.838325 5.4517C 0.918165 5.53188 1.0379 5.57196 1.15765 5.65213C 1.27741 5.73231 1.43713 5.81248 1.59681 5.85256C 1.75649 5.93274 1.996 5.93273 2.23552 5.93273C 2.47504 5.93273 2.67464 5.89265 2.83431 5.85256C 2.99399 5.81248 3.15366 5.7323 3.27342 5.61205C 3.39318 5.53187 3.47301 5.41162 3.51293 5.25127C 3.55285 5.13102 3.5928 4.97067 3.5928 4.85041C 3.5928 4.64998 3.55287 4.52972 3.43311 4.40946C 3.35327 4.28921 3.19359 4.20904 3.03391 4.08878C 2.87423 4.00861 2.67463 3.92843 2.47503 3.84826C 2.27543 3.76809 2.07584 3.728 1.83632 3.64783C 1.63672 3.56766 1.39721 3.48749 1.19761 3.40731C 0.998014 3.32714 0.798406 3.20689 0.638726 3.08663C 0.479047 2.96637 0.359288 2.80602 0.239528 2.60559C 0.159689 2.40516 0.0798396 2.16465 0.0798396 1.88405C 0.0798396 1.64353 0.119769 1.40301 0.239528 1.16249C 0.359288 0.921977 0.479038 0.721546 0.678636 0.561202C 0.878235 0.400858 1.11777 0.240514 1.39721 0.160342C 1.67665 0.0400836 2.03593 4.55726e-14 2.39521 4.55726e-14C 2.83432 4.55726e-14 3.23348 0.0801721 3.55284 0.20043C 3.91212 0.320688 4.19159 0.521116 4.43111 0.761632L 4.1916 1.16249Z"/>
<path id="path42_fill" d="M 26.3895 51.5921L 5.03243 30.1861C 4.63324 29.7853 4.3538 29.2641 4.27396 28.7029L 0.00254445 0.482353C -0.0373753 0.0814928 0.401741 -0.159021 0.68118 0.121581L 26.3496 25.8969C 26.7887 26.3378 27.0282 26.9391 27.0682 27.5805L 27.0682 51.3115C 27.0682 51.6722 26.629 51.8727 26.3895 51.5921Z"/>
<path id="path43_fill" d="M 0.718555 51.5921L 22.0357 30.1861C 22.4349 29.7853 22.7144 29.2641 22.7942 28.7029L 27.0656 0.482353C 27.1055 0.0814928 26.6664 -0.159021 26.387 0.121581L 0.718555 25.8969C 0.279437 26.3378 0.0399174 26.9391 -2.43651e-06 27.5805L -2.43651e-06 51.3115C 0.0399174 51.6722 0.479036 51.8727 0.718555 51.5921Z"/>
<path id="path44_fill" d="M 12.8442 0.15032C 12.6446 -0.05011 12.3252 -0.05011 12.1656 0.15032L 0.1497 12.3766C -0.0498985 12.577 -0.0498985 12.8576 0.1497 13.058L 1.46705 14.3809L 21.3072 8.60848L 12.8442 0.15032Z"/>
<path id="path45_fill" d="M 25.5487 6.8948C 25.5487 6.17326 25.2692 5.49179 24.7503 4.97067L 19.8002 0L 0 5.77239L 24.7503 30.6257C 25.0696 30.9464 25.5886 30.7059 25.5886 30.265L 25.5487 6.8948Z"/>
</defs>
</svg>
