<svg width="16" height="20" viewBox="0 0 16 20" version="1.1" xmlns="http://www.w3.org/2000/svg" xmlns:xlink="http://www.w3.org/1999/xlink">
<title>trashCan</title>
<desc>Created using Figma</desc>
<g id="Canvas" transform="translate(-5358 -6500)">
<g id="trashCan">
<use xlink:href="#path0_fill" transform="translate(5358 6500)" fill="#636B6F"/>
</g>
</g>
<defs>
<path id="path0_fill" d="M 5.93575 17.0178L 5.94747 17.0178C 6.30224 17.0111 6.58507 16.7182 6.57838 16.3634L 6.36418 4.84308C 6.35748 4.48831 6.04789 4.19546 5.70987 4.21216C 5.3551 4.21886 5.07227 4.51172 5.07895 4.86648L 5.29316 16.3868C 5.29985 16.7366 5.58601 17.0178 5.93577 17.0178L 5.93575 17.0178ZM 9.0685 17.0178C 9.41825 17.0178 9.70443 16.7383 9.71111 16.3868L 9.92531 4.86648C 9.93201 4.5117 9.64919 4.21885 9.2944 4.21216C 8.94966 4.1971 8.64677 4.48829 8.64009 4.84308L 8.42588 16.3634C 8.41919 16.7182 8.702 17.0111 9.0568 17.0178L 9.06851 17.0178L 9.0685 17.0178ZM 13.284 4.21045L 13.2622 4.21045C 12.9175 4.21045 12.6313 4.4849 12.6213 4.83297L 12.1929 18.1638C 12.1929 18.4684 11.9468 18.7144 11.6423 18.7144L 3.36367 18.7161C 3.0591 18.7161 2.81308 18.4684 2.81141 18.1437L 2.383 4.83306C 2.37129 4.47829 2.05667 4.18711 1.7203 4.21221C 1.36552 4.22392 1.08771 4.52013 1.09944 4.87492L 1.52785 18.1642C 1.52785 19.1766 2.35121 20 3.36367 20L 11.6423 20C 12.6547 20 13.4781 19.1766 13.4764 18.1843L 13.9048 4.87359C 13.9165 4.52049 13.6387 4.22262 13.2839 4.21088L 13.284 4.21045ZM 14.3617 2.0684L 11.0867 2.0684L 10.7637 0.512078C 10.7018 0.2142 10.4391 -4.07909e-07 10.1345 -4.07909e-07L 4.87316 -4.07909e-07C 4.56859 -4.07909e-07 4.30586 0.214205 4.24391 0.512078L 3.92093 2.0684L 0.642615 2.0684C 0.287841 2.0684 7.68229e-07 2.35624 7.68229e-07 2.71102C 7.68229e-07 3.06579 0.287841 3.35363 0.642615 3.35363L 4.43807 3.35363L 4.44811 3.35363L 10.5598 3.35363L 10.5615 3.35363L 10.5631 3.35363L 14.3603 3.35363C 14.715 3.35363 15.0029 3.06579 15.0029 2.71102C 15.0029 2.35624 14.7167 2.0684 14.3619 2.0684L 14.3617 2.0684ZM 5.23269 2.0684L 5.39502 1.28523L 9.61048 1.28523L 9.77281 2.0684L 5.23269 2.0684Z"/>
</defs>
</svg>
