<svg width="25" height="32" viewBox="0 0 25 32" version="1.1" xmlns="http://www.w3.org/2000/svg" xmlns:xlink="http://www.w3.org/1999/xlink">
<title>aboutUs-icon</title>
<desc>Created using Figma</desc>
<g id="Canvas" transform="translate(6315 4145)">
<g id="aboutUs-icon">
<mask id="mask0_outline_ins">
<use xlink:href="#path0_fill" fill="white" transform="translate(-6315 -4145)"/>
</mask>
<g mask="url(#mask0_outline_ins)">
<use xlink:href="#path1_stroke_2x" transform="translate(-6315 -4145)" fill="#FFFFFF"/>
</g>
</g>
</g>
<defs>
<path id="path0_fill" d="M 4.28182 7.2405C 5.51399 7.2405 6.51241 6.24172 6.51241 5.00991C 6.51241 3.7781 5.51363 2.77932 4.28182 2.77932C 3.05001 2.77932 2.05123 3.7781 2.05123 5.00991C 2.05123 6.24172 3.05001 7.2405 4.28182 7.2405ZM 8.50283 18.7505L 8.61899 18.7505L 8.7886 20.8335C 9.76671 20.2527 10.9037 19.9131 12.1217 19.9131C 13.3396 19.9131 14.4766 20.2531 15.4547 20.8339L 15.6243 18.7505L 15.7405 18.7505C 16.4635 18.7505 17.0874 18.16 17.1351 17.4189L 17.7067 8.5621C 17.7672 7.62354 17.1398 6.84747 16.3045 6.84747L 7.93877 6.84747C 7.10319 6.84747 6.47606 7.62354 6.53664 8.5621L 7.10818 17.4189C 7.15593 18.16 7.77985 18.7505 8.50283 18.7505ZM 12.1217 5.82375C 13.7297 5.82375 15.0335 4.52032 15.0335 2.91188C 15.0335 1.30379 13.7301 -3.12631e-08 12.1217 -3.12631e-08C 10.5136 -3.12631e-08 9.20978 1.30343 9.20978 2.91188C 9.20978 4.51997 10.5136 5.82375 12.1217 5.82375ZM 19.9615 7.2405C 21.1933 7.2405 22.1921 6.24172 22.1921 5.00991C 22.1921 3.7781 21.1933 2.77932 19.9615 2.77932C 18.7293 2.77932 17.7309 3.7781 17.7309 5.00991C 17.7305 6.24172 18.7293 7.2405 19.9615 7.2405ZM 6.02175 17.4891L 5.45056 8.6323C 5.43738 8.4267 5.44771 8.22359 5.47586 8.02441L 1.0774 8.02441C 0.437444 8.02441 -0.0432365 8.61876 0.00308559 9.33817L 0.441007 16.1233C 0.477709 16.6909 0.955895 17.1434 1.50962 17.1434L 1.5987 17.1434L 2.24757 25.1201C 2.28178 25.5409 2.63489 25.8716 3.03754 25.8716L 5.52646 25.8716C 5.55104 25.8716 5.57278 25.8598 5.59701 25.8573C 5.68823 24.8764 5.99966 23.9603 6.47642 23.1521L 6.80388 19.1257C 6.36703 18.7041 6.06379 18.1397 6.02175 17.4891ZM 23.1656 8.02476L 18.7671 8.02476C 18.7952 8.22359 18.8056 8.4267 18.7924 8.63265L 18.2212 17.4894C 18.1792 18.1397 17.8759 18.7041 17.4391 19.1257L 17.7669 23.1543C 18.2429 23.9621 18.554 24.8774 18.6452 25.8577C 18.6698 25.8602 18.6919 25.8723 18.7168 25.8723L 21.2058 25.8723C 21.6084 25.8723 21.9615 25.5416 21.9957 25.1208L 22.6446 17.1442L 22.7337 17.1442C 23.2874 17.1442 23.7656 16.6916 23.8023 16.124L 24.2402 9.33889C 24.2862 8.61911 23.8059 8.02476 23.1656 8.02476ZM 12.1209 20.9369C 9.06582 20.9369 6.58937 23.4133 6.58937 26.4684C 6.58937 29.5236 9.06582 32 12.1209 32C 15.1761 32 17.6525 29.5236 17.6525 26.4684C 17.6529 23.4133 15.1761 20.9369 12.1209 20.9369ZM 12.7623 29.0407L 11.5718 29.0407L 11.5718 27.8912L 12.7623 27.8912L 12.7623 29.0407ZM 13.1782 26.3501C 12.8272 26.6031 12.6804 26.7581 12.6804 27.3446L 11.6046 27.3446C 11.6046 26.5618 11.6855 26.2194 12.4363 25.6899C 12.7541 25.4693 12.9412 25.2167 12.9412 24.8828C 12.9412 24.2464 12.4933 24.0757 12.1505 24.0757C 11.4168 24.0757 11.3107 24.6302 11.2697 25.0132L 11.2697 25.021L 10.1202 25.021C 10.1202 23.6025 11.1888 23.1133 12.0775 23.1133C 12.5663 23.1133 14.1648 23.2519 14.1648 24.8497C 14.1648 25.5103 13.806 25.9015 13.1782 26.3501Z"/>
<path id="path1_stroke_2x" d="M 8.61899 18.7505L 9.61569 18.6693L 9.54088 17.7505L 8.61899 17.7505L 8.61899 18.7505ZM 8.7886 20.8335L 7.7919 20.9147L 7.92189 22.5112L 9.29918 21.6934L 8.7886 20.8335ZM 15.4547 20.8339L 14.9441 21.6937L 16.3214 22.5116L 16.4514 20.915L 15.4547 20.8339ZM 15.6243 18.7505L 15.6243 17.7505L 14.7024 17.7505L 14.6276 18.6693L 15.6243 18.7505ZM 17.1351 17.4189L 16.1372 17.3545L 16.1372 17.3546L 17.1351 17.4189ZM 17.7067 8.5621L 16.7087 8.49769L 16.7087 8.4977L 17.7067 8.5621ZM 6.53664 8.5621L 7.53456 8.4977L 7.53456 8.49769L 6.53664 8.5621ZM 7.10818 17.4189L 8.10611 17.3546L 8.1061 17.3545L 7.10818 17.4189ZM 9.20978 2.91188L 10.2098 2.91188L 9.20978 2.91188ZM 17.7309 5.00991L 18.7309 5.0102L 18.7309 5.00991L 17.7309 5.00991ZM 6.02175 17.4891L 5.02382 17.5534L 5.02383 17.5536L 6.02175 17.4891ZM 5.45056 8.6323L 4.45261 8.69629L 4.45264 8.69665L 5.45056 8.6323ZM 5.47586 8.02441L 6.46602 8.16434L 6.62712 7.02441L 5.47586 7.02441L 5.47586 8.02441ZM 0.00308559 9.33817L -0.994848 9.40243L -0.994838 9.40258L 0.00308559 9.33817ZM 0.441007 16.1233L -0.556916 16.1877L -0.556909 16.1878L 0.441007 16.1233ZM 1.5987 17.1434L 2.59541 17.0624L 2.52066 16.1434L 1.5987 16.1434L 1.5987 17.1434ZM 2.24757 25.1201L 3.24428 25.0391L 3.24428 25.039L 2.24757 25.1201ZM 5.59701 25.8573L 5.69941 26.8521L 6.51665 26.768L 6.59272 25.9499L 5.59701 25.8573ZM 6.47642 23.1521L 7.33771 23.6602L 7.45449 23.4623L 7.47313 23.2332L 6.47642 23.1521ZM 6.80388 19.1257L 7.80059 19.2067L 7.83897 18.7348L 7.49825 18.4061L 6.80388 19.1257ZM 18.7671 8.02476L 18.7671 7.02476L 17.6155 7.02476L 17.777 8.16494L 18.7671 8.02476ZM 18.7924 8.63265L 19.7903 8.69701L 19.7903 8.69654L 18.7924 8.63265ZM 18.2212 17.4894L 19.2191 17.554L 19.2191 17.5538L 18.2212 17.4894ZM 17.4391 19.1257L 16.7447 18.4061L 16.404 18.7348L 16.4424 19.2068L 17.4391 19.1257ZM 17.7669 23.1543L 16.7702 23.2354L 16.7888 23.4642L 16.9054 23.662L 17.7669 23.1543ZM 18.6452 25.8577L 17.6495 25.9503L 17.7258 26.7695L 18.5443 26.8526L 18.6452 25.8577ZM 21.9957 25.1208L 20.999 25.0397L 20.999 25.0398L 21.9957 25.1208ZM 22.6446 17.1442L 22.6446 16.1442L 21.7226 16.1442L 21.6479 17.0631L 22.6446 17.1442ZM 23.8023 16.124L 24.8002 16.1885L 24.8002 16.1884L 23.8023 16.124ZM 24.2402 9.33889L 25.2381 9.40329L 25.2382 9.40262L 24.2402 9.33889ZM 17.6525 26.4684L 16.6525 26.4683L 16.6525 26.4684L 17.6525 26.4684ZM 12.7623 29.0407L 12.7623 30.0407L 13.7623 30.0407L 13.7623 29.0407L 12.7623 29.0407ZM 11.5718 29.0407L 10.5718 29.0407L 10.5718 30.0407L 11.5718 30.0407L 11.5718 29.0407ZM 11.5718 27.8912L 11.5718 26.8912L 10.5718 26.8912L 10.5718 27.8912L 11.5718 27.8912ZM 12.7623 27.8912L 13.7623 27.8912L 13.7623 26.8912L 12.7623 26.8912L 12.7623 27.8912ZM 13.1782 26.3501L 12.5968 25.5365L 12.5934 25.5389L 13.1782 26.3501ZM 12.6804 27.3446L 12.6804 28.3446L 13.6804 28.3446L 13.6804 27.3446L 12.6804 27.3446ZM 11.6046 27.3446L 10.6046 27.3446L 10.6046 28.3446L 11.6046 28.3446L 11.6046 27.3446ZM 12.4363 25.6899L 11.8662 24.8683L 11.8599 24.8727L 12.4363 25.6899ZM 11.2697 25.0132L 10.2754 24.9068L 10.2697 24.9599L 10.2697 25.0132L 11.2697 25.0132ZM 11.2697 25.021L 11.2697 26.021L 12.2697 26.021L 12.2697 25.021L 11.2697 25.021ZM 10.1202 25.021L 9.12018 25.021L 9.12018 26.021L 10.1202 26.021L 10.1202 25.021ZM 4.28182 8.2405C 6.06638 8.2405 7.51241 6.7939 7.51241 5.00991L 5.51241 5.00991C 5.51241 5.68954 4.9616 6.2405 4.28182 6.2405L 4.28182 8.2405ZM 7.51241 5.00991C 7.51241 3.22581 6.06592 1.77932 4.28182 1.77932L 4.28182 3.77932C 4.96135 3.77932 5.51241 4.33038 5.51241 5.00991L 7.51241 5.00991ZM 4.28182 1.77932C 2.49772 1.77932 1.05123 3.22582 1.05123 5.00991L 3.05123 5.00991C 3.05123 4.33038 3.60229 3.77932 4.28182 3.77932L 4.28182 1.77932ZM 1.05123 5.00991C 1.05123 6.79401 2.49772 8.2405 4.28182 8.2405L 4.28182 6.2405C 3.60229 6.2405 3.05123 5.68944 3.05123 5.00991L 1.05123 5.00991ZM 8.50283 19.7505L 8.61899 19.7505L 8.61899 17.7505L 8.50283 17.7505L 8.50283 19.7505ZM 7.62229 18.8316L 7.7919 20.9147L 9.7853 20.7524L 9.61569 18.6693L 7.62229 18.8316ZM 9.29918 21.6934C 10.1681 21.1686 11.0483 20.9026 12.1217 20.9131L 12.1217 18.9131C 10.7591 18.9237 9.36532 19.3368 8.27803 19.9737L 9.29918 21.6934ZM 12.1217 20.9131C 13.1948 20.9026 14.0751 21.1689 14.9441 21.6937L 15.9653 19.9741C 14.8781 19.3372 13.4843 18.9237 12.1217 18.9131L 12.1217 20.9131ZM 16.4514 20.915L 16.621 18.8316L 14.6276 18.6693L 14.458 20.7527L 16.4514 20.915ZM 15.6243 19.7505L 15.7405 19.7505L 15.7405 17.7505L 15.6243 17.7505L 15.6243 19.7505ZM 15.7405 19.7505C 17.0047 19.7505 18.0523 18.7365 18.1331 17.4832L 16.1372 17.3546C 16.1224 17.5836 15.9222 17.7505 15.7405 17.7505L 15.7405 19.7505ZM 18.1331 17.4833L 18.7046 8.6265L 16.7087 8.4977L 16.1372 17.3545L 18.1331 17.4833ZM 18.7046 8.62651C 18.7934 7.25087 17.8482 5.84747 16.3045 5.84747L 16.3045 7.84747C 16.394 7.84747 16.4844 7.88406 16.5663 7.98453C 16.6521 8.08978 16.7237 8.26644 16.7087 8.49769L 18.7046 8.62651ZM 16.3045 5.84747L 7.93877 5.84747L 7.93877 7.84747L 16.3045 7.84747L 16.3045 5.84747ZM 7.93877 5.84747C 6.39458 5.84747 5.44994 7.25105 5.53871 8.62651L 7.53456 8.49769C 7.51962 8.2663 7.59122 8.08964 7.67691 7.98446C 7.75866 7.88413 7.84901 7.84747 7.93877 7.84747L 7.93877 5.84747ZM 5.53871 8.6265L 6.11025 17.4833L 8.1061 17.3545L 7.53456 8.4977L 5.53871 8.6265ZM 6.11025 17.4832C 6.19099 18.7365 7.23857 19.7505 8.50283 19.7505L 8.50283 17.7505C 8.32113 17.7505 8.12086 17.5836 8.10611 17.3546L 6.11025 17.4832ZM 12.1217 6.82375C 14.2819 6.82375 16.0335 5.07269 16.0335 2.91188L 14.0335 2.91188C 14.0335 3.96796 13.1775 4.82375 12.1217 4.82375L 12.1217 6.82375ZM 16.0335 2.91188C 16.0335 0.751583 14.2825 -1 12.1217 -1L 12.1217 1C 13.1777 1 14.0335 1.85599 14.0335 2.91188L 16.0335 2.91188ZM 12.1217 -1C 9.96136 -1 8.20978 0.751068 8.20978 2.91188L 10.2098 2.91188C 10.2098 1.8558 11.0658 1 12.1217 1L 12.1217 -1ZM 8.20978 2.91188C 8.20978 5.07225 9.96128 6.82375 12.1217 6.82375L 12.1217 4.82375C 11.0658 4.82375 10.2098 3.96768 10.2098 2.91188L 8.20978 2.91188ZM 19.9615 8.2405C 21.7456 8.2405 23.1921 6.79401 23.1921 5.00991L 21.1921 5.00991C 21.1921 5.68944 20.641 6.2405 19.9615 6.2405L 19.9615 8.2405ZM 23.1921 5.00991C 23.1921 3.22581 21.7456 1.77932 19.9615 1.77932L 19.9615 3.77932C 20.641 3.77932 21.1921 4.33038 21.1921 5.00991L 23.1921 5.00991ZM 19.9615 1.77932C 18.1769 1.77932 16.7309 3.22592 16.7309 5.00991L 18.7309 5.00991C 18.7309 4.33028 19.2817 3.77932 19.9615 3.77932L 19.9615 1.77932ZM 16.7309 5.00962C 16.7304 6.7941 18.1772 8.2405 19.9615 8.2405L 19.9615 6.2405C 19.2814 6.2405 18.7307 5.68934 18.7309 5.0102L 16.7309 5.00962ZM 7.01967 17.4247L 6.44849 8.56794L 4.45264 8.69665L 5.02382 17.5534L 7.01967 17.4247ZM 6.44851 8.5683C 6.43736 8.4201 6.44314 8.31906 6.46602 8.16434L 4.4857 7.88448C 4.45228 8.12813 4.4374 8.4333 4.45261 8.69629L 6.44851 8.5683ZM 5.47586 7.02441L 1.0774 7.02441L 1.0774 9.02441L 5.47586 9.02441L 5.47586 7.02441ZM 1.0774 7.02441C -0.27101 7.02441 -1.0693 8.24605 -0.994848 9.40243L 1.00102 9.27392C 0.993172 9.15205 1.03171 9.0756 1.05808 9.04324C 1.06449 9.03537 1.06988 9.03036 1.07351 9.02742C 1.07708 9.02453 1.07906 9.02354 1.07916 9.02349C 1.07916 9.02349 1.07825 9.02391 1.07681 9.02426C 1.07528 9.02462 1.07519 9.02441 1.0774 9.02441L 1.0774 7.02441ZM -0.994838 9.40258L -0.556916 16.1877L 1.43893 16.0589L 1.00101 9.27377L -0.994838 9.40258ZM -0.556909 16.1878C -0.487105 17.2674 0.41457 18.1434 1.50962 18.1434L 1.50962 16.1434C 1.50907 16.1434 1.49308 16.143 1.47097 16.122C 1.44914 16.1012 1.44014 16.0776 1.43892 16.0588L -0.556909 16.1878ZM 1.50962 18.1434L 1.5987 18.1434L 1.5987 16.1434L 1.50962 16.1434L 1.50962 18.1434ZM 0.601995 17.2245L 1.25086 25.2012L 3.24428 25.039L 2.59541 17.0624L 0.601995 17.2245ZM 1.25086 25.2011C 1.32531 26.1171 2.09029 26.8716 3.03754 26.8716L 3.03754 24.8716C 3.11372 24.8716 3.16547 24.9025 3.19188 24.9275C 3.21882 24.953 3.24039 24.9912 3.24428 25.0391L 1.25086 25.2011ZM 3.03754 26.8716L 5.52646 26.8716L 5.52646 24.8716L 3.03754 24.8716L 3.03754 26.8716ZM 5.52646 26.8716C 5.61241 26.8716 5.68414 26.8613 5.7352 26.8514C 5.78358 26.842 5.82218 26.831 5.83316 26.8279C 5.85565 26.8216 5.83491 26.8275 5.82111 26.8309C 5.80031 26.8361 5.75665 26.8462 5.69941 26.8521L 5.49461 24.8626C 5.42525 24.8697 5.36979 24.8822 5.33733 24.8903C 5.32093 24.8944 5.30753 24.8981 5.3003 24.9001C 5.29702 24.9011 5.29361 24.902 5.29204 24.9025C 5.29046 24.9029 5.2907 24.9029 5.29058 24.9029C 5.29127 24.9027 5.29831 24.9007 5.30819 24.8982C 5.31839 24.8956 5.3341 24.8919 5.35369 24.8881C 5.39301 24.8804 5.4528 24.8716 5.52646 24.8716L 5.52646 26.8716ZM 6.59272 25.9499C 6.66622 25.085 6.90848 24.3775 7.33771 23.6602L 5.61513 22.644C 5.09083 23.5431 4.71024 24.6677 4.60131 25.7647L 6.59272 25.9499ZM 7.47313 23.2332L 7.80059 19.2067L 5.80717 19.0446L 5.47971 23.0711L 7.47313 23.2332ZM 7.49825 18.4061C 7.16424 18.1005 7.02519 17.8646 7.01967 17.4246L 5.02383 17.5536C 5.1024 18.4149 5.56981 19.3078 6.1095 19.8453L 7.49825 18.4061ZM 23.1656 7.02476L 18.7671 7.02476L 18.7671 9.02476L 23.1656 9.02476L 23.1656 7.02476ZM 17.777 8.16494C 17.7998 8.31918 17.8056 8.42015 17.7944 8.56877L 19.7903 8.69654C 19.8055 8.43324 19.7907 8.128 19.7572 7.88458L 17.777 8.16494ZM 17.7945 8.5683L 17.2233 17.4251L 19.2191 17.5538L 19.7903 8.69701L 17.7945 8.5683ZM 17.2233 17.4249C 17.2178 17.8645 17.0787 18.1005 16.7447 18.4061L 18.1334 19.8453C 18.6731 19.3078 19.1405 18.4149 19.2191 17.554L 17.2233 17.4249ZM 16.4424 19.2068L 16.7702 23.2354L 18.7636 23.0732L 18.4358 19.0446L 16.4424 19.2068ZM 16.9054 23.662C 17.334 24.379 17.576 25.0861 17.6495 25.9503L 19.6409 25.765C 19.532 24.6688 19.1519 23.5451 18.6284 22.6465L 16.9054 23.662ZM 18.5443 26.8526C 18.4857 26.8466 18.441 26.8363 18.4197 26.8309C 18.4052 26.8273 18.3843 26.8212 18.4066 26.8276C 18.4175 26.8307 18.4565 26.8419 18.5053 26.8515C 18.5568 26.8617 18.6296 26.8723 18.7168 26.8723L 18.7168 24.8723C 18.7916 24.8723 18.8523 24.8814 18.8919 24.8892C 18.9117 24.8931 18.9275 24.897 18.9377 24.8996C 18.9476 24.9021 18.9546 24.9041 18.9552 24.9043C 18.9551 24.9043 18.9551 24.9043 18.9535 24.9038C 18.9518 24.9033 18.9483 24.9023 18.9449 24.9013C 18.9374 24.8992 18.9237 24.8954 18.9069 24.8912C 18.8737 24.8828 18.817 24.87 18.7462 24.8628L 18.5443 26.8526ZM 18.7168 26.8723L 21.2058 26.8723L 21.2058 24.8723L 18.7168 24.8723L 18.7168 26.8723ZM 21.2058 26.8723C 22.153 26.8723 22.918 26.1178 22.9924 25.2018L 20.999 25.0398C 21.0029 24.9919 21.0245 24.9537 21.0514 24.9282C 21.0778 24.9032 21.1296 24.8723 21.2058 24.8723L 21.2058 26.8723ZM 22.9924 25.2019L 23.6413 17.2252L 21.6479 17.0631L 20.999 25.0397L 22.9924 25.2019ZM 22.6446 18.1442L 22.7337 18.1442L 22.7337 16.1442L 22.6446 16.1442L 22.6446 18.1442ZM 22.7337 18.1442C 23.8287 18.1442 24.7304 17.2681 24.8002 16.1885L 22.8044 16.0595C 22.8032 16.0783 22.7942 16.1019 22.7723 16.1227C 22.7502 16.1437 22.7342 16.1442 22.7337 16.1442L 22.7337 18.1442ZM 24.8002 16.1884L 25.2381 9.40329L 23.2423 9.27448L 22.8044 16.0596L 24.8002 16.1884ZM 25.2382 9.40262C 25.312 8.24678 24.5147 7.02476 23.1656 7.02476L 23.1656 9.02476C 23.1678 9.02476 23.1678 9.02498 23.1663 9.02463C 23.1575 9.02298 23.1731 9.02766 23.1646 9.02412C 23.1641 9.02394 23.1639 9.02383 23.164 9.02387C 23.1641 9.02391 23.166 9.02489 23.1696 9.02777C 23.1732 9.0307 23.1786 9.0357 23.185 9.04357C 23.2114 9.07593 23.2501 9.15265 23.2423 9.27515L 25.2382 9.40262ZM 12.1209 19.9369C 8.51354 19.9369 5.58937 22.861 5.58937 26.4684L 7.58937 26.4684C 7.58937 23.9656 9.61811 21.9369 12.1209 21.9369L 12.1209 19.9369ZM 5.58937 26.4684C 5.58937 30.0758 8.51354 33 12.1209 33L 12.1209 31C 9.61811 31 7.58937 28.9713 7.58937 26.4684L 5.58937 26.4684ZM 12.1209 33C 15.7283 33 18.6525 30.0758 18.6525 26.4684L 16.6525 26.4684C 16.6525 28.9713 14.6238 31 12.1209 31L 12.1209 33ZM 18.6525 26.4685C 18.6529 22.8609 15.7282 19.9369 12.1209 19.9369L 12.1209 21.9369C 14.6239 21.9369 16.6528 23.9657 16.6525 26.4683L 18.6525 26.4685ZM 12.7623 28.0407L 11.5718 28.0407L 11.5718 30.0407L 12.7623 30.0407L 12.7623 28.0407ZM 12.5718 29.0407L 12.5718 27.8912L 10.5718 27.8912L 10.5718 29.0407L 12.5718 29.0407ZM 11.5718 28.8912L 12.7623 28.8912L 12.7623 26.8912L 11.5718 26.8912L 11.5718 28.8912ZM 11.7623 27.8912L 11.7623 29.0407L 13.7623 29.0407L 13.7623 27.8912L 11.7623 27.8912ZM 12.5934 25.5389C 12.4168 25.6662 12.1243 25.8785 11.9254 26.2332C 11.7217 26.5966 11.6804 26.9845 11.6804 27.3446L 13.6804 27.3446C 13.6804 27.2358 13.6875 27.1834 13.6911 27.1646C 13.6935 27.152 13.6904 27.1748 13.6699 27.2114C 13.6494 27.2479 13.6301 27.2651 13.6368 27.2587C 13.6504 27.246 13.6816 27.22 13.7629 27.1614L 12.5934 25.5389ZM 12.6804 26.3446L 11.6046 26.3446L 11.6046 28.3446L 12.6804 28.3446L 12.6804 26.3446ZM 12.6046 27.3446C 12.6046 26.955 12.6333 26.871 12.6485 26.8378C 12.6546 26.8243 12.6948 26.7312 13.0126 26.5071L 11.8599 24.8727C 11.427 25.178 11.0513 25.5209 10.8294 26.0067C 10.6164 26.4727 10.6046 26.9514 10.6046 27.3446L 12.6046 27.3446ZM 13.0064 26.5114C 13.4635 26.1942 13.9412 25.6759 13.9412 24.8828L 11.9412 24.8828C 11.9412 24.8712 11.9431 24.8514 11.9502 24.8281C 11.9572 24.805 11.966 24.7892 11.9706 24.7821C 11.9746 24.776 11.9722 24.7814 11.9557 24.7973C 11.9389 24.8135 11.9107 24.8374 11.8662 24.8683L 13.0064 26.5114ZM 13.9412 24.8828C 13.9412 24.3034 13.7222 23.7937 13.294 23.4557C 12.9075 23.1506 12.4646 23.0757 12.1505 23.0757L 12.1505 25.0757C 12.1561 25.0757 12.1539 25.0767 12.1422 25.0734C 12.1297 25.0698 12.0958 25.0579 12.0548 25.0255C 12.0099 24.99 11.9742 24.9437 11.9535 24.8977C 11.9343 24.8547 11.9412 24.8416 11.9412 24.8828L 13.9412 24.8828ZM 12.1505 23.0757C 11.482 23.0757 10.9428 23.3555 10.6163 23.8491C 10.3472 24.2558 10.2965 24.7093 10.2754 24.9068L 12.264 25.1196C 12.2725 25.04 12.2808 24.9897 12.29 24.9539C 12.2992 24.9182 12.3024 24.9254 12.2843 24.9526C 12.2744 24.9677 12.2587 24.9876 12.2361 25.0083C 12.2131 25.0294 12.1879 25.0467 12.1631 25.0594C 12.1111 25.0859 12.094 25.0757 12.1505 25.0757L 12.1505 23.0757ZM 10.2697 25.0132L 10.2697 25.021L 12.2697 25.021L 12.2697 25.0132L 10.2697 25.0132ZM 11.2697 24.021L 10.1202 24.021L 10.1202 26.021L 11.2697 26.021L 11.2697 24.021ZM 11.1202 25.021C 11.1202 24.5943 11.2651 24.4152 11.3865 24.3191C 11.5448 24.1937 11.7964 24.1133 12.0775 24.1133L 12.0775 22.1133C 11.4698 22.1133 10.7428 22.2775 10.1446 22.7514C 9.50955 23.2544 9.12018 24.0292 9.12018 25.021L 11.1202 25.021ZM 12.0775 24.1133C 12.2626 24.1133 12.5979 24.1449 12.8511 24.2736C 12.9989 24.3438 13.0167 24.3466 13.0738 24.4567C 13.1116 24.5136 13.1648 24.6254 13.1648 24.8497L 15.1648 24.8497C 15.1648 23.6212 14.5037 22.8704 13.7579 22.491C 13.109 22.1838 12.3551 22.1138 12.0775 22.1133L 12.0775 24.1133ZM 13.1648 24.8497C 13.1648 24.9738 13.1389 25.0339 13.092 25.0998C 13.0226 25.1974 12.8866 25.3294 12.5968 25.5365L 13.7595 27.1638C 14.1074 26.9141 14.4759 26.5916 14.7218 26.259C 14.9651 25.8989 15.1513 25.3436 15.1648 24.8497L 13.1648 24.8497Z"/>
</defs>
</svg>
