<svg width="32" height="23" viewBox="0 0 32 23" version="1.1" xmlns="http://www.w3.org/2000/svg" xmlns:xlink="http://www.w3.org/1999/xlink">
<title>blogPost-icon</title>
<desc>Created using Figma</desc>
<g id="Canvas" transform="translate(6315 4196)">
<g id="blogPost-icon">
<use xlink:href="#path0_fill" transform="translate(-6315 -4196)" fill="#FFFFFF"/>
<mask id="mask0_outline_ins">
<use xlink:href="#path0_fill" fill="white" transform="translate(-6315 -4196)"/>
</mask>
<g mask="url(#mask0_outline_ins)">
<use xlink:href="#path1_stroke_2x" transform="translate(-6315 -4196)" fill="#FFFFFF"/>
</g>
</g>
</g>
<defs>
<path id="path0_fill" d="M 31.4286 5.14286L 28 5.14286L 28 0.571429C 28 0.22768 27.7723 0 27.4286 0L 0.571429 0C 0.22768 0 0 0.22768 0 0.571429L 0 22.2857C 0 22.6295 0.22768 22.8571 0.571429 22.8571L 27.4286 22.8571C 27.7232 22.8571 27.9286 22.6964 28 22.3996L 32 5.82813C 32 5.42187 31.8103 5.14287 31.4286 5.14287L 31.4286 5.14286ZM 26.8571 21.7143L 1.14286 21.7143L 1.14286 1.14286L 26.8571 1.14286L 26.8571 21.7143ZM 28 17.4866L 28 6.28549L 30.6853 6.28549L 28 17.4866ZM 12 3.42834L 4 3.42834C 3.65625 3.42834 3.42857 3.65602 3.42857 3.99977L 3.42857 11.9998C 3.42857 12.3435 3.65625 12.5712 4 12.5712L 12 12.5712C 12.3437 12.5712 12.5714 12.3435 12.5714 11.9998L 12.5714 3.99977C 12.5714 3.65602 12.3437 3.42834 12 3.42834ZM 11.4286 11.4283L 4.57143 11.4283L 4.57143 4.5712L 11.4286 4.5712L 11.4286 11.4283ZM 24 3.42834L 19.4286 3.42834C 19.0848 3.42834 18.8571 3.65602 18.8571 3.99977L 18.8571 6.28549C 18.8571 6.62923 19.0848 6.85691 19.4286 6.85691L 24 6.85691C 24.3437 6.85691 24.5714 6.62923 24.5714 6.28549L 24.5714 3.99977C 24.5714 3.65602 24.3437 3.42834 24 3.42834ZM 23.4286 5.71406L 20 5.71406L 20 4.5712L 23.4286 4.5712L 23.4286 5.71406ZM 24 17.4283L 15.4286 17.4283C 15.0446 17.4283 15.0446 16.8569 15.4286 16.8569L 24 16.8569C 24.3839 16.8569 24.3839 17.4283 24 17.4283ZM 12 17.4283L 4 17.4283C 3.61607 17.4283 3.61607 16.8569 4 16.8569L 12 16.8569C 12.3839 16.8569 12.3839 17.4283 12 17.4283ZM 24 15.7141L 15.4286 15.7141C 15.0446 15.7141 15.0446 15.1426 15.4286 15.1426L 24 15.1426C 24.3839 15.1426 24.3839 15.7141 24 15.7141ZM 12 15.7141L 4 15.7141C 3.61607 15.7141 3.61607 15.1426 4 15.1426L 12 15.1426C 12.3839 15.1426 12.3839 15.7141 12 15.7141ZM 24 19.1426L 15.4286 19.1426C 15.0446 19.1426 15.0446 18.5712 15.4286 18.5712L 24 18.5712C 24.3839 18.5712 24.3839 19.1426 24 19.1426ZM 12 19.1426L 4 19.1426C 3.61607 19.1426 3.61607 18.5712 4 18.5712L 12 18.5712C 12.3839 18.5712 12.3839 19.1426 12 19.1426ZM 24 8.85691L 15.4286 8.85691C 15.0446 8.85691 15.0446 8.28549 15.4286 8.28549L 24 8.28549C 24.3839 8.28549 24.3839 8.85691 24 8.85691ZM 24 10.5712L 15.4286 10.5712C 15.0446 10.5712 15.0446 9.99977 15.4286 9.99977L 24 9.99977C 24.3839 9.99977 24.3839 10.5712 24 10.5712ZM 24 12.2855L 15.4286 12.2855C 15.0446 12.2855 15.0446 11.7141 15.4286 11.7141L 24 11.7141C 24.3839 11.7141 24.3839 12.2855 24 12.2855Z"/>
<path id="path1_stroke_2x" d="M 31.4286 5.14286L 32.4286 5.14286L 32.4286 4.14286L 31.4286 4.14286L 31.4286 5.14286ZM 28 5.14286L 27 5.14286L 27 6.14286L 28 6.14286L 28 5.14286ZM 28 22.3996L 27.0279 22.1649L 27.0277 22.1656L 28 22.3996ZM 32 5.82813L 32.9721 6.06277L 33 5.94711L 33 5.82813L 32 5.82813ZM 31.4286 5.14287L 30.4286 5.14287L 30.4286 6.14287L 31.4286 6.14287L 31.4286 5.14287ZM 26.8571 21.7143L 26.8571 22.7143L 27.8571 22.7143L 27.8571 21.7143L 26.8571 21.7143ZM 1.14286 21.7143L 0.142857 21.7143L 0.142857 22.7143L 1.14286 22.7143L 1.14286 21.7143ZM 1.14286 1.14286L 1.14286 0.142857L 0.142857 0.142857L 0.142857 1.14286L 1.14286 1.14286ZM 26.8571 1.14286L 27.8571 1.14286L 27.8571 0.142857L 26.8571 0.142857L 26.8571 1.14286ZM 28 17.4866L 27 17.4866L 28.9724 17.7198L 28 17.4866ZM 28 6.28549L 28 5.28549L 27 5.28549L 27 6.28549L 28 6.28549ZM 30.6853 6.28549L 31.6577 6.51861L 31.9533 5.28549L 30.6853 5.28549L 30.6853 6.28549ZM 11.4286 11.4283L 11.4286 12.4283L 12.4286 12.4283L 12.4286 11.4283L 11.4286 11.4283ZM 4.57143 11.4283L 3.57143 11.4283L 3.57143 12.4283L 4.57143 12.4283L 4.57143 11.4283ZM 4.57143 4.5712L 4.57143 3.5712L 3.57143 3.5712L 3.57143 4.5712L 4.57143 4.5712ZM 11.4286 4.5712L 12.4286 4.5712L 12.4286 3.5712L 11.4286 3.5712L 11.4286 4.5712ZM 23.4286 5.71406L 23.4286 6.71406L 24.4286 6.71406L 24.4286 5.71406L 23.4286 5.71406ZM 20 5.71406L 19 5.71406L 19 6.71406L 20 6.71406L 20 5.71406ZM 20 4.5712L 20 3.5712L 19 3.5712L 19 4.5712L 20 4.5712ZM 23.4286 4.5712L 24.4286 4.5712L 24.4286 3.5712L 23.4286 3.5712L 23.4286 4.5712ZM 31.4286 4.14286L 28 4.14286L 28 6.14286L 31.4286 6.14286L 31.4286 4.14286ZM 29 5.14286L 29 0.571429L 27 0.571429L 27 5.14286L 29 5.14286ZM 29 0.571429C 29 0.17395 28.864 -0.236606 28.5503 -0.550298C 28.2366 -0.863991 27.826 -1 27.4286 -1L 27.4286 1C 27.3748 1 27.25 0.977831 27.1361 0.863915C 27.0222 0.75 27 0.625158 27 0.571429L 29 0.571429ZM 27.4286 -1L 0.571429 -1L 0.571429 1L 27.4286 1L 27.4286 -1ZM 0.571429 -1C 0.17395 -1 -0.236606 -0.863991 -0.550298 -0.550298C -0.863991 -0.236606 -1 0.17395 -1 0.571429L 1 0.571429C 1 0.625158 0.977831 0.75 0.863915 0.863915C 0.75 0.977831 0.625158 1 0.571429 1L 0.571429 -1ZM -1 0.571429L -1 22.2857L 1 22.2857L 1 0.571429L -1 0.571429ZM -1 22.2857C -1 22.6832 -0.863991 23.0937 -0.550298 23.4074C -0.236606 23.7211 0.17395 23.8571 0.571429 23.8571L 0.571429 21.8571C 0.625158 21.8571 0.75 21.8793 0.863915 21.9932C 0.977831 22.1071 1 22.232 1 22.2857L -1 22.2857ZM 0.571429 23.8571L 27.4286 23.8571L 27.4286 21.8571L 0.571429 21.8571L 0.571429 23.8571ZM 27.4286 23.8571C 27.7618 23.8571 28.1175 23.7635 28.4208 23.5221C 28.7232 23.2814 28.8945 22.9567 28.9723 22.6335L 27.0277 22.1656C 27.0341 22.1393 27.067 22.0434 27.1752 21.9573C 27.2843 21.8705 27.39 21.8571 27.4286 21.8571L 27.4286 23.8571ZM 28.9721 22.6342L 32.9721 6.06277L 31.0279 5.59348L 27.0279 22.1649L 28.9721 22.6342ZM 33 5.82813C 33 5.48604 32.922 5.06786 32.6423 4.71356C 32.3357 4.32511 31.8884 4.14287 31.4286 4.14287L 31.4286 6.14287C 31.4012 6.14287 31.3405 6.13748 31.2649 6.10308C 31.1869 6.06762 31.1206 6.01369 31.0725 5.95275C 30.9831 5.83951 31 5.76396 31 5.82813L 33 5.82813ZM 32.4286 5.14287L 32.4286 5.14286L 30.4286 5.14286L 30.4286 5.14287L 32.4286 5.14287ZM 26.8571 20.7143L 1.14286 20.7143L 1.14286 22.7143L 26.8571 22.7143L 26.8571 20.7143ZM 2.14286 21.7143L 2.14286 1.14286L 0.142857 1.14286L 0.142857 21.7143L 2.14286 21.7143ZM 1.14286 2.14286L 26.8571 2.14286L 26.8571 0.142857L 1.14286 0.142857L 1.14286 2.14286ZM 25.8571 1.14286L 25.8571 21.7143L 27.8571 21.7143L 27.8571 1.14286L 25.8571 1.14286ZM 29 17.4866L 29 6.28549L 27 6.28549L 27 17.4866L 29 17.4866ZM 28 7.28549L 30.6853 7.28549L 30.6853 5.28549L 28 5.28549L 28 7.28549ZM 29.7128 6.05236L 27.0276 17.2535L 28.9724 17.7198L 31.6577 6.51861L 29.7128 6.05236ZM 12 2.42834L 4 2.42834L 4 4.42834L 12 4.42834L 12 2.42834ZM 4 2.42834C 3.60252 2.42834 3.19197 2.56435 2.87827 2.87804C 2.56458 3.19174 2.42857 3.60229 2.42857 3.99977L 4.42857 3.99977C 4.42857 4.0535 4.4064 4.17834 4.29249 4.29226C 4.17857 4.40617 4.05373 4.42834 4 4.42834L 4 2.42834ZM 2.42857 3.99977L 2.42857 11.9998L 4.42857 11.9998L 4.42857 3.99977L 2.42857 3.99977ZM 2.42857 11.9998C 2.42857 12.3972 2.56458 12.8078 2.87827 13.1215C 3.19197 13.4352 3.60252 13.5712 4 13.5712L 4 11.5712C 4.05373 11.5712 4.17857 11.5934 4.29249 11.7073C 4.4064 11.8212 4.42857 11.946 4.42857 11.9998L 2.42857 11.9998ZM 4 13.5712L 12 13.5712L 12 11.5712L 4 11.5712L 4 13.5712ZM 12 13.5712C 12.3975 13.5712 12.808 13.4352 13.1217 13.1215C 13.4354 12.8078 13.5714 12.3972 13.5714 11.9998L 11.5714 11.9998C 11.5714 11.946 11.5936 11.8212 11.7075 11.7073C 11.8214 11.5934 11.9463 11.5712 12 11.5712L 12 13.5712ZM 13.5714 11.9998L 13.5714 3.99977L 11.5714 3.99977L 11.5714 11.9998L 13.5714 11.9998ZM 13.5714 3.99977C 13.5714 3.60229 13.4354 3.19174 13.1217 2.87804C 12.808 2.56435 12.3975 2.42834 12 2.42834L 12 4.42834C 11.9463 4.42834 11.8214 4.40617 11.7075 4.29226C 11.5936 4.17834 11.5714 4.0535 11.5714 3.99977L 13.5714 3.99977ZM 11.4286 10.4283L 4.57143 10.4283L 4.57143 12.4283L 11.4286 12.4283L 11.4286 10.4283ZM 5.57143 11.4283L 5.57143 4.5712L 3.57143 4.5712L 3.57143 11.4283L 5.57143 11.4283ZM 4.57143 5.5712L 11.4286 5.5712L 11.4286 3.5712L 4.57143 3.5712L 4.57143 5.5712ZM 10.4286 4.5712L 10.4286 11.4283L 12.4286 11.4283L 12.4286 4.5712L 10.4286 4.5712ZM 24 2.42834L 19.4286 2.42834L 19.4286 4.42834L 24 4.42834L 24 2.42834ZM 19.4286 2.42834C 19.0311 2.42834 18.6205 2.56435 18.3068 2.87804C 17.9932 3.19174 17.8571 3.60229 17.8571 3.99977L 19.8571 3.99977C 19.8571 4.0535 19.835 4.17834 19.7211 4.29226C 19.6071 4.40617 19.4823 4.42834 19.4286 4.42834L 19.4286 2.42834ZM 17.8571 3.99977L 17.8571 6.28549L 19.8571 6.28549L 19.8571 3.99977L 17.8571 3.99977ZM 17.8571 6.28549C 17.8571 6.68296 17.9932 7.09352 18.3068 7.40721C 18.6205 7.7209 19.0311 7.85691 19.4286 7.85691L 19.4286 5.85691C 19.4823 5.85691 19.6071 5.87908 19.7211 5.993C 19.835 6.10691 19.8571 6.23176 19.8571 6.28549L 17.8571 6.28549ZM 19.4286 7.85691L 24 7.85691L 24 5.85691L 19.4286 5.85691L 19.4286 7.85691ZM 24 7.85691C 24.3975 7.85691 24.808 7.7209 25.1217 7.40721C 25.4354 7.09352 25.5714 6.68296 25.5714 6.28549L 23.5714 6.28549C 23.5714 6.23176 23.5936 6.10691 23.7075 5.993C 23.8214 5.87908 23.9463 5.85691 24 5.85691L 24 7.85691ZM 25.5714 6.28549L 25.5714 3.99977L 23.5714 3.99977L 23.5714 6.28549L 25.5714 6.28549ZM 25.5714 3.99977C 25.5714 3.60229 25.4354 3.19174 25.1217 2.87804C 24.808 2.56435 24.3975 2.42834 24 2.42834L 24 4.42834C 23.9463 4.42834 23.8214 4.40617 23.7075 4.29226C 23.5936 4.17834 23.5714 4.0535 23.5714 3.99977L 25.5714 3.99977ZM 23.4286 4.71406L 20 4.71406L 20 6.71406L 23.4286 6.71406L 23.4286 4.71406ZM 21 5.71406L 21 4.5712L 19 4.5712L 19 5.71406L 21 5.71406ZM 20 5.5712L 23.4286 5.5712L 23.4286 3.5712L 20 3.5712L 20 5.5712ZM 22.4286 4.5712L 22.4286 5.71406L 24.4286 5.71406L 24.4286 4.5712L 22.4286 4.5712ZM 24 16.4283L 15.4286 16.4283L 15.4286 18.4283L 24 18.4283L 24 16.4283ZM 15.4286 16.4283C 15.6012 16.4283 15.8056 16.5023 15.9574 16.6718C 16.0934 16.8235 16.1406 16.9989 16.1406 17.1426C 16.1406 17.2864 16.0934 17.4617 15.9574 17.6135C 15.8056 17.783 15.6012 17.8569 15.4286 17.8569L 15.4286 15.8569C 15.0639 15.8569 14.7157 16.0023 14.4678 16.2789C 14.2359 16.5378 14.1406 16.856 14.1406 17.1426C 14.1406 17.4292 14.2359 17.7474 14.4678 18.0063C 14.7157 18.283 15.0639 18.4283 15.4286 18.4283L 15.4286 16.4283ZM 15.4286 17.8569L 24 17.8569L 24 15.8569L 15.4286 15.8569L 15.4286 17.8569ZM 24 17.8569C 23.8273 17.8569 23.623 17.783 23.4711 17.6135C 23.3352 17.4617 23.2879 17.2864 23.2879 17.1426C 23.2879 16.9989 23.3352 16.8235 23.4711 16.6718C 23.623 16.5023 23.8273 16.4283 24 16.4283L 24 18.4283C 24.3646 18.4283 24.7129 18.283 24.9608 18.0063C 25.1927 17.7474 25.2879 17.4292 25.2879 17.1426C 25.2879 16.856 25.1927 16.5378 24.9608 16.2789C 24.7129 16.0023 24.3646 15.8569 24 15.8569L 24 17.8569ZM 12 16.4283L 4 16.4283L 4 18.4283L 12 18.4283L 12 16.4283ZM 4 16.4283C 4.17267 16.4283 4.37698 16.5023 4.52887 16.6718C 4.6648 16.8235 4.71205 16.9989 4.71205 17.1426C 4.71205 17.2864 4.6648 17.4617 4.52887 17.6135C 4.37698 17.783 4.17267 17.8569 4 17.8569L 4 15.8569C 3.63537 15.8569 3.28708 16.0023 3.03921 16.2789C 2.8073 16.5378 2.71205 16.856 2.71205 17.1426C 2.71205 17.4292 2.8073 17.7474 3.03921 18.0063C 3.28708 18.283 3.63537 18.4283 4 18.4283L 4 16.4283ZM 4 17.8569L 12 17.8569L 12 15.8569L 4 15.8569L 4 17.8569ZM 12 17.8569C 11.8273 17.8569 11.623 17.783 11.4711 17.6135C 11.3352 17.4617 11.2879 17.2864 11.2879 17.1426C 11.2879 16.9989 11.3352 16.8235 11.4711 16.6718C 11.623 16.5023 11.8273 16.4283 12 16.4283L 12 18.4283C 12.3646 18.4283 12.7129 18.283 12.9608 18.0063C 13.1927 17.7474 13.2879 17.4292 13.2879 17.1426C 13.2879 16.856 13.1927 16.5378 12.9608 16.2789C 12.7129 16.0023 12.3646 15.8569 12 15.8569L 12 17.8569ZM 24 14.7141L 15.4286 14.7141L 15.4286 16.7141L 24 16.7141L 24 14.7141ZM 15.4286 14.7141C 15.6012 14.7141 15.8056 14.788 15.9574 14.9575C 16.0934 15.1093 16.1406 15.2846 16.1406 15.4283C 16.1406 15.5721 16.0934 15.7474 15.9574 15.8992C 15.8056 16.0687 15.6012 16.1426 15.4286 16.1426L 15.4286 14.1426C 15.0639 14.1426 14.7157 14.288 14.4678 14.5647C 14.2359 14.8235 14.1406 15.1417 14.1406 15.4283C 14.1406 15.715 14.2359 16.0331 14.4678 16.292C 14.7157 16.5687 15.0639 16.7141 15.4286 16.7141L 15.4286 14.7141ZM 15.4286 16.1426L 24 16.1426L 24 14.1426L 15.4286 14.1426L 15.4286 16.1426ZM 24 16.1426C 23.8273 16.1426 23.623 16.0687 23.4711 15.8992C 23.3352 15.7474 23.2879 15.5721 23.2879 15.4283C 23.2879 15.2846 23.3352 15.1093 23.4711 14.9575C 23.623 14.788 23.8273 14.7141 24 14.7141L 24 16.7141C 24.3646 16.7141 24.7129 16.5687 24.9608 16.292C 25.1927 16.0331 25.2879 15.715 25.2879 15.4283C 25.2879 15.1417 25.1927 14.8235 24.9608 14.5647C 24.7129 14.288 24.3646 14.1426 24 14.1426L 24 16.1426ZM 12 14.7141L 4 14.7141L 4 16.7141L 12 16.7141L 12 14.7141ZM 4 14.7141C 4.17267 14.7141 4.37698 14.788 4.52887 14.9575C 4.6648 15.1093 4.71205 15.2846 4.71205 15.4283C 4.71205 15.5721 4.6648 15.7474 4.52887 15.8992C 4.37698 16.0687 4.17267 16.1426 4 16.1426L 4 14.1426C 3.63537 14.1426 3.28708 14.288 3.03921 14.5647C 2.8073 14.8235 2.71205 15.1417 2.71205 15.4283C 2.71205 15.715 2.8073 16.0331 3.03921 16.292C 3.28708 16.5687 3.63537 16.7141 4 16.7141L 4 14.7141ZM 4 16.1426L 12 16.1426L 12 14.1426L 4 14.1426L 4 16.1426ZM 12 16.1426C 11.8273 16.1426 11.623 16.0687 11.4711 15.8992C 11.3352 15.7474 11.2879 15.5721 11.2879 15.4283C 11.2879 15.2846 11.3352 15.1093 11.4711 14.9575C 11.623 14.788 11.8273 14.7141 12 14.7141L 12 16.7141C 12.3646 16.7141 12.7129 16.5687 12.9608 16.292C 13.1927 16.0331 13.2879 15.715 13.2879 15.4283C 13.2879 15.1417 13.1927 14.8235 12.9608 14.5647C 12.7129 14.288 12.3646 14.1426 12 14.1426L 12 16.1426ZM 24 18.1426L 15.4286 18.1426L 15.4286 20.1426L 24 20.1426L 24 18.1426ZM 15.4286 18.1426C 15.6012 18.1426 15.8056 18.2165 15.9574 18.3861C 16.0934 18.5378 16.1406 18.7132 16.1406 18.8569C 16.1406 19.0007 16.0934 19.176 15.9574 19.3277C 15.8056 19.4973 15.6012 19.5712 15.4286 19.5712L 15.4286 17.5712C 15.0639 17.5712 14.7157 17.7165 14.4678 17.9932C 14.2359 18.2521 14.1406 18.5703 14.1406 18.8569C 14.1406 19.1435 14.2359 19.4617 14.4678 19.7206C 14.7157 19.9973 15.0639 20.1426 15.4286 20.1426L 15.4286 18.1426ZM 15.4286 19.5712L 24 19.5712L 24 17.5712L 15.4286 17.5712L 15.4286 19.5712ZM 24 19.5712C 23.8273 19.5712 23.623 19.4973 23.4711 19.3277C 23.3352 19.176 23.2879 19.0007 23.2879 18.8569C 23.2879 18.7132 23.3352 18.5378 23.4711 18.3861C 23.623 18.2165 23.8273 18.1426 24 18.1426L 24 20.1426C 24.3646 20.1426 24.7129 19.9973 24.9608 19.7206C 25.1927 19.4617 25.2879 19.1435 25.2879 18.8569C 25.2879 18.5703 25.1927 18.2521 24.9608 17.9932C 24.7129 17.7165 24.3646 17.5712 24 17.5712L 24 19.5712ZM 12 18.1426L 4 18.1426L 4 20.1426L 12 20.1426L 12 18.1426ZM 4 18.1426C 4.17267 18.1426 4.37698 18.2165 4.52887 18.3861C 4.6648 18.5378 4.71205 18.7132 4.71205 18.8569C 4.71205 19.0007 4.6648 19.176 4.52887 19.3277C 4.37698 19.4973 4.17267 19.5712 4 19.5712L 4 17.5712C 3.63537 17.5712 3.28708 17.7165 3.03921 17.9932C 2.8073 18.2521 2.71205 18.5703 2.71205 18.8569C 2.71205 19.1435 2.8073 19.4617 3.03921 19.7206C 3.28708 19.9973 3.63537 20.1426 4 20.1426L 4 18.1426ZM 4 19.5712L 12 19.5712L 12 17.5712L 4 17.5712L 4 19.5712ZM 12 19.5712C 11.8273 19.5712 11.623 19.4973 11.4711 19.3277C 11.3352 19.176 11.2879 19.0007 11.2879 18.8569C 11.2879 18.7132 11.3352 18.5378 11.4711 18.3861C 11.623 18.2165 11.8273 18.1426 12 18.1426L 12 20.1426C 12.3646 20.1426 12.7129 19.9973 12.9608 19.7206C 13.1927 19.4617 13.2879 19.1435 13.2879 18.8569C 13.2879 18.5703 13.1927 18.2521 12.9608 17.9932C 12.7129 17.7165 12.3646 17.5712 12 17.5712L 12 19.5712ZM 24 7.85691L 15.4286 7.85691L 15.4286 9.85691L 24 9.85691L 24 7.85691ZM 15.4286 7.85691C 15.6012 7.85691 15.8056 7.93082 15.9574 8.10038C 16.0934 8.25211 16.1406 8.42744 16.1406 8.5712C 16.1406 8.71496 16.0934 8.89029 15.9574 9.04202C 15.8056 9.21158 15.6012 9.28549 15.4286 9.28549L 15.4286 7.28549C 15.0639 7.28549 14.7157 7.43082 14.4678 7.70752C 14.2359 7.96639 14.1406 8.28458 14.1406 8.5712C 14.1406 8.85782 14.2359 9.17601 14.4678 9.43488C 14.7157 9.71158 15.0639 9.85691 15.4286 9.85691L 15.4286 7.85691ZM 15.4286 9.28549L 24 9.28549L 24 7.28549L 15.4286 7.28549L 15.4286 9.28549ZM 24 9.28549C 23.8273 9.28549 23.623 9.21158 23.4711 9.04202C 23.3352 8.89029 23.2879 8.71496 23.2879 8.5712C 23.2879 8.42744 23.3352 8.25211 23.4711 8.10038C 23.623 7.93082 23.8273 7.85691 24 7.85691L 24 9.85691C 24.3646 9.85691 24.7129 9.71158 24.9608 9.43488C 25.1927 9.17601 25.2879 8.85782 25.2879 8.5712C 25.2879 8.28458 25.1927 7.96639 24.9608 7.70752C 24.7129 7.43082 24.3646 7.28549 24 7.28549L 24 9.28549ZM 24 9.5712L 15.4286 9.5712L 15.4286 11.5712L 24 11.5712L 24 9.5712ZM 15.4286 9.5712C 15.6012 9.5712 15.8056 9.64511 15.9574 9.81466C 16.0934 9.96639 16.1406 10.1417 16.1406 10.2855C 16.1406 10.4292 16.0934 10.6046 15.9574 10.7563C 15.8056 10.9259 15.6012 10.9998 15.4286 10.9998L 15.4286 8.99977C 15.0639 8.99977 14.7157 9.14511 14.4678 9.42181C 14.2359 9.68068 14.1406 9.99887 14.1406 10.2855C 14.1406 10.5721 14.2359 10.8903 14.4678 11.1492C 14.7157 11.4259 15.0639 11.5712 15.4286 11.5712L 15.4286 9.5712ZM 15.4286 10.9998L 24 10.9998L 24 8.99977L 15.4286 8.99977L 15.4286 10.9998ZM 24 10.9998C 23.8273 10.9998 23.623 10.9259 23.4711 10.7563C 23.3352 10.6046 23.2879 10.4292 23.2879 10.2855C 23.2879 10.1417 23.3352 9.96639 23.4711 9.81466C 23.623 9.64511 23.8273 9.5712 24 9.5712L 24 11.5712C 24.3646 11.5712 24.7129 11.4259 24.9608 11.1492C 25.1927 10.8903 25.2879 10.5721 25.2879 10.2855C 25.2879 9.99887 25.1927 9.68068 24.9608 9.42181C 24.7129 9.14511 24.3646 8.99977 24 8.99977L 24 10.9998ZM 24 11.2855L 15.4286 11.2855L 15.4286 13.2855L 24 13.2855L 24 11.2855ZM 15.4286 11.2855C 15.6012 11.2855 15.8056 11.3594 15.9574 11.5289C 16.0934 11.6807 16.1406 11.856 16.1406 11.9998C 16.1406 12.1435 16.0934 12.3189 15.9574 12.4706C 15.8056 12.6401 15.6012 12.7141 15.4286 12.7141L 15.4286 10.7141C 15.0639 10.7141 14.7157 10.8594 14.4678 11.1361C 14.2359 11.395 14.1406 11.7132 14.1406 11.9998C 14.1406 12.2864 14.2359 12.6046 14.4678 12.8635C 14.7157 13.1401 15.0639 13.2855 15.4286 13.2855L 15.4286 11.2855ZM 15.4286 12.7141L 24 12.7141L 24 10.7141L 15.4286 10.7141L 15.4286 12.7141ZM 24 12.7141C 23.8273 12.7141 23.623 12.6401 23.4711 12.4706C 23.3352 12.3189 23.2879 12.1435 23.2879 11.9998C 23.2879 11.856 23.3352 11.6807 23.4711 11.5289C 23.623 11.3594 23.8273 11.2855 24 11.2855L 24 13.2855C 24.3646 13.2855 24.7129 13.1401 24.9608 12.8635C 25.1927 12.6046 25.2879 12.2864 25.2879 11.9998C 25.2879 11.7132 25.1927 11.395 24.9608 11.1361C 24.7129 10.8594 24.3646 10.7141 24 10.7141L 24 12.7141Z"/>
</defs>
</svg>
