<svg width="32" height="32" viewBox="0 0 32 32" version="1.1" xmlns="http://www.w3.org/2000/svg" xmlns:xlink="http://www.w3.org/1999/xlink">
<title>dashboard-icon</title>
<desc>Created using Figma</desc>
<g id="Canvas" transform="translate(6317 4580)">
<g id="dashboard-icon">
<use xlink:href="#path0_fill" transform="translate(-6317 -4580)" fill="#FFFFFF"/>
</g>
</g>
<defs>
<path id="path0_fill" fill-rule="evenodd" d="M 31 16C 31 24.284 24.284 31 16 31C 7.716 31 1 24.284 1 16C 1 7.716 7.716 1 16 1C 24.284 1 31 7.716 31 16ZM 32 16C 32 24.837 24.836 32 16 32C 7.164 32 0 24.837 0 16C 0 7.163 7.164 0 16 0C 24.836 0 32 7.163 32 16ZM 16.8 4C 16.8 4.21217 16.7157 4.41566 16.5657 4.56569C 16.4157 4.71571 16.2122 4.8 16 4.8C 15.7878 4.8 15.5843 4.71571 15.4343 4.56569C 15.2843 4.41566 15.2 4.21217 15.2 4L 15.2 3.2C 15.2 2.98783 15.2843 2.78434 15.4343 2.63431C 15.5843 2.48429 15.7878 2.4 16 2.4C 16.2122 2.4 16.4157 2.48429 16.5657 2.63431C 16.7157 2.78434 16.8 2.98783 16.8 3.2L 16.8 4ZM 4 15.2L 3.2 15.2C 2.98783 15.2 2.78434 15.2843 2.63431 15.4343C 2.48429 15.5843 2.4 15.7878 2.4 16C 2.4 16.2122 2.48429 16.4157 2.63431 16.5657C 2.78434 16.7157 2.98783 16.8 3.2 16.8L 4 16.8C 4.21217 16.8 4.41566 16.7157 4.56569 16.5657C 4.71571 16.4157 4.8 16.2122 4.8 16C 4.8 15.7878 4.71571 15.5843 4.56569 15.4343C 4.41566 15.2843 4.21217 15.2 4 15.2ZM 28.8 15.2L 28 15.2C 27.7878 15.2 27.5843 15.2843 27.4343 15.4343C 27.2843 15.5843 27.2 15.7878 27.2 16C 27.2 16.2122 27.2843 16.4157 27.4343 16.5657C 27.5843 16.7157 27.7878 16.8 28 16.8L 28.8 16.8C 29.0122 16.8 29.2157 16.7157 29.3657 16.5657C 29.5157 16.4157 29.6 16.2122 29.6 16C 29.6 15.7878 29.5157 15.5843 29.3657 15.4343C 29.2157 15.2843 29.0122 15.2 28.8 15.2ZM 6.95 23.919L 6.383 24.486C 6.2393 24.6372 6.16038 24.8386 6.16305 25.0473C 6.16572 25.2559 6.24978 25.4552 6.3973 25.6027C 6.54482 25.7502 6.74413 25.8343 6.95274 25.837C 7.16135 25.8396 7.36275 25.7607 7.514 25.617L 8.081 25.05C 8.22127 24.8981 8.29731 24.6979 8.29316 24.4912C 8.28901 24.2845 8.20501 24.0874 8.05876 23.9413C 7.9125 23.7951 7.71536 23.7113 7.50866 23.7073C 7.30196 23.7034 7.10175 23.7796 6.95 23.92L 6.95 23.919ZM 6.383 6.384C 6.53284 6.23426 6.73596 6.15006 6.94779 6.14987C 7.15963 6.14968 7.36289 6.23352 7.513 6.383L 8.081 6.95C 8.23111 7.09998 8.3155 7.30345 8.31559 7.51565C 8.31568 7.72784 8.23148 7.93139 8.0815 8.0815C 7.93152 8.23161 7.72805 8.316 7.51585 8.31609C 7.30366 8.31619 7.10011 8.23198 6.95 8.082L 6.383 7.514C 6.30868 7.43987 6.24972 7.35181 6.20948 7.25486C 6.16925 7.15791 6.14854 7.05397 6.14854 6.949C 6.14854 6.84403 6.16925 6.74009 6.20948 6.64314C 6.24972 6.54619 6.30868 6.45813 6.383 6.384L 6.383 6.384ZM 25.05 23.919C 24.8981 23.7787 24.6979 23.7027 24.4912 23.7068C 24.2845 23.711 24.0874 23.795 23.9413 23.9412C 23.7951 24.0875 23.7113 24.2846 23.7073 24.4913C 23.7034 24.698 23.7796 24.8983 23.92 25.05L 24.486 25.617C 24.6372 25.7607 24.8386 25.8396 25.0473 25.837C 25.2559 25.8343 25.4552 25.7502 25.6027 25.6027C 25.7502 25.4552 25.8343 25.2559 25.837 25.0473C 25.8396 24.8386 25.7607 24.6372 25.617 24.486L 25.05 23.919ZM 25.617 7.514L 25.05 8.081C 24.8986 8.22457 24.6972 8.30332 24.4885 8.30046C 24.2799 8.29761 24.0807 8.21338 23.9333 8.06572C 23.7859 7.91807 23.702 7.71868 23.6995 7.51007C 23.6971 7.30145 23.7762 7.10012 23.92 6.949L 24.486 6.383C 24.6372 6.2393 24.8386 6.16038 25.0473 6.16305C 25.2559 6.16572 25.4552 6.24978 25.6027 6.3973C 25.7502 6.54482 25.8343 6.74413 25.837 6.95274C 25.8396 7.16135 25.7607 7.36275 25.617 7.514L 25.617 7.514ZM 17.697 17.697C 17.4746 17.9205 17.2102 18.0978 16.9189 18.2184C 16.6276 18.3391 16.3153 18.4008 16 18.4C 15.526 18.3986 15.063 18.2569 14.6692 17.993C 14.2755 17.729 13.9686 17.3545 13.7872 16.9166C 13.6058 16.4786 13.558 15.9968 13.6498 15.5318C 13.7416 15.0667 13.9688 14.6392 14.303 14.303C 15.144 13.462 18.725 11.746 21.383 10.617C 20.255 13.274 18.54 16.855 17.697 17.697L 17.697 17.697ZM 22.552 8.572C 22.262 8.572 21.905 8.657 21.493 8.837C 21.493 8.837 14.733 11.609 13.171 13.172C 12.421 13.9223 11.9997 14.9398 11.9999 16.0007C 12.0001 17.0616 12.4217 18.079 13.172 18.829C 13.9223 19.579 14.9398 20.0003 16.0007 20.0001C 17.0616 19.9999 18.079 19.5783 18.829 18.828C 20.391 17.267 23.164 10.507 23.164 10.507C 23.684 9.299 23.4 8.572 22.552 8.572L 22.552 8.572Z"/>
</defs>
</svg>
