<svg width="30" height="32" viewBox="0 0 30 32" version="1.1" xmlns="http://www.w3.org/2000/svg" xmlns:xlink="http://www.w3.org/1999/xlink">
<title>events-icon</title>
<desc>Created using Figma</desc>
<g id="Canvas" transform="translate(6322 4385)">
<g id="events-icon">
<use xlink:href="#path0_fill" transform="translate(-6322 -4385)" fill="#FFFFFF"/>
<use xlink:href="#path1_fill" transform="translate(-6322 -4385)" fill="#FFFFFF"/>
<use xlink:href="#path2_fill" transform="translate(-6322 -4385)" fill="#FFFFFF"/>
</g>
</g>
<defs>
<path id="path0_fill" d="M 23.4845 3.00252L 22.2747 3.00252L 22.2747 0.896381C 22.2747 0.402654 21.872 0 21.3783 0C 20.8846 0 20.482 0.402672 20.482 0.896381L 20.482 3.00252L 9.27719 3.00252L 9.27719 0.896381C 9.27719 0.402654 8.87451 0 8.38081 0C 7.8871 0 7.48442 0.402672 7.48442 0.896381L 7.48442 3.00252L 6.27467 3.00252C 2.82396 3.00252 0 5.82648 0 9.27719L 0 25.7253C 0 29.176 2.82396 32 6.27467 32L 23.53 32C 26.9807 32 29.8047 29.176 29.8047 25.7253L 29.8047 9.27719C 29.7592 5.82648 26.9809 3.00252 23.4845 3.00252ZM 23.4845 30.2072L 6.27485 30.2072C 3.8098 30.2072 1.79294 28.1904 1.79294 25.7253L 1.79294 13.3109L 28.0121 13.3109L 28.0121 25.7253C 27.9666 28.1904 25.9497 30.2072 23.4845 30.2072ZM 27.9664 11.5181L 1.79294 11.5181L 1.79294 9.27719C 1.79294 6.81214 3.8098 4.79528 6.27485 4.79528L 7.4846 4.79528L 7.4846 6.90142C 7.4846 7.39514 7.88727 7.7978 8.38098 7.7978C 8.87469 7.7978 9.27736 7.39513 9.27736 6.90142L 9.27736 4.79528L 20.4821 4.79528L 20.4821 6.90142C 20.4821 7.39514 20.8848 7.7978 21.3785 7.7978C 21.8722 7.7978 22.2749 7.39513 22.2749 6.90142L 22.2749 4.79528L 23.4846 4.79528C 25.9497 4.79528 27.9666 6.81214 27.9666 9.27719L 27.9664 11.5181Z"/>
<path id="path1_fill" d="M 22.4531 23.1709L 7.30556 23.1709C 6.81183 23.1709 6.40918 23.5736 6.40918 24.0673C 6.40918 24.561 6.81185 24.9637 7.30556 24.9637L 22.4091 24.9637C 22.9029 24.9637 23.3055 24.561 23.3055 24.0673C 23.3055 23.5736 22.9467 23.1709 22.4531 23.1709Z"/>
<path id="path2_fill" d="M 9.86025 19.8987L 19.9445 19.8987C 20.4383 19.8987 20.8409 19.496 20.8409 19.0023C 20.8409 18.5086 20.4382 18.106 19.9445 18.106L 9.86025 18.106C 9.36652 18.106 8.96387 18.5086 8.96387 19.0023C 8.96387 19.4961 9.36654 19.8987 9.86025 19.8987Z"/>
</defs>
</svg>
