<svg width="34" height="32" viewBox="0 0 34 32" version="1.1" xmlns="http://www.w3.org/2000/svg" xmlns:xlink="http://www.w3.org/1999/xlink">
<title>Ministries-icons</title>
<desc>Created using Figma</desc>
<g id="Canvas" transform="translate(6321 4450)">
<g id="Ministries-icons">
<use xlink:href="#path0_fill" transform="translate(-6321 -4450)" fill="#FFFFFF"/>
</g>
</g>
<defs>
<path id="path0_fill" d="M 16.5513 11.3101C 18.9242 11.3101 20.8552 9.3791 20.8552 6.95242C 20.8552 4.52574 18.9242 2.59473 16.5513 2.59473C 14.1785 2.59473 12.2475 4.52574 12.2475 6.95242C 12.2475 9.3791 14.1785 11.3101 16.5513 11.3101ZM 16.5513 4.02798C 18.2065 4.02798 19.5297 5.35123 19.5297 7.00638C 19.5297 8.66154 18.2065 9.98693 16.5513 9.98693C 14.8962 9.98693 13.5729 8.66369 13.5729 7.00853C 13.5729 5.35123 14.8962 4.02798 16.5513 4.02798L 16.5513 4.02798ZM 27.1438 8.66154C 29.5166 8.66154 31.4476 6.73052 31.4476 4.30384C 31.4476 1.87501 29.5166 1.4985e-07 27.1438 1.4985e-07C 24.7709 1.4985e-07 22.8399 1.93101 22.8399 4.35769C 22.8399 6.78652 24.7709 8.66154 27.1438 8.66154ZM 27.1438 1.32313C 28.7989 1.32313 30.1222 2.64637 30.1222 4.30153C 30.1222 5.95668 28.7989 7.27992 27.1438 7.27992C 25.4886 7.27992 24.1654 5.95668 24.1654 4.30153C 24.1654 2.64852 25.4886 1.32313 27.1438 1.32313ZM 33.1029 12.6896L 33.1029 20.1941C 33.1029 20.7458 32.7171 21.2975 32.2193 21.4635L 31.1158 21.8493L 31.1158 28.028C 31.1158 28.7456 30.508 29.3512 29.7926 29.3512L 24.4952 29.3512C 23.7775 29.3512 23.172 28.7434 23.172 28.028L 23.172 22.8965L 23.172 20.4138L 23.6138 20.5798C 24.1655 20.7457 24.4974 21.2974 24.4974 21.8491L 24.4974 28.0278L 29.7926 28.0278L 29.7926 21.7929C 29.7926 21.2412 30.1784 20.6894 30.6762 20.5235L 31.7797 20.1377L 31.7797 12.6895C 31.7797 11.5861 30.8961 10.7024 29.7926 10.7024L 24.4952 10.7024C 23.3918 10.7024 22.5082 11.5861 22.5082 12.6895L 22.5082 13.1313C 22.1763 12.6356 21.7905 12.2477 21.2948 11.918C 21.6267 10.4288 22.95 9.32534 24.4952 9.32534L 29.7926 9.32319C 31.6137 9.32319 33.1029 10.8145 33.1029 12.6895L 33.1029 12.6896ZM 5.9589 8.66165C 8.33173 8.66165 10.2627 6.73063 10.2627 4.30395C 10.2627 1.87513 8.33173 0.000110643 5.9589 0.000110643C 3.58607 0.000110643 1.65506 1.93112 1.65506 4.3578C 1.65506 6.78663 3.58607 8.66165 5.9589 8.66165L 5.9589 8.66165ZM 5.9589 1.32324C 7.61405 1.32324 8.9373 2.64648 8.9373 4.30164C 8.9373 5.95679 7.61405 7.28003 5.9589 7.28003C 4.30374 7.28003 2.9805 5.95679 2.9805 4.30164C 2.97835 2.64863 4.30374 1.32324 5.9589 1.32324L 5.9589 1.32324ZM 1.3232 12.6897L 1.3232 20.1942L 2.42663 20.58C 2.97835 20.7459 3.31026 21.2977 3.31026 21.8494L 3.31026 28.0281L 8.60764 28.0281L 8.60764 21.7931C 8.60764 21.2414 8.99342 20.6897 9.49127 20.5237L 9.93093 20.4138L 9.93093 22.8405L 9.93093 27.9719C 9.93093 28.6896 9.32315 29.2951 8.60769 29.2951L 3.31031 29.2973C 2.59263 29.2973 1.98707 28.6895 1.98707 27.974L 1.98707 21.7931L 0.883632 21.4074C 0.331914 21.2414 -2.41444e-07 20.6897 -2.41444e-07 20.138L -2.41444e-07 12.6898C -2.41444e-07 10.8687 1.4892 9.37948 3.31031 9.37948L 8.60769 9.37948C 10.1529 9.37948 11.4762 10.4829 11.8081 11.9721C 11.3124 12.304 10.8706 12.6898 10.5948 13.1855L 10.5926 12.6898C 10.5926 11.5863 9.70897 10.7027 8.60553 10.7027L 3.31031 10.7027C 2.20687 10.6488 1.32324 11.5863 1.32324 12.6898L 1.3232 12.6897ZM 19.2 12.0281L 13.9026 12.0281C 12.0815 12.0281 10.5923 13.5173 10.5923 15.3384L 10.5923 22.8429C 10.5923 23.3946 10.9781 23.9463 11.4759 24.1123L 12.5794 24.4981L 12.5794 30.6768C 12.5794 31.3944 13.1871 32 13.9026 32L 19.2 32C 19.9176 32 20.5232 31.3922 20.5232 30.6768L 20.5232 24.4959L 21.6266 24.1101C 22.1784 23.9441 22.5103 23.3924 22.5103 22.8407L 22.5103 15.3384C 22.5103 13.5173 21.0211 12.0281 19.2 12.0281L 19.2 12.0281ZM 21.1849 22.8407L 20.0815 23.2265C 19.5297 23.3924 19.1978 23.9441 19.1978 24.4959L 19.1978 30.6746L 13.9004 30.6746L 13.9026 24.4959C 13.9026 23.9441 13.5168 23.3924 13.019 23.2265L 11.9155 22.8407L 11.9177 15.3384C 11.9177 14.235 12.8013 13.3514 13.9048 13.3514L 19.2021 13.3514C 20.3056 13.3514 21.1892 14.235 21.1892 15.3384L 21.1849 22.8407Z"/>
</defs>
</svg>
