<svg width="34" height="28" viewBox="0 0 34 28" version="1.1" xmlns="http://www.w3.org/2000/svg" xmlns:xlink="http://www.w3.org/1999/xlink">
<title>photos-icon</title>
<desc>Created using Figma</desc>
<g id="Canvas" transform="translate(6319 4256)">
<g id="photos-icon">
<use xlink:href="#path0_fill" transform="translate(-6318 -4255)" fill="#FFFFFF"/>
<use xlink:href="#path1_fill" transform="translate(-6318 -4255)" fill="#FFFFFF"/>
<use xlink:href="#path2_fill" transform="translate(-6318 -4255)" fill="#FFFFFF"/>
<use xlink:href="#path3_stroke" transform="translate(-6318 -4255)" fill="#FFFFFF"/>
</g>
</g>
<defs>
<path id="path0_fill" d="M 32 25.6699L 32 4.55945L 26.7083 4.55945L 26.7083 0L 0 0L 0 21.1105L 4.93185 21.1105L 4.93185 25.6699L 32 25.6699ZM 31.2804 5.27906L 31.2804 24.9503L 5.65146 24.9503L 5.65146 21.1105L 26.7083 21.1105L 26.7083 5.27906L 31.2804 5.27906ZM 0.719251 0.71961L 25.9884 0.71961L 25.9884 20.3909L 0.719251 20.3909L 0.719251 0.71961Z"/>
<path id="path1_fill" d="M 16.5215 8.44116C 17.5179 8.44116 18.4175 7.84101 18.7983 6.92041C 19.1806 5.99841 18.9698 4.93867 18.2642 4.23453C 17.5601 3.52899 16.499 3.31815 15.5784 3.70044C 14.6578 4.08133 14.0576 4.97944 14.0576 5.97732C 14.059 7.33782 15.1609 8.43976 16.5215 8.44116ZM 16.5215 4.22748C 17.227 4.22748 17.8637 4.65335 18.1336 5.3055C 18.4034 5.95764 18.2544 6.70816 17.7555 7.20714C 17.2565 7.70608 16.506 7.85508 15.8538 7.58522C 15.2017 7.31537 14.7772 6.67869 14.7772 5.97311C 14.78 5.01175 15.5601 4.23313 16.5215 4.23173L 16.5215 4.22748Z"/>
<path id="path2_fill" d="M 15.9491 14.3754L 10.9118 7.03613L 3.90283 17.2287L 23.5881 17.2287L 18.6268 11.0361L 15.9491 14.3754ZM 5.27016 16.509L 10.9047 8.30506L 16.5393 16.509L 5.27016 16.509ZM 17.4136 16.509L 16.3595 14.9939L 18.6125 12.1773L 22.077 16.4949L 17.4136 16.509Z"/>
<path id="path3_stroke" d="M 32 25.6699L 32 26.1699L 32.5 26.1699L 32.5 25.6699L 32 25.6699ZM 32 4.55945L 32.5 4.55945L 32.5 4.05945L 32 4.05945L 32 4.55945ZM 26.7083 4.55945L 26.2083 4.55945L 26.2083 5.05945L 26.7083 5.05945L 26.7083 4.55945ZM 26.7083 0L 27.2083 0L 27.2083 -0.5L 26.7083 -0.5L 26.7083 0ZM 0 0L 0 -0.5L -0.5 -0.5L -0.5 0L 0 0ZM 0 21.1105L -0.5 21.1105L -0.5 21.6105L 0 21.6105L 0 21.1105ZM 4.93185 21.1105L 5.43185 21.1105L 5.43185 20.6105L 4.93185 20.6105L 4.93185 21.1105ZM 4.93185 25.6699L 4.43185 25.6699L 4.43185 26.1699L 4.93185 26.1699L 4.93185 25.6699ZM 31.2804 5.27906L 31.7804 5.27906L 31.7804 4.77906L 31.2804 4.77906L 31.2804 5.27906ZM 31.2804 24.9503L 31.2804 25.4503L 31.7804 25.4503L 31.7804 24.9503L 31.2804 24.9503ZM 5.65146 24.9503L 5.15146 24.9503L 5.15146 25.4503L 5.65146 25.4503L 5.65146 24.9503ZM 5.65146 21.1105L 5.65146 20.6105L 5.15146 20.6105L 5.15146 21.1105L 5.65146 21.1105ZM 26.7083 21.1105L 26.7083 21.6105L 27.2083 21.6105L 27.2083 21.1105L 26.7083 21.1105ZM 26.7083 5.27906L 26.7083 4.77906L 26.2083 4.77906L 26.2083 5.27906L 26.7083 5.27906ZM 0.719251 0.71961L 0.719251 0.21961L 0.219251 0.21961L 0.219251 0.71961L 0.719251 0.71961ZM 25.9884 0.71961L 26.4884 0.71961L 26.4884 0.21961L 25.9884 0.21961L 25.9884 0.71961ZM 25.9884 20.3909L 25.9884 20.8909L 26.4884 20.8909L 26.4884 20.3909L 25.9884 20.3909ZM 0.719251 20.3909L 0.219251 20.3909L 0.219251 20.8909L 0.719251 20.8909L 0.719251 20.3909ZM 16.5215 8.44116L 16.5209 8.94116L 16.5215 8.94116L 16.5215 8.44116ZM 18.7983 6.92041L 18.3365 6.7289L 18.3363 6.72925L 18.7983 6.92041ZM 18.2642 4.23453L 17.9103 4.58774L 17.911 4.58845L 18.2642 4.23453ZM 15.5784 3.70044L 15.7695 4.16246L 15.7701 4.16221L 15.5784 3.70044ZM 14.0576 5.97732L 13.5576 5.97732L 13.5576 5.97784L 14.0576 5.97732ZM 16.5215 4.22748L 16.5215 3.72748L 16.0215 3.72748L 16.0215 4.22748L 16.5215 4.22748ZM 17.7555 7.20714L 18.109 7.56069L 18.109 7.56068L 17.7555 7.20714ZM 14.7772 5.97311L 14.2772 5.97165L 14.2772 5.97311L 14.7772 5.97311ZM 16.5215 4.23173L 16.5222 4.73173L 17.0215 4.731L 17.0215 4.23173L 16.5215 4.23173ZM 15.9491 14.3754L 15.5369 14.6584L 15.9179 15.2136L 16.3392 14.6882L 15.9491 14.3754ZM 10.9118 7.03613L 11.3241 6.75319L 10.9122 6.15313L 10.4998 6.75282L 10.9118 7.03613ZM 3.90283 17.2287L 3.49084 16.9454L 2.95219 17.7287L 3.90283 17.7287L 3.90283 17.2287ZM 23.5881 17.2287L 23.5881 17.7287L 24.6294 17.7287L 23.9783 16.9161L 23.5881 17.2287ZM 18.6268 11.0361L 19.017 10.7235L 18.6269 10.2366L 18.2367 10.7233L 18.6268 11.0361ZM 5.27016 16.509L 4.85801 16.2259L 4.32019 17.009L 5.27016 17.009L 5.27016 16.509ZM 10.9047 8.30506L 11.3169 8.02199L 10.9047 7.42189L 10.4926 8.02199L 10.9047 8.30506ZM 16.5393 16.509L 16.5393 17.009L 17.4892 17.009L 16.9514 16.2259L 16.5393 16.509ZM 17.4136 16.509L 17.0032 16.7945L 17.1529 17.0098L 17.4151 17.009L 17.4136 16.509ZM 16.3595 14.9939L 15.9691 14.6816L 15.7359 14.973L 15.9491 15.2794L 16.3595 14.9939ZM 18.6125 12.1773L 19.0025 11.8644L 18.6119 11.3776L 18.222 11.865L 18.6125 12.1773ZM 22.077 16.4949L 22.0785 16.9949L 23.1168 16.9918L 22.467 16.182L 22.077 16.4949ZM 32.5 25.6699L 32.5 4.55945L 31.5 4.55945L 31.5 25.6699L 32.5 25.6699ZM 32 4.05945L 26.7083 4.05945L 26.7083 5.05945L 32 5.05945L 32 4.05945ZM 27.2083 4.55945L 27.2083 0L 26.2083 0L 26.2083 4.55945L 27.2083 4.55945ZM 26.7083 -0.5L 0 -0.5L 0 0.5L 26.7083 0.5L 26.7083 -0.5ZM -0.5 0L -0.5 21.1105L 0.5 21.1105L 0.5 0L -0.5 0ZM 0 21.6105L 4.93185 21.6105L 4.93185 20.6105L 0 20.6105L 0 21.6105ZM 4.43185 21.1105L 4.43185 25.6699L 5.43185 25.6699L 5.43185 21.1105L 4.43185 21.1105ZM 4.93185 26.1699L 32 26.1699L 32 25.1699L 4.93185 25.1699L 4.93185 26.1699ZM 30.7804 5.27906L 30.7804 24.9503L 31.7804 24.9503L 31.7804 5.27906L 30.7804 5.27906ZM 31.2804 24.4503L 5.65146 24.4503L 5.65146 25.4503L 31.2804 25.4503L 31.2804 24.4503ZM 6.15146 24.9503L 6.15146 21.1105L 5.15146 21.1105L 5.15146 24.9503L 6.15146 24.9503ZM 5.65146 21.6105L 26.7083 21.6105L 26.7083 20.6105L 5.65146 20.6105L 5.65146 21.6105ZM 27.2083 21.1105L 27.2083 5.27906L 26.2083 5.27906L 26.2083 21.1105L 27.2083 21.1105ZM 26.7083 5.77906L 31.2804 5.77906L 31.2804 4.77906L 26.7083 4.77906L 26.7083 5.77906ZM 0.719251 1.21961L 25.9884 1.21961L 25.9884 0.21961L 0.719251 0.21961L 0.719251 1.21961ZM 25.4884 0.71961L 25.4884 20.3909L 26.4884 20.3909L 26.4884 0.71961L 25.4884 0.71961ZM 25.9884 19.8909L 0.719251 19.8909L 0.719251 20.8909L 25.9884 20.8909L 25.9884 19.8909ZM 1.21925 20.3909L 1.21925 0.71961L 0.219251 0.71961L 0.219251 20.3909L 1.21925 20.3909ZM 16.5215 8.94116C 17.7198 8.94116 18.802 8.21949 19.2604 7.11157L 18.3363 6.72925C 18.0329 7.46253 17.3161 7.94116 16.5215 7.94116L 16.5215 8.94116ZM 19.2602 7.11192C 19.7199 6.00314 19.4665 4.728 18.6174 3.88062L 17.911 4.58845C 18.4731 5.14935 18.6413 5.99367 18.3365 6.7289L 19.2602 7.11192ZM 18.6181 3.88133C 17.7708 3.03232 16.4942 2.77873 15.3866 3.23867L 15.7701 4.16221C 16.5037 3.85756 17.3494 4.02566 17.9103 4.58774L 18.6181 3.88133ZM 15.3872 3.23842C 14.2794 3.69675 13.5576 4.77739 13.5576 5.97732L 14.5576 5.97732C 14.5576 5.18149 15.0361 4.4659 15.7695 4.16246L 15.3872 3.23842ZM 13.5576 5.97784C 13.5593 7.61407 14.8847 8.93948 16.5209 8.94116L 16.522 7.94116C 15.4372 7.94004 14.5587 7.06157 14.5576 5.97681L 13.5576 5.97784ZM 16.5215 4.72748C 17.0245 4.72748 17.479 5.03129 17.6716 5.49667L 18.5956 5.11432C 18.2484 4.2754 17.4295 3.72748 16.5215 3.72748L 16.5215 4.72748ZM 17.6716 5.49667C 17.8642 5.96227 17.7577 6.49776 17.4019 6.85359L 18.109 7.56068C 18.7511 6.91856 18.9426 5.95301 18.5956 5.11432L 17.6716 5.49667ZM 17.4019 6.85358C 17.0461 7.20937 16.5106 7.31588 16.045 7.12321L 15.6627 8.04723C 16.5014 8.39427 17.4669 8.20279 18.109 7.56069L 17.4019 6.85358ZM 16.045 7.12321C 15.5803 6.93091 15.2772 6.47691 15.2772 5.97311L 14.2772 5.97311C 14.2772 6.88047 14.8231 7.69983 15.6627 8.04723L 16.045 7.12321ZM 15.2772 5.97458C 15.2792 5.28861 15.836 4.73273 16.5222 4.73173L 16.5207 3.73173C 15.2842 3.73353 14.2808 4.73489 14.2772 5.97165L 15.2772 5.97458ZM 17.0215 4.23173L 17.0215 4.22748L 16.0215 4.22748L 16.0215 4.23173L 17.0215 4.23173ZM 16.3614 14.0925L 11.3241 6.75319L 10.4996 7.31907L 15.5369 14.6584L 16.3614 14.0925ZM 10.4998 6.75282L 3.49084 16.9454L 4.31482 17.512L 11.3238 7.31944L 10.4998 6.75282ZM 3.90283 17.7287L 23.5881 17.7287L 23.5881 16.7287L 3.90283 16.7287L 3.90283 17.7287ZM 23.9783 16.9161L 19.017 10.7235L 18.2366 11.3487L 23.1979 17.5413L 23.9783 16.9161ZM 18.2367 10.7233L 15.559 14.0627L 16.3392 14.6882L 19.0169 11.3489L 18.2367 10.7233ZM 5.68232 16.7921L 11.3169 8.58813L 10.4926 8.02199L 4.85801 16.2259L 5.68232 16.7921ZM 10.4926 8.58813L 16.1271 16.7921L 16.9514 16.2259L 11.3169 8.02199L 10.4926 8.58813ZM 17.8241 16.2234L 16.7699 14.7083L 15.9491 15.2794L 17.0032 16.7945L 17.8241 16.2234ZM 16.75 15.3062L 19.003 12.4896L 18.222 11.865L 15.9691 14.6816L 16.75 15.3062ZM 18.2225 12.4902L 21.6871 16.8079L 22.467 16.182L 19.0025 11.8644L 18.2225 12.4902ZM 22.0755 15.9949L 17.4121 16.009L 17.4151 17.009L 22.0785 16.9949L 22.0755 15.9949ZM 16.5393 16.009L 5.27016 16.009L 5.27016 17.009L 16.5393 17.009L 16.5393 16.009Z"/>
</defs>
</svg>
