<svg width="34" height="34" viewBox="0 0 34 34" version="1.1" xmlns="http://www.w3.org/2000/svg" xmlns:xlink="http://www.w3.org/1999/xlink">
<title>welcomePage-icon</title>
<desc>Created using Figma</desc>
<g id="Canvas" transform="translate(6318 4516)">
<g id="welcomePage-icon">
<use xlink:href="#path0_fill" transform="translate(-6317 -4515)" fill="#FFFFFF"/>
<use xlink:href="#path1_fill" transform="translate(-6317 -4515)" fill="#FFFFFF"/>
<use xlink:href="#path2_fill" transform="translate(-6317 -4515)" fill="#FFFFFF"/>
<use xlink:href="#path3_fill" transform="translate(-6317 -4515)" fill="#FFFFFF"/>
<use xlink:href="#path4_fill" transform="translate(-6317 -4515)" fill="#FFFFFF"/>
<use xlink:href="#path5_stroke" transform="translate(-6317 -4515)" fill="#FFFFFF"/>
</g>
</g>
<defs>
<path id="path0_fill" d="M 27.1751 32C 26.9779 32 26.8196 31.8417 26.8196 31.6444L 26.8196 0.711111L 5.18084 0.711111L 5.18084 31.6444C 5.18084 31.8417 5.0225 32 4.82528 32C 4.62806 32 4.46973 31.8417 4.46973 31.6444L 4.46973 0.355556C 4.46973 0.158332 4.62806 0 4.82528 0L 27.1751 0C 27.3724 0 27.5307 0.158332 27.5307 0.355556L 27.5307 31.6444C 27.5307 31.8417 27.371 32 27.1751 32Z"/>
<path id="path1_fill" d="M 4.82528 32L 0.355555 32.0002C 0.158332 32.0002 0 31.8418 0 31.6446C 0 31.4474 0.158332 31.2891 0.355555 31.2891L 4.82489 31.2891C 5.02211 31.2891 5.18084 31.4472 5.18084 31.6444C 5.18084 31.8417 5.0225 32 4.82528 32Z"/>
<path id="path2_fill" d="M 31.6442 32.0002L 27.1751 32C 26.9779 32 26.8196 31.8417 26.8196 31.6444C 26.8196 31.4472 26.9777 31.2891 27.1749 31.2891L 31.6442 31.2891C 31.8414 31.2891 31.9998 31.4474 31.9998 31.6446C 31.9998 31.8418 31.8414 32.0002 31.6442 32.0002Z"/>
<path id="path3_fill" d="M 4.82528 32C 4.65028 32 4.49707 31.8707 4.47346 31.6915C 4.44707 31.4971 4.58457 31.3179 4.77902 31.2929L 21.2316 29.0984L 21.2316 4.01934L 4.77902 1.82627C 4.58457 1.79988 4.44707 1.6221 4.47346 1.42766C 4.49985 1.23321 4.67624 1.0971 4.87207 1.1221L 21.6333 3.35684C 21.8097 3.38045 21.9417 3.53045 21.9417 3.70962L 21.9417 29.4109C 21.9417 29.5887 21.8097 29.7401 21.6333 29.7637L 4.87207 31.9985C 4.8568 31.9985 4.84056 32 4.82528 32Z"/>
<path id="path4_fill" d="M 17.1183 17.0149C 16.0961 17.0149 15.2642 16.183 15.2642 15.1608C 15.2642 14.1386 16.0961 13.3066 17.1183 13.3066C 18.1405 13.3066 18.9725 14.1386 18.9725 15.1608C 18.9725 16.1844 18.1405 17.0149 17.1183 17.0149ZM 17.1183 13.6635C 16.2919 13.6635 15.6197 14.3358 15.6197 15.1621C 15.6197 15.9885 16.2919 16.6607 17.1183 16.6607C 17.9447 16.6607 18.6169 15.9885 18.6169 15.1621C 18.6169 14.3358 17.9447 13.6635 17.1183 13.6635Z"/>
<path id="path5_stroke" d="M 26.8196 0.711111L 27.3196 0.711111L 27.3196 0.211111L 26.8196 0.211111L 26.8196 0.711111ZM 5.18084 0.711111L 5.18084 0.211111L 4.68084 0.211111L 4.68084 0.711111L 5.18084 0.711111ZM 0.355555 32.0002L 0.355555 32.5002L 0.355575 32.5002L 0.355555 32.0002ZM 31.6442 32.0002L 31.6442 32.5002L 31.6442 32.5002L 31.6442 32.0002ZM 4.47346 31.6915L 4.96918 31.6262L 4.96892 31.6243L 4.47346 31.6915ZM 4.77902 31.2929L 4.84277 31.7888L 4.84512 31.7885L 4.77902 31.2929ZM 21.2316 29.0984L 21.2977 29.5941L 21.7316 29.5362L 21.7316 29.0984L 21.2316 29.0984ZM 21.2316 4.01934L 21.7316 4.01934L 21.7316 3.58156L 21.2977 3.52372L 21.2316 4.01934ZM 4.77902 1.82627L 4.71178 2.32173L 4.71295 2.32189L 4.77902 1.82627ZM 4.87207 1.1221L 4.93815 0.626478L 4.93539 0.626125L 4.87207 1.1221ZM 21.6333 3.35684L 21.6997 2.86126L 21.6994 2.86122L 21.6333 3.35684ZM 21.6333 29.7637L 21.6994 30.2593L 21.6997 30.2593L 21.6333 29.7637ZM 4.87207 31.9985L 4.87207 32.4985L 4.90526 32.4985L 4.93815 32.4941L 4.87207 31.9985ZM 27.1751 31.5C 27.2541 31.5 27.3196 31.5655 27.3196 31.6444L 26.3196 31.6444C 26.3196 32.1178 26.7018 32.5 27.1751 32.5L 27.1751 31.5ZM 27.3196 31.6444L 27.3196 0.711111L 26.3196 0.711111L 26.3196 31.6444L 27.3196 31.6444ZM 26.8196 0.211111L 5.18084 0.211111L 5.18084 1.21111L 26.8196 1.21111L 26.8196 0.211111ZM 4.68084 0.711111L 4.68084 31.6444L 5.68084 31.6444L 5.68084 0.711111L 4.68084 0.711111ZM 4.68084 31.6444C 4.68084 31.5655 4.74636 31.5 4.82528 31.5L 4.82528 32.5C 5.29865 32.5 5.68084 32.1178 5.68084 31.6444L 4.68084 31.6444ZM 4.82528 31.5C 4.9042 31.5 4.96973 31.5655 4.96973 31.6444L 3.96973 31.6444C 3.96973 32.1178 4.35192 32.5 4.82528 32.5L 4.82528 31.5ZM 4.96973 31.6444L 4.96973 0.355556L 3.96973 0.355556L 3.96973 31.6444L 4.96973 31.6444ZM 4.96973 0.355556C 4.96973 0.434475 4.9042 0.5 4.82528 0.5L 4.82528 -0.5C 4.35192 -0.5 3.96973 -0.11781 3.96973 0.355556L 4.96973 0.355556ZM 4.82528 0.5L 27.1751 0.5L 27.1751 -0.5L 4.82528 -0.5L 4.82528 0.5ZM 27.1751 0.5C 27.0962 0.5 27.0307 0.434473 27.0307 0.355556L 28.0307 0.355556C 28.0307 -0.117808 27.6485 -0.5 27.1751 -0.5L 27.1751 0.5ZM 27.0307 0.355556L 27.0307 31.6444L 28.0307 31.6444L 28.0307 0.355556L 27.0307 0.355556ZM 27.0307 31.6444C 27.0307 31.5642 27.0961 31.5 27.1751 31.5L 27.1751 32.5C 27.6458 32.5 28.0307 32.1191 28.0307 31.6444L 27.0307 31.6444ZM 4.82526 31.5L 0.355536 31.5002L 0.355575 32.5002L 4.8253 32.5L 4.82526 31.5ZM 0.355555 31.5002C 0.434473 31.5002 0.5 31.5657 0.5 31.6446L -0.5 31.6446C -0.5 32.118 -0.117808 32.5002 0.355555 32.5002L 0.355555 31.5002ZM 0.5 31.6446C 0.5 31.7235 0.434473 31.7891 0.355555 31.7891L 0.355555 30.7891C -0.117808 30.7891 -0.5 31.1712 -0.5 31.6446L 0.5 31.6446ZM 0.355555 31.7891L 4.82489 31.7891L 4.82489 30.7891L 0.355555 30.7891L 0.355555 31.7891ZM 4.82489 31.7891C 4.74702 31.7891 4.68084 31.7244 4.68084 31.6444L 5.68084 31.6444C 5.68084 31.17 5.2972 30.7891 4.82489 30.7891L 4.82489 31.7891ZM 31.6442 31.5002L 27.1752 31.5L 27.1751 32.5L 31.6442 32.5002L 31.6442 31.5002ZM 27.3196 31.6444C 27.3196 31.7232 27.2539 31.7891 27.1749 31.7891L 27.1749 30.7891C 26.7014 30.7891 26.3196 31.1712 26.3196 31.6444L 27.3196 31.6444ZM 27.1749 31.7891L 31.6442 31.7891L 31.6442 30.7891L 27.1749 30.7891L 27.1749 31.7891ZM 31.6442 31.7891C 31.5653 31.7891 31.4998 31.7235 31.4998 31.6446L 32.4998 31.6446C 32.4998 31.1713 32.1176 30.7891 31.6442 30.7891L 31.6442 31.7891ZM 31.4998 31.6446C 31.4998 31.5657 31.5653 31.5002 31.6442 31.5002L 31.6442 32.5002C 32.1176 32.5002 32.4998 32.118 32.4998 31.6446L 31.4998 31.6446ZM 4.82528 31.5C 4.89613 31.5 4.95935 31.5516 4.96917 31.6262L 3.97775 31.7568C 4.03479 32.1897 4.40443 32.5 4.82528 32.5L 4.82528 31.5ZM 4.96892 31.6243C 4.97987 31.705 4.92344 31.7784 4.84277 31.7888L 4.71527 30.797C 4.2457 30.8573 3.91427 31.2892 3.978 31.7588L 4.96892 31.6243ZM 4.84512 31.7885L 21.2977 29.5941L 21.1655 28.6028L 4.71291 30.7973L 4.84512 31.7885ZM 21.7316 29.0984L 21.7316 4.01934L 20.7316 4.01934L 20.7316 29.0984L 21.7316 29.0984ZM 21.2977 3.52372L 4.84508 1.33065L 4.71295 2.32189L 21.1656 4.51495L 21.2977 3.52372ZM 4.84626 1.33081C 4.92092 1.34095 4.98027 1.41121 4.96892 1.49489L 3.978 1.36042C 3.91387 1.833 4.24822 2.25882 4.71178 2.32173L 4.84626 1.33081ZM 4.96892 1.49489C 4.95845 1.57207 4.88579 1.62791 4.80876 1.61808L 4.93539 0.626125C 4.46668 0.566293 4.04125 0.89435 3.978 1.36042L 4.96892 1.49489ZM 4.80599 1.61771L 21.5672 3.85245L 21.6994 2.86122L 4.93815 0.626486L 4.80599 1.61771ZM 21.567 3.85242C 21.4954 3.84284 21.4417 3.78127 21.4417 3.70962L 22.4417 3.70962C 22.4417 3.27962 22.124 2.91806 21.6997 2.86126L 21.567 3.85242ZM 21.4417 3.70962L 21.4417 29.4109L 22.4417 29.4109L 22.4417 3.70962L 21.4417 3.70962ZM 21.4417 29.4109C 21.4417 29.3391 21.4942 29.2779 21.567 29.2681L 21.6997 30.2593C 22.1252 30.2023 22.4417 29.8383 22.4417 29.4109L 21.4417 29.4109ZM 21.5672 29.2681L 4.80599 31.5028L 4.93815 32.4941L 21.6994 30.2593L 21.5672 29.2681ZM 4.87207 31.4985C 4.85014 31.4985 4.8299 31.4995 4.82435 31.4998C 4.81414 31.5003 4.81862 31.5 4.82528 31.5L 4.82528 32.5C 4.84722 32.5 4.86745 32.4989 4.87301 32.4986C 4.88321 32.4981 4.87873 32.4985 4.87207 32.4985L 4.87207 31.4985ZM 17.1183 16.5149C 16.3722 16.5149 15.7642 15.9069 15.7642 15.1608L 14.7642 15.1608C 14.7642 16.4592 15.8199 17.5149 17.1183 17.5149L 17.1183 16.5149ZM 15.7642 15.1608C 15.7642 14.4147 16.3722 13.8066 17.1183 13.8066L 17.1183 12.8066C 15.8199 12.8066 14.7642 13.8624 14.7642 15.1608L 15.7642 15.1608ZM 17.1183 13.8066C 17.8644 13.8066 18.4725 14.4147 18.4725 15.1608L 19.4725 15.1608C 19.4725 13.8624 18.4167 12.8066 17.1183 12.8066L 17.1183 13.8066ZM 18.4725 15.1608C 18.4725 15.908 17.8646 16.5149 17.1183 16.5149L 17.1183 17.5149C 18.4164 17.5149 19.4725 16.4608 19.4725 15.1608L 18.4725 15.1608ZM 17.1183 13.1635C 16.0158 13.1635 15.1197 14.0596 15.1197 15.1621L 16.1197 15.1621C 16.1197 14.6119 16.5681 14.1635 17.1183 14.1635L 17.1183 13.1635ZM 15.1197 15.1621C 15.1197 16.2647 16.0158 17.1607 17.1183 17.1607L 17.1183 16.1607C 16.5681 16.1607 16.1197 15.7124 16.1197 15.1621L 15.1197 15.1621ZM 17.1183 17.1607C 18.2208 17.1607 19.1169 16.2647 19.1169 15.1621L 18.1169 15.1621C 18.1169 15.7124 17.6686 16.1607 17.1183 16.1607L 17.1183 17.1607ZM 19.1169 15.1621C 19.1169 14.0596 18.2208 13.1635 17.1183 13.1635L 17.1183 14.1635C 17.6685 14.1635 18.1169 14.6119 18.1169 15.1621L 19.1169 15.1621Z"/>
</defs>
</svg>
